<?xml version="1.0" encoding="UTF-8"?>
<svg width="310px" height="570px" viewBox="0 0 310 570" version="1.1" xmlns="http://www.w3.org/2000/svg" xmlns:xlink="http://www.w3.org/1999/xlink">
    <!-- Generator: Sketch 49.3 (51167) - http://www.bohemiancoding.com/sketch -->
    <title>Group 35</title>
    <desc>Created with Sketch.</desc>
    <defs>
        <rect id="path-1" x="2" y="0" width="290" height="550" rx="10"></rect>
    </defs>
    <g id="Page-1" stroke="none" stroke-width="1" fill="none" fill-rule="evenodd">
        <g id="DegreeProjectFULL_v2" transform="translate(-39640.000000, -414.000000)">
            <g id="Group-35" transform="translate(39648.000000, 424.000000)">
                <g id="Group-34">
                    <g id="Rectangle-2-Copy-4">
                        <use fill="#000656" fill-rule="evenodd" xlink:href="#path-1"></use>
                        <rect stroke="#FFFFFF" stroke-width="10" x="-3" y="-5" width="300" height="560" rx="10"></rect>
                    </g>
                    <rect id="Rectangle-Copy-8" fill="#FFFFFF" x="0" y="117" width="294" height="4"></rect>
                    <rect id="Rectangle-Copy-9" fill="#FFFFFF" x="0" y="221" width="294" height="4"></rect>
                    <rect id="Rectangle-Copy-10" fill="#FFFFFF" x="0" y="325" width="294" height="4"></rect>
                    <rect id="Rectangle-Copy-11" fill="#FFFFFF" x="0" y="429" width="294" height="4"></rect>
                    <rect id="Rectangle-Copy-27" fill="#FFFFFF" x="0" y="548" width="294" height="4"></rect>
                    <circle id="Oval-Copy-150" fill="#D0021B" cx="43" cy="41" r="11"></circle>
                    <circle id="Oval-Copy-151" fill="#D0021B" cx="43" cy="249" r="11"></circle>
                    <circle id="Oval-Copy-152" fill="#D0021B" cx="43" cy="145" r="11"></circle>
                    <circle id="Oval-Copy-153" fill="#D0021B" cx="43" cy="353" r="11"></circle>
                    <circle id="Oval-Copy-154" fill="#D0021B" cx="43" cy="457" r="11"></circle>
                    <circle id="Oval-Copy-155" fill="#D0021B" cx="43" cy="93" r="11"></circle>
                    <circle id="Oval-Copy-156" fill="#D0021B" cx="43" cy="301" r="11"></circle>
                    <circle id="Oval-Copy-157" fill="#D0021B" cx="43" cy="197" r="11"></circle>
                    <circle id="Oval-Copy-158" fill="#D0021B" cx="43" cy="405" r="11"></circle>
                    <circle id="Oval-Copy-159" fill="#D0021B" cx="43" cy="509" r="11"></circle>
                    <circle id="Oval-Copy-160" fill="#FFFFFF" cx="199" cy="41" r="11"></circle>
                    <circle id="Oval-Copy-161" fill="#FFFFFF" cx="199" cy="249" r="11"></circle>
                    <circle id="Oval-Copy-162" fill="#FFFFFF" cx="199" cy="145" r="11"></circle>
                    <circle id="Oval-Copy-163" fill="#FFFFFF" cx="199" cy="353" r="11"></circle>
                    <circle id="Oval-Copy-164" fill="#FFFFFF" cx="199" cy="457" r="11"></circle>
                    <circle id="Oval-Copy-165" fill="#FFFFFF" cx="199" cy="93" r="11"></circle>
                    <circle id="Oval-Copy-166" fill="#FFFFFF" cx="199" cy="301" r="11"></circle>
                    <circle id="Oval-Copy-167" fill="#FFFFFF" cx="199" cy="197" r="11"></circle>
                    <circle id="Oval-Copy-168" fill="#FFFFFF" cx="199" cy="405" r="11"></circle>
                    <circle id="Oval-Copy-169" fill="#FFFFFF" cx="199" cy="509" r="11"></circle>
                    <circle id="Oval-Copy-170" fill="#D0021B" cx="95" cy="41" r="11"></circle>
                    <circle id="Oval-Copy-171" fill="#D0021B" cx="95" cy="249" r="11"></circle>
                    <circle id="Oval-Copy-172" fill="#D0021B" cx="95" cy="145" r="11"></circle>
                    <circle id="Oval-Copy-173" fill="#D0021B" cx="95" cy="353" r="11"></circle>
                    <circle id="Oval-Copy-174" fill="#D0021B" cx="95" cy="457" r="11"></circle>
                    <circle id="Oval-Copy-175" fill="#D0021B" cx="95" cy="93" r="11"></circle>
                    <circle id="Oval-Copy-176" fill="#D0021B" cx="95" cy="301" r="11"></circle>
                    <circle id="Oval-Copy-177" fill="#D0021B" cx="95" cy="197" r="11"></circle>
                    <circle id="Oval-Copy-178" fill="#D0021B" cx="95" cy="405" r="11"></circle>
                    <circle id="Oval-Copy-179" fill="#D0021B" cx="95" cy="509" r="11"></circle>
                    <circle id="Oval-Copy-180" fill="#FFFFFF" cx="251" cy="41" r="11"></circle>
                    <circle id="Oval-Copy-181" fill="#FFFFFF" cx="251" cy="249" r="11"></circle>
                    <circle id="Oval-Copy-182" fill="#FFFFFF" cx="251" cy="145" r="11"></circle>
                    <circle id="Oval-Copy-183" fill="#FFFFFF" cx="251" cy="353" r="11"></circle>
                    <circle id="Oval-Copy-184" fill="#FFFFFF" cx="251" cy="457" r="11"></circle>
                    <circle id="Oval-Copy-185" fill="#FFFFFF" cx="251" cy="93" r="11"></circle>
                    <circle id="Oval-Copy-186" fill="#FFFFFF" cx="251" cy="301" r="11"></circle>
                    <circle id="Oval-Copy-187" fill="#FFFFFF" cx="251" cy="197" r="11"></circle>
                    <circle id="Oval-Copy-188" fill="#FFFFFF" cx="251" cy="405" r="11"></circle>
                    <circle id="Oval-Copy-189" fill="#FFFFFF" cx="251" cy="509" r="11"></circle>
                    <circle id="Oval-Copy-190" fill="#FFFFFF" cx="147" cy="41" r="11"></circle>
                    <circle id="Oval-Copy-191" fill="#FFFFFF" cx="147" cy="249" r="11"></circle>
                    <circle id="Oval-Copy-192" fill="#FFFFFF" cx="147" cy="145" r="11"></circle>
                    <circle id="Oval-Copy-193" fill="#FFFFFF" cx="147" cy="353" r="11"></circle>
                    <circle id="Oval-Copy-194" fill="#FFFFFF" cx="147" cy="457" r="11"></circle>
                    <circle id="Oval-Copy-195" fill="#FFFFFF" cx="147" cy="93" r="11"></circle>
                    <circle id="Oval-Copy-196" fill="#FFFFFF" cx="147" cy="301" r="11"></circle>
                    <circle id="Oval-Copy-197" fill="#FFFFFF" cx="147" cy="197" r="11"></circle>
                    <circle id="Oval-Copy-198" fill="#FFFFFF" cx="147" cy="405" r="11"></circle>
                    <circle id="Oval-Copy-199" fill="#FFFFFF" cx="147" cy="509" r="11"></circle>
                </g>
            </g>
        </g>
    </g>
</svg>