<?xml version="1.0" encoding="UTF-8"?>
<svg width="310px" height="570px" viewBox="0 0 310 570" version="1.1" xmlns="http://www.w3.org/2000/svg" xmlns:xlink="http://www.w3.org/1999/xlink">
    <!-- Generator: Sketch 49.3 (51167) - http://www.bohemiancoding.com/sketch -->
    <title>Group 12</title>
    <desc>Created with Sketch.</desc>
    <defs>
        <rect id="path-1" x="0" y="0" width="290" height="550" rx="10"></rect>
    </defs>
    <g id="Page-1" stroke="none" stroke-width="1" fill="none" fill-rule="evenodd">
        <g id="DegreeProjectFULL_v2" transform="translate(-38855.000000, -415.000000)">
            <g id="Group-12" transform="translate(38865.000000, 425.000000)">
                <g id="Rectangle-2-Copy-5">
                    <use fill="#000656" fill-rule="evenodd" xlink:href="#path-1"></use>
                    <rect stroke="#FFFFFF" stroke-width="10" x="-5" y="-5" width="300" height="560" rx="10"></rect>
                </g>
                <g id="Group-31" transform="translate(30.000000, 30.000000)">
                    <circle id="Oval-Copy-150" fill="#D0021B" cx="11" cy="11" r="11"></circle>
                    <circle id="Oval-Copy-151" fill="#D0021B" cx="11" cy="219" r="11"></circle>
                    <circle id="Oval-Copy-152" fill="#D0021B" cx="11" cy="115" r="11"></circle>
                    <circle id="Oval-Copy-153" fill="#D0021B" cx="11" cy="323" r="11"></circle>
                    <circle id="Oval-Copy-154" fill="#D0021B" cx="11" cy="427" r="11"></circle>
                    <circle id="Oval-Copy-155" fill="#D0021B" cx="11" cy="63" r="11"></circle>
                    <circle id="Oval-Copy-156" fill="#D0021B" cx="11" cy="271" r="11"></circle>
                    <circle id="Oval-Copy-157" fill="#D0021B" cx="11" cy="167" r="11"></circle>
                    <circle id="Oval-Copy-158" fill="#D0021B" cx="11" cy="375" r="11"></circle>
                    <circle id="Oval-Copy-159" fill="#D0021B" cx="11" cy="479" r="11"></circle>
                    <circle id="Oval-Copy-160" fill="#FFFFFF" cx="167" cy="11" r="11"></circle>
                    <circle id="Oval-Copy-161" fill="#FFFFFF" cx="167" cy="219" r="11"></circle>
                    <circle id="Oval-Copy-162" fill="#FFFFFF" cx="167" cy="115" r="11"></circle>
                    <circle id="Oval-Copy-163" fill="#FFFFFF" cx="167" cy="323" r="11"></circle>
                    <circle id="Oval-Copy-164" fill="#FFFFFF" cx="167" cy="427" r="11"></circle>
                    <circle id="Oval-Copy-165" fill="#FFFFFF" cx="167" cy="63" r="11"></circle>
                    <circle id="Oval-Copy-166" fill="#FFFFFF" cx="167" cy="271" r="11"></circle>
                    <circle id="Oval-Copy-167" fill="#FFFFFF" cx="167" cy="167" r="11"></circle>
                    <circle id="Oval-Copy-168" fill="#FFFFFF" cx="167" cy="375" r="11"></circle>
                    <circle id="Oval-Copy-169" fill="#FFFFFF" cx="167" cy="479" r="11"></circle>
                    <circle id="Oval-Copy-170" fill="#D0021B" cx="63" cy="11" r="11"></circle>
                    <circle id="Oval-Copy-171" fill="#D0021B" cx="63" cy="219" r="11"></circle>
                    <circle id="Oval-Copy-172" fill="#D0021B" cx="63" cy="115" r="11"></circle>
                    <circle id="Oval-Copy-173" fill="#D0021B" cx="63" cy="323" r="11"></circle>
                    <circle id="Oval-Copy-174" fill="#D0021B" cx="63" cy="427" r="11"></circle>
                    <circle id="Oval-Copy-175" fill="#D0021B" cx="63" cy="63" r="11"></circle>
                    <circle id="Oval-Copy-176" fill="#D0021B" cx="63" cy="271" r="11"></circle>
                    <circle id="Oval-Copy-177" fill="#D0021B" cx="63" cy="167" r="11"></circle>
                    <circle id="Oval-Copy-178" fill="#D0021B" cx="63" cy="375" r="11"></circle>
                    <circle id="Oval-Copy-179" fill="#D0021B" cx="63" cy="479" r="11"></circle>
                    <circle id="Oval-Copy-180" fill="#FFFFFF" cx="219" cy="11" r="11"></circle>
                    <circle id="Oval-Copy-181" fill="#FFFFFF" cx="219" cy="219" r="11"></circle>
                    <circle id="Oval-Copy-182" fill="#FFFFFF" cx="219" cy="115" r="11"></circle>
                    <circle id="Oval-Copy-183" fill="#FFFFFF" cx="219" cy="323" r="11"></circle>
                    <circle id="Oval-Copy-184" fill="#FFFFFF" cx="219" cy="427" r="11"></circle>
                    <circle id="Oval-Copy-185" fill="#FFFFFF" cx="219" cy="63" r="11"></circle>
                    <circle id="Oval-Copy-186" fill="#FFFFFF" cx="219" cy="271" r="11"></circle>
                    <circle id="Oval-Copy-187" fill="#FFFFFF" cx="219" cy="167" r="11"></circle>
                    <circle id="Oval-Copy-188" fill="#FFFFFF" cx="219" cy="375" r="11"></circle>
                    <circle id="Oval-Copy-189" fill="#FFFFFF" cx="219" cy="479" r="11"></circle>
                    <circle id="Oval-Copy-190" fill="#FFFFFF" cx="115" cy="11" r="11"></circle>
                    <circle id="Oval-Copy-191" fill="#FFFFFF" cx="115" cy="219" r="11"></circle>
                    <circle id="Oval-Copy-192" fill="#FFFFFF" cx="115" cy="115" r="11"></circle>
                    <circle id="Oval-Copy-193" fill="#FFFFFF" cx="115" cy="323" r="11"></circle>
                    <circle id="Oval-Copy-194" fill="#FFFFFF" cx="115" cy="427" r="11"></circle>
                    <circle id="Oval-Copy-195" fill="#FFFFFF" cx="115" cy="63" r="11"></circle>
                    <circle id="Oval-Copy-196" fill="#FFFFFF" cx="115" cy="271" r="11"></circle>
                    <circle id="Oval-Copy-197" fill="#FFFFFF" cx="115" cy="167" r="11"></circle>
                    <circle id="Oval-Copy-198" fill="#FFFFFF" cx="115" cy="375" r="11"></circle>
                    <circle id="Oval-Copy-199" fill="#FFFFFF" cx="115" cy="479" r="11"></circle>
                </g>
            </g>
        </g>
    </g>
</svg>