<?xml version="1.0" encoding="UTF-8"?>
<svg width="310px" height="570px" viewBox="0 0 310 570" version="1.1" xmlns="http://www.w3.org/2000/svg" xmlns:xlink="http://www.w3.org/1999/xlink">
    <!-- Generator: Sketch 49.3 (51167) - http://www.bohemiancoding.com/sketch -->
    <title>Group 32</title>
    <desc>Created with Sketch.</desc>
    <defs>
        <rect id="path-1" x="2" y="3" width="290" height="550" rx="10"></rect>
    </defs>
    <g id="Page-1" stroke="none" stroke-width="1" fill="none" fill-rule="evenodd">
        <g id="Group-32" transform="translate(8.000000, 7.000000)">
            <g id="Rectangle-2-Copy-13">
                <use fill="#000656" fill-rule="evenodd" xlink:href="#path-1"></use>
                <rect stroke="#FFFFFF" stroke-width="10" x="-3" y="-2" width="300" height="560" rx="10"></rect>
            </g>
            <g id="Group-15-Copy" fill="#FFFFFF">
                <rect id="Rectangle-Copy-5" x="61.8352941" y="0.176383442" width="4" height="72" rx="2"></rect>
                <rect id="Rectangle-Copy-6" x="61.8352941" y="484" width="4" height="76" rx="2"></rect>
                <rect id="Rectangle-Copy-12" x="61.8352941" y="330.513203" width="4" height="53.2400017" rx="2"></rect>
                <rect id="Rectangle-Copy-16" x="116.8" y="224.655251" width="4" height="109.166013" rx="2"></rect>
                <rect id="Rectangle-Copy-17" x="61.8352941" y="68.8683224" width="168.329412" height="3.85185185" rx="1.92592593"></rect>
                <rect id="Rectangle-Copy-18" x="61.8352941" y="483.300131" width="168.329412" height="3.85185185" rx="1.92592593"></rect>
                <rect id="Rectangle-Copy-19" x="61.8352941" y="380.442179" width="168.329412" height="3.85185185" rx="1.92592593"></rect>
                <rect id="Rectangle-Copy-24" x="0" y="330.513203" width="65.2705882" height="3.85185185" rx="1.92592593"></rect>
                <rect id="Rectangle-Copy-25" x="0" y="224.555556" width="65.2705882" height="3.85185185" rx="1.92592593"></rect>
                <rect id="Rectangle-Copy-26" x="119" y="277.518519" width="176" height="3.85185185" rx="1.92592593"></rect>
                <rect id="Rectangle-Copy-22" x="61.8352941" y="171.726275" width="168.329412" height="3.85185185" rx="1.92592593"></rect>
                <rect id="Rectangle-Copy-20" x="116.8" y="330.513203" width="113.364706" height="3.85185185" rx="1.92592593"></rect>
                <rect id="Rectangle-Copy-21" x="116.8" y="224.655251" width="113.360001" height="3.85185185" rx="1.92592593"></rect>
                <rect id="Rectangle-Copy-14" x="226.729412" y="330.513203" width="4" height="156.63878" rx="2"></rect>
                <rect id="Rectangle-Copy-13" x="61.8352941" y="171.726275" width="4" height="56.237037" rx="2"></rect>
                <rect id="Rectangle-Copy-15" x="226.729412" y="68.8701172" width="4" height="159.089996" rx="2"></rect>
            </g>
            <circle id="Oval-Copy-150" fill="#D0021B" cx="43" cy="44" r="11"></circle>
            <circle id="Oval-Copy-151" fill="#D0021B" cx="43" cy="252" r="11"></circle>
            <circle id="Oval-Copy-152" fill="#D0021B" cx="43" cy="148" r="11"></circle>
            <circle id="Oval-Copy-153" fill="#D0021B" cx="43" cy="356" r="11"></circle>
            <circle id="Oval-Copy-154" fill="#D0021B" cx="43" cy="460" r="11"></circle>
            <circle id="Oval-Copy-155" fill="#D0021B" cx="43" cy="96" r="11"></circle>
            <circle id="Oval-Copy-156" fill="#D0021B" cx="43" cy="304" r="11"></circle>
            <circle id="Oval-Copy-157" fill="#D0021B" cx="43" cy="200" r="11"></circle>
            <circle id="Oval-Copy-158" fill="#D0021B" cx="43" cy="408" r="11"></circle>
            <circle id="Oval-Copy-159" fill="#D0021B" cx="43" cy="512" r="11"></circle>
            <circle id="Oval-Copy-160" fill="#FFFFFF" cx="199" cy="44" r="11"></circle>
            <circle id="Oval-Copy-161" fill="#FFFFFF" cx="199" cy="252" r="11"></circle>
            <circle id="Oval-Copy-162" fill="#FFFFFF" cx="199" cy="148" r="11"></circle>
            <circle id="Oval-Copy-163" fill="#FFFFFF" cx="199" cy="356" r="11"></circle>
            <circle id="Oval-Copy-164" fill="#FFFFFF" cx="199" cy="460" r="11"></circle>
            <circle id="Oval-Copy-165" fill="#FFFFFF" cx="199" cy="96" r="11"></circle>
            <circle id="Oval-Copy-166" fill="#FFFFFF" cx="199" cy="304" r="11"></circle>
            <circle id="Oval-Copy-167" fill="#FFFFFF" cx="199" cy="200" r="11"></circle>
            <circle id="Oval-Copy-168" fill="#FFFFFF" cx="199" cy="408" r="11"></circle>
            <circle id="Oval-Copy-169" fill="#FFFFFF" cx="199" cy="512" r="11"></circle>
            <circle id="Oval-Copy-170" fill="#D0021B" cx="95" cy="44" r="11"></circle>
            <circle id="Oval-Copy-171" fill="#D0021B" cx="95" cy="252" r="11"></circle>
            <circle id="Oval-Copy-172" fill="#D0021B" cx="95" cy="148" r="11"></circle>
            <circle id="Oval-Copy-173" fill="#D0021B" cx="95" cy="356" r="11"></circle>
            <circle id="Oval-Copy-174" fill="#D0021B" cx="95" cy="460" r="11"></circle>
            <circle id="Oval-Copy-175" fill="#D0021B" cx="95" cy="96" r="11"></circle>
            <circle id="Oval-Copy-176" fill="#D0021B" cx="95" cy="304" r="11"></circle>
            <circle id="Oval-Copy-177" fill="#D0021B" cx="95" cy="200" r="11"></circle>
            <circle id="Oval-Copy-178" fill="#D0021B" cx="95" cy="408" r="11"></circle>
            <circle id="Oval-Copy-179" fill="#D0021B" cx="95" cy="512" r="11"></circle>
            <circle id="Oval-Copy-180" fill="#FFFFFF" cx="251" cy="44" r="11"></circle>
            <circle id="Oval-Copy-181" fill="#FFFFFF" cx="251" cy="252" r="11"></circle>
            <circle id="Oval-Copy-182" fill="#FFFFFF" cx="251" cy="148" r="11"></circle>
            <circle id="Oval-Copy-183" fill="#FFFFFF" cx="251" cy="356" r="11"></circle>
            <circle id="Oval-Copy-184" fill="#FFFFFF" cx="251" cy="460" r="11"></circle>
            <circle id="Oval-Copy-185" fill="#FFFFFF" cx="251" cy="96" r="11"></circle>
            <circle id="Oval-Copy-186" fill="#FFFFFF" cx="251" cy="304" r="11"></circle>
            <circle id="Oval-Copy-187" fill="#FFFFFF" cx="251" cy="200" r="11"></circle>
            <circle id="Oval-Copy-188" fill="#FFFFFF" cx="251" cy="408" r="11"></circle>
            <circle id="Oval-Copy-189" fill="#FFFFFF" cx="251" cy="512" r="11"></circle>
            <circle id="Oval-Copy-190" fill="#FFFFFF" cx="147" cy="44" r="11"></circle>
            <circle id="Oval-Copy-191" fill="#FFFFFF" cx="147" cy="252" r="11"></circle>
            <circle id="Oval-Copy-192" fill="#FFFFFF" cx="147" cy="148" r="11"></circle>
            <circle id="Oval-Copy-193" fill="#FFFFFF" cx="147" cy="356" r="11"></circle>
            <circle id="Oval-Copy-194" fill="#FFFFFF" cx="147" cy="460" r="11"></circle>
            <circle id="Oval-Copy-195" fill="#FFFFFF" cx="147" cy="96" r="11"></circle>
            <circle id="Oval-Copy-196" fill="#FFFFFF" cx="147" cy="304" r="11"></circle>
            <circle id="Oval-Copy-197" fill="#FFFFFF" cx="147" cy="200" r="11"></circle>
            <circle id="Oval-Copy-198" fill="#FFFFFF" cx="147" cy="408" r="11"></circle>
            <circle id="Oval-Copy-199" fill="#FFFFFF" cx="147" cy="512" r="11"></circle>
        </g>
    </g>
</svg>