<?xml version="1.0" encoding="UTF-8"?>
<svg width="435px" height="835px" viewBox="0 0 435 835" version="1.1" xmlns="http://www.w3.org/2000/svg" xmlns:xlink="http://www.w3.org/1999/xlink">
    <!-- Generator: Sketch 47.1 (45422) - http://www.bohemiancoding.com/sketch -->
    <title>Group 15</title>
    <desc>Created with Sketch.</desc>
    <defs>
        <rect id="path-1" x="5" y="7" width="415" height="815" rx="10"></rect>
    </defs>
    <g id="Page-1" stroke="none" stroke-width="1" fill="none" fill-rule="evenodd">
        <g id="DegreeProject_AD_V5" transform="translate(-37575.000000, -222.000000)">
            <g id="Group-15" transform="translate(37580.000000, 225.000000)">
                <g id="Rectangle-2-Copy-6">
                    <use fill="#000656" fill-rule="evenodd" xlink:href="#path-1"></use>
                    <rect stroke="#FFFFFF" stroke-width="10" x="0" y="2" width="425" height="825" rx="10"></rect>
                </g>
                <circle id="Oval-Copy-200" fill="#D0021B" cx="52.5" cy="54.5" r="27.5"></circle>
                <circle id="Oval-Copy-201" fill="#D0021B" cx="52.5" cy="374.5" r="27.5"></circle>
                <circle id="Oval-Copy-202" fill="#D0021B" cx="52.5" cy="214.5" r="27.5"></circle>
                <circle id="Oval-Copy-203" fill="#D0021B" cx="52.5" cy="534.5" r="27.5"></circle>
                <circle id="Oval-Copy-204" fill="#D0021B" cx="52.5" cy="694.5" r="27.5"></circle>
                <circle id="Oval-Copy-205" fill="#D0021B" cx="52.5" cy="134.5" r="27.5"></circle>
                <circle id="Oval-Copy-206" fill="#D0021B" cx="52.5" cy="454.5" r="27.5"></circle>
                <circle id="Oval-Copy-207" fill="#D0021B" cx="52.5" cy="294.5" r="27.5"></circle>
                <circle id="Oval-Copy-208" fill="#D0021B" cx="52.5" cy="614.5" r="27.5"></circle>
                <circle id="Oval-Copy-209" fill="#D0021B" cx="52.5" cy="774.5" r="27.5"></circle>
                <circle id="Oval-Copy-210" fill="#FFFFFF" cx="292.5" cy="54.5" r="27.5"></circle>
                <circle id="Oval-Copy-211" fill="#FFFFFF" cx="292.5" cy="374.5" r="27.5"></circle>
                <circle id="Oval-Copy-212" fill="#FFFFFF" cx="292.5" cy="214.5" r="27.5"></circle>
                <circle id="Oval-Copy-213" fill="#FFFFFF" cx="292.5" cy="534.5" r="27.5"></circle>
                <circle id="Oval-Copy-214" fill="#FFFFFF" cx="292.5" cy="694.5" r="27.5"></circle>
                <circle id="Oval-Copy-215" fill="#FFFFFF" cx="292.5" cy="134.5" r="27.5"></circle>
                <circle id="Oval-Copy-216" fill="#FFFFFF" cx="292.5" cy="454.5" r="27.5"></circle>
                <circle id="Oval-Copy-217" fill="#FFFFFF" cx="292.5" cy="294.5" r="27.5"></circle>
                <circle id="Oval-Copy-218" fill="#FFFFFF" cx="292.5" cy="614.5" r="27.5"></circle>
                <circle id="Oval-Copy-219" fill="#FFFFFF" cx="292.5" cy="774.5" r="27.5"></circle>
                <circle id="Oval-Copy-220" fill="#D0021B" cx="132.5" cy="54.5" r="27.5"></circle>
                <circle id="Oval-Copy-221" fill="#D0021B" cx="132.5" cy="374.5" r="27.5"></circle>
                <circle id="Oval-Copy-222" fill="#D0021B" cx="132.5" cy="214.5" r="27.5"></circle>
                <circle id="Oval-Copy-223" fill="#D0021B" cx="132.5" cy="534.5" r="27.5"></circle>
                <circle id="Oval-Copy-224" fill="#D0021B" cx="132.5" cy="694.5" r="27.5"></circle>
                <circle id="Oval-Copy-225" fill="#D0021B" cx="132.5" cy="134.5" r="27.5"></circle>
                <circle id="Oval-Copy-226" fill="#D0021B" cx="132.5" cy="454.5" r="27.5"></circle>
                <circle id="Oval-Copy-227" fill="#D0021B" cx="132.5" cy="294.5" r="27.5"></circle>
                <circle id="Oval-Copy-228" fill="#D0021B" cx="132.5" cy="614.5" r="27.5"></circle>
                <circle id="Oval-Copy-229" fill="#D0021B" cx="132.5" cy="774.5" r="27.5"></circle>
                <circle id="Oval-Copy-230" fill="#FFFFFF" cx="372.5" cy="54.5" r="27.5"></circle>
                <circle id="Oval-Copy-231" fill="#FFFFFF" cx="372.5" cy="374.5" r="27.5"></circle>
                <circle id="Oval-Copy-232" fill="#FFFFFF" cx="372.5" cy="214.5" r="27.5"></circle>
                <circle id="Oval-Copy-233" fill="#FFFFFF" cx="372.5" cy="534.5" r="27.5"></circle>
                <circle id="Oval-Copy-234" fill="#FFFFFF" cx="372.5" cy="694.5" r="27.5"></circle>
                <circle id="Oval-Copy-235" fill="#FFFFFF" cx="372.5" cy="134.5" r="27.5"></circle>
                <circle id="Oval-Copy-236" fill="#FFFFFF" cx="372.5" cy="454.5" r="27.5"></circle>
                <circle id="Oval-Copy-237" fill="#FFFFFF" cx="372.5" cy="294.5" r="27.5"></circle>
                <circle id="Oval-Copy-238" fill="#FFFFFF" cx="372.5" cy="614.5" r="27.5"></circle>
                <circle id="Oval-Copy-239" fill="#FFFFFF" cx="372.5" cy="774.5" r="27.5"></circle>
                <circle id="Oval-Copy-240" fill="#FFFFFF" cx="212.5" cy="54.5" r="27.5"></circle>
                <circle id="Oval-Copy-241" fill="#FFFFFF" cx="212.5" cy="374.5" r="27.5"></circle>
                <circle id="Oval-Copy-242" fill="#FFFFFF" cx="212.5" cy="214.5" r="27.5"></circle>
                <circle id="Oval-Copy-243" fill="#FFFFFF" cx="212.5" cy="534.5" r="27.5"></circle>
                <circle id="Oval-Copy-244" fill="#FFFFFF" cx="212.5" cy="694.5" r="27.5"></circle>
                <circle id="Oval-Copy-245" fill="#FFFFFF" cx="212.5" cy="134.5" r="27.5"></circle>
                <circle id="Oval-Copy-246" fill="#FFFFFF" cx="212.5" cy="454.5" r="27.5"></circle>
                <circle id="Oval-Copy-247" fill="#FFFFFF" cx="212.5" cy="294.5" r="27.5"></circle>
                <circle id="Oval-Copy-248" fill="#FFFFFF" cx="212.5" cy="614.5" r="27.5"></circle>
                <circle id="Oval-Copy-249" fill="#FFFFFF" cx="212.5" cy="774.5" r="27.5"></circle>
                <rect id="Rectangle-Copy-5" fill="#FFFFFF" x="90" y="0" width="5" height="97" rx="2.5"></rect>
                <rect id="Rectangle-Copy-6" fill="#FFFFFF" x="90" y="732" width="5" height="93" rx="2.5"></rect>
                <rect id="Rectangle-Copy-12" fill="#FFFFFF" x="90" y="492" width="5" height="85" rx="2.5"></rect>
                <rect id="Rectangle-Copy-16" fill="#FFFFFF" x="170" y="332" width="5" height="165" rx="2.5"></rect>
                <rect id="Rectangle-Copy-17" fill="#FFFFFF" x="90" y="92" width="245" height="5" rx="2.5"></rect>
                <rect id="Rectangle-Copy-18" fill="#FFFFFF" x="90" y="732" width="245" height="5" rx="2.5"></rect>
                <rect id="Rectangle-Copy-19" fill="#FFFFFF" x="90" y="572" width="245" height="5" rx="2.5"></rect>
                <rect id="Rectangle-Copy-24" fill="#FFFFFF" x="0" y="492" width="95" height="5" rx="2.5"></rect>
                <rect id="Rectangle-Copy-25" fill="#FFFFFF" x="0" y="332" width="95" height="5" rx="2.5"></rect>
                <rect id="Rectangle-Copy-22" fill="#FFFFFF" x="90" y="252" width="245" height="5" rx="2.5"></rect>
                <rect id="Rectangle-Copy-20" fill="#FFFFFF" x="170" y="492" width="165" height="5" rx="2.5"></rect>
                <rect id="Rectangle-Copy-21" fill="#FFFFFF" x="170" y="332" width="165" height="5" rx="2.5"></rect>
                <rect id="Rectangle-Copy-23" fill="#FFFFFF" x="170" y="412" width="255" height="5" rx="2.5"></rect>
                <rect id="Rectangle-Copy-14" fill="#FFFFFF" x="330" y="492" width="5" height="245" rx="2.5"></rect>
                <rect id="Rectangle-Copy-13" fill="#FFFFFF" x="90" y="252" width="5" height="85" rx="2.5"></rect>
                <rect id="Rectangle-Copy-15" fill="#FFFFFF" x="330" y="92" width="5" height="245" rx="2.5"></rect>
            </g>
        </g>
    </g>
</svg>