<?xml version="1.0" encoding="UTF-8"?>
<svg width="435px" height="835px" viewBox="0 0 435 835" version="1.1" xmlns="http://www.w3.org/2000/svg" xmlns:xlink="http://www.w3.org/1999/xlink">
    <!-- Generator: Sketch 47.1 (45422) - http://www.bohemiancoding.com/sketch -->
    <title>Group 14</title>
    <desc>Created with Sketch.</desc>
    <defs>
        <rect id="path-1" x="0" y="7" width="415" height="815" rx="10"></rect>
    </defs>
    <g id="Page-1" stroke="none" stroke-width="1" fill="none" fill-rule="evenodd">
        <g id="DegreeProject_AD_V5" transform="translate(-36960.000000, -222.000000)">
            <g id="Group-14" transform="translate(36970.000000, 225.000000)">
                <g id="Rectangle-2-Copy-3">
                    <use fill="#000656" fill-rule="evenodd" xlink:href="#path-1"></use>
                    <rect stroke="#FFFFFF" stroke-width="10" x="-5" y="2" width="425" height="825" rx="10"></rect>
                </g>
                <circle id="Oval-Copy-50" fill="#D0021B" cx="47.5" cy="54.5" r="27.5"></circle>
                <circle id="Oval-Copy-51" fill="#D0021B" cx="47.5" cy="374.5" r="27.5"></circle>
                <circle id="Oval-Copy-52" fill="#D0021B" cx="47.5" cy="214.5" r="27.5"></circle>
                <circle id="Oval-Copy-53" fill="#D0021B" cx="47.5" cy="534.5" r="27.5"></circle>
                <circle id="Oval-Copy-54" fill="#D0021B" cx="47.5" cy="694.5" r="27.5"></circle>
                <circle id="Oval-Copy-55" fill="#D0021B" cx="47.5" cy="134.5" r="27.5"></circle>
                <circle id="Oval-Copy-56" fill="#D0021B" cx="47.5" cy="454.5" r="27.5"></circle>
                <circle id="Oval-Copy-57" fill="#D0021B" cx="47.5" cy="294.5" r="27.5"></circle>
                <circle id="Oval-Copy-58" fill="#D0021B" cx="47.5" cy="614.5" r="27.5"></circle>
                <circle id="Oval-Copy-59" fill="#D0021B" cx="47.5" cy="774.5" r="27.5"></circle>
                <circle id="Oval-Copy-60" fill="#FFFFFF" cx="287.5" cy="54.5" r="27.5"></circle>
                <circle id="Oval-Copy-61" fill="#FFFFFF" cx="287.5" cy="374.5" r="27.5"></circle>
                <circle id="Oval-Copy-62" fill="#FFFFFF" cx="287.5" cy="214.5" r="27.5"></circle>
                <circle id="Oval-Copy-63" fill="#FFFFFF" cx="287.5" cy="534.5" r="27.5"></circle>
                <circle id="Oval-Copy-64" fill="#FFFFFF" cx="287.5" cy="694.5" r="27.5"></circle>
                <circle id="Oval-Copy-65" fill="#FFFFFF" cx="287.5" cy="134.5" r="27.5"></circle>
                <circle id="Oval-Copy-66" fill="#FFFFFF" cx="287.5" cy="454.5" r="27.5"></circle>
                <circle id="Oval-Copy-67" fill="#FFFFFF" cx="287.5" cy="294.5" r="27.5"></circle>
                <circle id="Oval-Copy-68" fill="#FFFFFF" cx="287.5" cy="614.5" r="27.5"></circle>
                <circle id="Oval-Copy-69" fill="#FFFFFF" cx="287.5" cy="774.5" r="27.5"></circle>
                <circle id="Oval-Copy-70" fill="#D0021B" cx="127.5" cy="54.5" r="27.5"></circle>
                <circle id="Oval-Copy-71" fill="#D0021B" cx="127.5" cy="374.5" r="27.5"></circle>
                <circle id="Oval-Copy-72" fill="#D0021B" cx="127.5" cy="214.5" r="27.5"></circle>
                <circle id="Oval-Copy-73" fill="#D0021B" cx="127.5" cy="534.5" r="27.5"></circle>
                <circle id="Oval-Copy-74" fill="#D0021B" cx="127.5" cy="694.5" r="27.5"></circle>
                <circle id="Oval-Copy-75" fill="#D0021B" cx="127.5" cy="134.5" r="27.5"></circle>
                <circle id="Oval-Copy-76" fill="#D0021B" cx="127.5" cy="454.5" r="27.5"></circle>
                <circle id="Oval-Copy-77" fill="#D0021B" cx="127.5" cy="294.5" r="27.5"></circle>
                <circle id="Oval-Copy-78" fill="#D0021B" cx="127.5" cy="614.5" r="27.5"></circle>
                <circle id="Oval-Copy-79" fill="#D0021B" cx="127.5" cy="774.5" r="27.5"></circle>
                <circle id="Oval-Copy-80" fill="#FFFFFF" cx="367.5" cy="54.5" r="27.5"></circle>
                <circle id="Oval-Copy-81" fill="#FFFFFF" cx="367.5" cy="374.5" r="27.5"></circle>
                <circle id="Oval-Copy-82" fill="#FFFFFF" cx="367.5" cy="214.5" r="27.5"></circle>
                <circle id="Oval-Copy-83" fill="#FFFFFF" cx="367.5" cy="534.5" r="27.5"></circle>
                <circle id="Oval-Copy-84" fill="#FFFFFF" cx="367.5" cy="694.5" r="27.5"></circle>
                <circle id="Oval-Copy-85" fill="#FFFFFF" cx="367.5" cy="134.5" r="27.5"></circle>
                <circle id="Oval-Copy-86" fill="#FFFFFF" cx="367.5" cy="454.5" r="27.5"></circle>
                <circle id="Oval-Copy-87" fill="#FFFFFF" cx="367.5" cy="294.5" r="27.5"></circle>
                <circle id="Oval-Copy-88" fill="#FFFFFF" cx="367.5" cy="614.5" r="27.5"></circle>
                <circle id="Oval-Copy-89" fill="#FFFFFF" cx="367.5" cy="774.5" r="27.5"></circle>
                <circle id="Oval-Copy-90" fill="#FFFFFF" cx="207.5" cy="54.5" r="27.5"></circle>
                <circle id="Oval-Copy-91" fill="#FFFFFF" cx="207.5" cy="374.5" r="27.5"></circle>
                <circle id="Oval-Copy-92" fill="#FFFFFF" cx="207.5" cy="214.5" r="27.5"></circle>
                <circle id="Oval-Copy-93" fill="#FFFFFF" cx="207.5" cy="534.5" r="27.5"></circle>
                <circle id="Oval-Copy-94" fill="#FFFFFF" cx="207.5" cy="694.5" r="27.5"></circle>
                <circle id="Oval-Copy-95" fill="#FFFFFF" cx="207.5" cy="134.5" r="27.5"></circle>
                <circle id="Oval-Copy-96" fill="#FFFFFF" cx="207.5" cy="454.5" r="27.5"></circle>
                <circle id="Oval-Copy-97" fill="#FFFFFF" cx="207.5" cy="294.5" r="27.5"></circle>
                <circle id="Oval-Copy-98" fill="#FFFFFF" cx="207.5" cy="614.5" r="27.5"></circle>
                <circle id="Oval-Copy-99" fill="#FFFFFF" cx="207.5" cy="774.5" r="27.5"></circle>
                <rect id="Rectangle-Copy" fill="#FFFFFF" x="85" y="0" width="5" height="825"></rect>
                <rect id="Rectangle-Copy-2" fill="#FFFFFF" x="165" y="0" width="5" height="825"></rect>
                <rect id="Rectangle-Copy-3" fill="#FFFFFF" x="245" y="0" width="5" height="825"></rect>
                <rect id="Rectangle-Copy-4" fill="#FFFFFF" x="325" y="0" width="5" height="825"></rect>
            </g>
        </g>
    </g>
</svg>