<?xml version="1.0" encoding="UTF-8"?>
<svg width="435px" height="835px" viewBox="0 0 435 835" version="1.1" xmlns="http://www.w3.org/2000/svg" xmlns:xlink="http://www.w3.org/1999/xlink">
    <!-- Generator: Sketch 47.1 (45422) - http://www.bohemiancoding.com/sketch -->
    <title>Group 12</title>
    <desc>Created with Sketch.</desc>
    <defs>
        <rect id="path-1" x="0" y="0" width="415" height="815" rx="10"></rect>
    </defs>
    <g id="Page-1" stroke="none" stroke-width="1" fill="none" fill-rule="evenodd">
        <g id="DegreeProject_AD_V5" transform="translate(-35525.000000, -220.000000)">
            <g id="Group-12" transform="translate(35535.000000, 230.000000)">
                <g id="Rectangle-2-Copy-5">
                    <use fill="#000656" fill-rule="evenodd" xlink:href="#path-1"></use>
                    <rect stroke="#FFFFFF" stroke-width="10" x="-5" y="-5" width="425" height="825" rx="10"></rect>
                </g>
                <circle id="Oval-Copy-150" fill="#D0021B" cx="47.5" cy="47.5" r="27.5"></circle>
                <circle id="Oval-Copy-151" fill="#D0021B" cx="47.5" cy="367.5" r="27.5"></circle>
                <circle id="Oval-Copy-152" fill="#D0021B" cx="47.5" cy="207.5" r="27.5"></circle>
                <circle id="Oval-Copy-153" fill="#D0021B" cx="47.5" cy="527.5" r="27.5"></circle>
                <circle id="Oval-Copy-154" fill="#D0021B" cx="47.5" cy="687.5" r="27.5"></circle>
                <circle id="Oval-Copy-155" fill="#D0021B" cx="47.5" cy="127.5" r="27.5"></circle>
                <circle id="Oval-Copy-156" fill="#D0021B" cx="47.5" cy="447.5" r="27.5"></circle>
                <circle id="Oval-Copy-157" fill="#D0021B" cx="47.5" cy="287.5" r="27.5"></circle>
                <circle id="Oval-Copy-158" fill="#D0021B" cx="47.5" cy="607.5" r="27.5"></circle>
                <circle id="Oval-Copy-159" fill="#D0021B" cx="47.5" cy="767.5" r="27.5"></circle>
                <circle id="Oval-Copy-160" fill="#FFFFFF" cx="287.5" cy="47.5" r="27.5"></circle>
                <circle id="Oval-Copy-161" fill="#FFFFFF" cx="287.5" cy="367.5" r="27.5"></circle>
                <circle id="Oval-Copy-162" fill="#FFFFFF" cx="287.5" cy="207.5" r="27.5"></circle>
                <circle id="Oval-Copy-163" fill="#FFFFFF" cx="287.5" cy="527.5" r="27.5"></circle>
                <circle id="Oval-Copy-164" fill="#FFFFFF" cx="287.5" cy="687.5" r="27.5"></circle>
                <circle id="Oval-Copy-165" fill="#FFFFFF" cx="287.5" cy="127.5" r="27.5"></circle>
                <circle id="Oval-Copy-166" fill="#FFFFFF" cx="287.5" cy="447.5" r="27.5"></circle>
                <circle id="Oval-Copy-167" fill="#FFFFFF" cx="287.5" cy="287.5" r="27.5"></circle>
                <circle id="Oval-Copy-168" fill="#FFFFFF" cx="287.5" cy="607.5" r="27.5"></circle>
                <circle id="Oval-Copy-169" fill="#FFFFFF" cx="287.5" cy="767.5" r="27.5"></circle>
                <circle id="Oval-Copy-170" fill="#D0021B" cx="127.5" cy="47.5" r="27.5"></circle>
                <circle id="Oval-Copy-171" fill="#D0021B" cx="127.5" cy="367.5" r="27.5"></circle>
                <circle id="Oval-Copy-172" fill="#D0021B" cx="127.5" cy="207.5" r="27.5"></circle>
                <circle id="Oval-Copy-173" fill="#D0021B" cx="127.5" cy="527.5" r="27.5"></circle>
                <circle id="Oval-Copy-174" fill="#D0021B" cx="127.5" cy="687.5" r="27.5"></circle>
                <circle id="Oval-Copy-175" fill="#D0021B" cx="127.5" cy="127.5" r="27.5"></circle>
                <circle id="Oval-Copy-176" fill="#D0021B" cx="127.5" cy="447.5" r="27.5"></circle>
                <circle id="Oval-Copy-177" fill="#D0021B" cx="127.5" cy="287.5" r="27.5"></circle>
                <circle id="Oval-Copy-178" fill="#D0021B" cx="127.5" cy="607.5" r="27.5"></circle>
                <circle id="Oval-Copy-179" fill="#D0021B" cx="127.5" cy="767.5" r="27.5"></circle>
                <circle id="Oval-Copy-180" fill="#FFFFFF" cx="367.5" cy="47.5" r="27.5"></circle>
                <circle id="Oval-Copy-181" fill="#FFFFFF" cx="367.5" cy="367.5" r="27.5"></circle>
                <circle id="Oval-Copy-182" fill="#FFFFFF" cx="367.5" cy="207.5" r="27.5"></circle>
                <circle id="Oval-Copy-183" fill="#FFFFFF" cx="367.5" cy="527.5" r="27.5"></circle>
                <circle id="Oval-Copy-184" fill="#FFFFFF" cx="367.5" cy="687.5" r="27.5"></circle>
                <circle id="Oval-Copy-185" fill="#FFFFFF" cx="367.5" cy="127.5" r="27.5"></circle>
                <circle id="Oval-Copy-186" fill="#FFFFFF" cx="367.5" cy="447.5" r="27.5"></circle>
                <circle id="Oval-Copy-187" fill="#FFFFFF" cx="367.5" cy="287.5" r="27.5"></circle>
                <circle id="Oval-Copy-188" fill="#FFFFFF" cx="367.5" cy="607.5" r="27.5"></circle>
                <circle id="Oval-Copy-189" fill="#FFFFFF" cx="367.5" cy="767.5" r="27.5"></circle>
                <circle id="Oval-Copy-190" fill="#FFFFFF" cx="207.5" cy="47.5" r="27.5"></circle>
                <circle id="Oval-Copy-191" fill="#FFFFFF" cx="207.5" cy="367.5" r="27.5"></circle>
                <circle id="Oval-Copy-192" fill="#FFFFFF" cx="207.5" cy="207.5" r="27.5"></circle>
                <circle id="Oval-Copy-193" fill="#FFFFFF" cx="207.5" cy="527.5" r="27.5"></circle>
                <circle id="Oval-Copy-194" fill="#FFFFFF" cx="207.5" cy="687.5" r="27.5"></circle>
                <circle id="Oval-Copy-195" fill="#FFFFFF" cx="207.5" cy="127.5" r="27.5"></circle>
                <circle id="Oval-Copy-196" fill="#FFFFFF" cx="207.5" cy="447.5" r="27.5"></circle>
                <circle id="Oval-Copy-197" fill="#FFFFFF" cx="207.5" cy="287.5" r="27.5"></circle>
                <circle id="Oval-Copy-198" fill="#FFFFFF" cx="207.5" cy="607.5" r="27.5"></circle>
                <circle id="Oval-Copy-199" fill="#FFFFFF" cx="207.5" cy="767.5" r="27.5"></circle>
            </g>
        </g>
    </g>
</svg>