<?xml version="1.0" encoding="UTF-8"?>
<svg width="74px" height="66px" viewBox="0 0 74 66" version="1.1" xmlns="http://www.w3.org/2000/svg" xmlns:xlink="http://www.w3.org/1999/xlink">
    <!-- Generator: Sketch 49.1 (51147) - http://www.bohemiancoding.com/sketch -->
    <title>“</title>
    <desc>Created with Sketch.</desc>
    <defs></defs>
    <g id="Page-1" stroke="none" stroke-width="1" fill="none" fill-rule="evenodd" opacity="0.2">
        <g id="DegreeProjectFULL" transform="translate(-10558.000000, -585.000000)" fill="#4A4A4A">
            <path d="M10611.934,618.234 C10611.934,620.602012 10613.34,621.859999 10616.152,622.008 L10620.592,622.23 C10623.552,622.378001 10626.179,623.783987 10628.473,626.448 C10630.767,629.112013 10631.914,632.145983 10631.914,635.55 C10631.914,639.694021 10630.434,643.171986 10627.474,645.984 C10624.514,648.796014 10620.814,650.202 10616.374,650.202 C10611.194,650.202 10606.939,648.16702 10603.609,644.097 C10600.279,640.02698 10598.614,634.810032 10598.614,628.446 C10598.614,616.605941 10603.276,604.470062 10612.6,592.038 C10616.004,587.449977 10618.964,585.156 10621.48,585.156 C10624.292,585.156 10625.698,586.635985 10625.698,589.596 C10625.698,590.780006 10624.884,592.40799 10623.256,594.48 C10619.26,599.512025 10615.93,605.505965 10613.266,612.462 C10612.378,614.830012 10611.934,616.753993 10611.934,618.234 Z M10571.53,618.234 C10571.53,620.602012 10572.936,621.859999 10575.748,622.008 L10580.188,622.23 C10583.296,622.378001 10585.997,623.783987 10588.291,626.448 C10590.585,629.112013 10591.732,632.145983 10591.732,635.55 C10591.732,639.694021 10590.252,643.171986 10587.292,645.984 C10584.332,648.796014 10580.632,650.202 10576.192,650.202 C10571.012,650.202 10566.757,648.16702 10563.427,644.097 C10560.097,640.02698 10558.432,634.810032 10558.432,628.446 C10558.432,616.605941 10563.094,604.470062 10572.418,592.038 C10575.822,587.449977 10578.782,585.156 10581.298,585.156 C10584.11,585.156 10585.516,586.635985 10585.516,589.596 C10585.516,590.780006 10584.702,592.40799 10583.074,594.48 C10580.114,598.180018 10577.45,602.471976 10575.082,607.356 C10572.714,612.240024 10571.53,615.865988 10571.53,618.234 Z" id="“"></path>
        </g>
    </g>
</svg>