<?xml version="1.0" encoding="UTF-8"?>
<svg width="149px" height="150px" viewBox="0 0 149 150" version="1.1" xmlns="http://www.w3.org/2000/svg" xmlns:xlink="http://www.w3.org/1999/xlink">
    <!-- Generator: Sketch 47.1 (45422) - http://www.bohemiancoding.com/sketch -->
    <title>Page 1</title>
    <desc>Created with Sketch.</desc>
    <defs></defs>
    <g id="Page-1" stroke="none" stroke-width="1" fill="none" fill-rule="evenodd" opacity="0.2">
        <g id="DegreeProject_AD_V5" transform="translate(-24407.000000, -557.000000)" fill="#4A4A4A">
            <g id="Page-1" transform="translate(24481.000000, 632.000000) scale(-1, 1) translate(-24481.000000, -632.000000) translate(24406.000000, 557.000000)">
                <path d="M130.691566,108.38494 C125.883976,103.17506 121.726084,101.826687 121.203614,97.5415663 C116.487831,96.8991506 116.756205,91.8092169 110.360241,89.4090361 C109.950795,80.2881325 104.352651,81.7001205 99.7498193,82.4837349 C100.314578,82.279012 100.667548,81.8483855 100.872271,81.2765602 C96.0576325,81.445988 99.1074036,85.6887289 94.0951627,86.0205361 C93.3609759,84.4956867 91.5538373,84.0437892 90.7066084,82.6319819 C91.6384518,79.6740904 95.6976325,73.6522229 98.1614277,68.4000542 C99.5027349,65.5126446 97.4484217,60.3945723 99.5168494,58.2343916 C99.622753,59.0321205 99.4038976,60.1545723 100.19456,60.2675241 C104.437392,28.6970422 85.3201627,4.68800602 55.4656446,0.62896988 L48.0108253,0.62896988 C23.4795,3.04324699 2.84456205,20.9187289 0.57106988,48.0687289 L0.57106988,50.7795723 C1.50291325,65.8939699 7.75769277,75.6705361 14.802994,84.6651145 C25.1945602,93.0165 40.8668494,101.212464 58.8541988,98.2193313 C68.2503434,96.6521205 75.2674518,91.6681265 82.5740783,88.0536687 C85.9908253,89.1549578 87.4521506,92.211741 89.3511867,94.8307771 C79.2773313,100.012464 85.6449217,107.015476 91.3843193,112.451259 C100.766367,121.346259 115.69697,137.79403 124.592151,145.65909 C126.964139,147.755837 128.347753,148.814693 131.369259,149.047645 C133.797813,144.007102 149.215645,136.545235 148.989741,130.071741 C148.834428,125.680717 140.490163,121.042645 136.790946,117.195235 C134.546024,114.858434 133.077651,110.968735 130.691566,108.38494 Z M19.546988,79.9210843 C16.1020482,73.7793976 14.1959639,69.6777108 11.4144578,63.6560241 C10.9202892,60.6910843 12.7628133,64.1996024 12.7698795,62.3006024 C10.8708434,62.0041084 11.1603253,57.7048193 9.3813253,55.523494 C10.1790542,54.5210422 9.96726506,52.4949398 12.0921687,52.8126506 C12.014512,51.0830783 10.8496988,50.4406627 10.0590361,49.4240964 C11.3932771,49.8759036 12.0357831,45.7389759 10.0590361,44.6801205 C14.8666265,41.5033735 11.9933133,34.0908434 16.8361446,31.8036145 C15.4807229,30.1164036 18.2833373,28.4786747 16.8361446,26.3819277 C17.3797229,26.7419639 17.9374337,27.0878675 18.8692771,27.0596386 C27.354759,14.4654217 42.5475904,9.12144578 58.8542169,10.1168675 C62.7863855,11.8746867 68.2151205,15.3833133 73.0861446,15.5385542 C74.6251084,19.0541566 80.5973494,23.776988 84.6072289,27.0596386 C85.9626506,31.6483735 90.0007229,39.2372892 92.0620482,45.3578313 C90.2195783,49.6006627 94.8506024,53.3633133 91.3843373,56.8789157 C89.4571084,90.3686747 41.7560241,104.671084 19.546988,79.9210843 Z" id="Fill-1"></path>
                <path d="M40.5560241,24.3487952 C40.9301747,24.3487952 41.325506,23.7981506 40.5560241,23.6710843 C36.1086145,26.7560241 28.3924699,29.4034337 29.0349398,35.1921687 C29.8538313,42.5481325 39.6946988,39.5125301 43.2668675,33.836747 C49.4651205,32.0365843 59.7155422,32.3401446 66.3090361,37.903012 C67.134994,36.921741 68.8928313,36.8723313 69.6975904,35.8698795 C67.6996988,24.0522289 47.5518072,25.1394578 40.5560241,24.3487952 Z" id="Fill-2"></path>
            </g>
        </g>
    </g>
</svg>