<?xml version="1.0" encoding="UTF-8"?>
<svg width="435px" height="835px" viewBox="0 0 435 835" version="1.1" xmlns="http://www.w3.org/2000/svg" xmlns:xlink="http://www.w3.org/1999/xlink">
    <!-- Generator: Sketch 47.1 (45422) - http://www.bohemiancoding.com/sketch -->
    <title>Group 13</title>
    <desc>Created with Sketch.</desc>
    <defs>
        <rect id="path-1" x="3" y="0" width="415" height="815" rx="10"></rect>
    </defs>
    <g id="Page-1" stroke="none" stroke-width="1" fill="none" fill-rule="evenodd">
        <g id="DegreeProject_AD_V5" transform="translate(-36343.000000, -225.000000)">
            <g id="Group-13" transform="translate(36350.000000, 235.000000)">
                <g id="Rectangle-2-Copy-4">
                    <use fill="#000656" fill-rule="evenodd" xlink:href="#path-1"></use>
                    <rect stroke="#FFFFFF" stroke-width="10" x="-2" y="-5" width="425" height="825" rx="10"></rect>
                </g>
                <circle id="Oval-Copy-100" fill="#D0021B" cx="50.5" cy="47.5" r="27.5"></circle>
                <circle id="Oval-Copy-101" fill="#D0021B" cx="50.5" cy="367.5" r="27.5"></circle>
                <circle id="Oval-Copy-102" fill="#D0021B" cx="50.5" cy="207.5" r="27.5"></circle>
                <circle id="Oval-Copy-103" fill="#D0021B" cx="50.5" cy="527.5" r="27.5"></circle>
                <circle id="Oval-Copy-104" fill="#D0021B" cx="50.5" cy="687.5" r="27.5"></circle>
                <circle id="Oval-Copy-105" fill="#D0021B" cx="50.5" cy="127.5" r="27.5"></circle>
                <circle id="Oval-Copy-106" fill="#D0021B" cx="50.5" cy="447.5" r="27.5"></circle>
                <circle id="Oval-Copy-107" fill="#D0021B" cx="50.5" cy="287.5" r="27.5"></circle>
                <circle id="Oval-Copy-108" fill="#D0021B" cx="50.5" cy="607.5" r="27.5"></circle>
                <circle id="Oval-Copy-109" fill="#D0021B" cx="50.5" cy="767.5" r="27.5"></circle>
                <circle id="Oval-Copy-110" fill="#FFFFFF" cx="290.5" cy="47.5" r="27.5"></circle>
                <circle id="Oval-Copy-111" fill="#FFFFFF" cx="290.5" cy="367.5" r="27.5"></circle>
                <circle id="Oval-Copy-112" fill="#FFFFFF" cx="290.5" cy="207.5" r="27.5"></circle>
                <circle id="Oval-Copy-113" fill="#FFFFFF" cx="290.5" cy="527.5" r="27.5"></circle>
                <circle id="Oval-Copy-114" fill="#FFFFFF" cx="290.5" cy="687.5" r="27.5"></circle>
                <circle id="Oval-Copy-115" fill="#FFFFFF" cx="290.5" cy="127.5" r="27.5"></circle>
                <circle id="Oval-Copy-116" fill="#FFFFFF" cx="290.5" cy="447.5" r="27.5"></circle>
                <circle id="Oval-Copy-117" fill="#FFFFFF" cx="290.5" cy="287.5" r="27.5"></circle>
                <circle id="Oval-Copy-118" fill="#FFFFFF" cx="290.5" cy="607.5" r="27.5"></circle>
                <circle id="Oval-Copy-119" fill="#FFFFFF" cx="290.5" cy="767.5" r="27.5"></circle>
                <circle id="Oval-Copy-120" fill="#D0021B" cx="130.5" cy="47.5" r="27.5"></circle>
                <circle id="Oval-Copy-121" fill="#D0021B" cx="130.5" cy="367.5" r="27.5"></circle>
                <circle id="Oval-Copy-122" fill="#D0021B" cx="130.5" cy="207.5" r="27.5"></circle>
                <circle id="Oval-Copy-123" fill="#D0021B" cx="130.5" cy="527.5" r="27.5"></circle>
                <circle id="Oval-Copy-124" fill="#D0021B" cx="130.5" cy="687.5" r="27.5"></circle>
                <circle id="Oval-Copy-125" fill="#D0021B" cx="130.5" cy="127.5" r="27.5"></circle>
                <circle id="Oval-Copy-126" fill="#D0021B" cx="130.5" cy="447.5" r="27.5"></circle>
                <circle id="Oval-Copy-127" fill="#D0021B" cx="130.5" cy="287.5" r="27.5"></circle>
                <circle id="Oval-Copy-128" fill="#D0021B" cx="130.5" cy="607.5" r="27.5"></circle>
                <circle id="Oval-Copy-129" fill="#D0021B" cx="130.5" cy="767.5" r="27.5"></circle>
                <circle id="Oval-Copy-130" fill="#FFFFFF" cx="370.5" cy="47.5" r="27.5"></circle>
                <circle id="Oval-Copy-131" fill="#FFFFFF" cx="370.5" cy="367.5" r="27.5"></circle>
                <circle id="Oval-Copy-132" fill="#FFFFFF" cx="370.5" cy="207.5" r="27.5"></circle>
                <circle id="Oval-Copy-133" fill="#FFFFFF" cx="370.5" cy="527.5" r="27.5"></circle>
                <circle id="Oval-Copy-134" fill="#FFFFFF" cx="370.5" cy="687.5" r="27.5"></circle>
                <circle id="Oval-Copy-135" fill="#FFFFFF" cx="370.5" cy="127.5" r="27.5"></circle>
                <circle id="Oval-Copy-136" fill="#FFFFFF" cx="370.5" cy="447.5" r="27.5"></circle>
                <circle id="Oval-Copy-137" fill="#FFFFFF" cx="370.5" cy="287.5" r="27.5"></circle>
                <circle id="Oval-Copy-138" fill="#FFFFFF" cx="370.5" cy="607.5" r="27.5"></circle>
                <circle id="Oval-Copy-139" fill="#FFFFFF" cx="370.5" cy="767.5" r="27.5"></circle>
                <circle id="Oval-Copy-140" fill="#FFFFFF" cx="210.5" cy="47.5" r="27.5"></circle>
                <circle id="Oval-Copy-141" fill="#FFFFFF" cx="210.5" cy="367.5" r="27.5"></circle>
                <circle id="Oval-Copy-142" fill="#FFFFFF" cx="210.5" cy="207.5" r="27.5"></circle>
                <circle id="Oval-Copy-143" fill="#FFFFFF" cx="210.5" cy="527.5" r="27.5"></circle>
                <circle id="Oval-Copy-144" fill="#FFFFFF" cx="210.5" cy="687.5" r="27.5"></circle>
                <circle id="Oval-Copy-145" fill="#FFFFFF" cx="210.5" cy="127.5" r="27.5"></circle>
                <circle id="Oval-Copy-146" fill="#FFFFFF" cx="210.5" cy="447.5" r="27.5"></circle>
                <circle id="Oval-Copy-147" fill="#FFFFFF" cx="210.5" cy="287.5" r="27.5"></circle>
                <circle id="Oval-Copy-148" fill="#FFFFFF" cx="210.5" cy="607.5" r="27.5"></circle>
                <circle id="Oval-Copy-149" fill="#FFFFFF" cx="210.5" cy="767.5" r="27.5"></circle>
                <rect id="Rectangle-Copy-8" fill="#FFFFFF" x="0" y="165" width="420" height="5"></rect>
                <rect id="Rectangle-Copy-9" fill="#FFFFFF" x="0" y="325" width="420" height="5"></rect>
                <rect id="Rectangle-Copy-10" fill="#FFFFFF" x="0" y="485" width="420" height="5"></rect>
                <rect id="Rectangle-Copy-11" fill="#FFFFFF" x="0" y="645" width="420" height="5"></rect>
            </g>
        </g>
    </g>
</svg>