<?xml version="1.0" standalone="no"?>
<!DOCTYPE svg PUBLIC "-//W3C//DTD SVG 1.1//EN" "http://www.w3.org/Graphics/SVG/1.1/DTD/svg11.dtd" >
<svg xmlns="http://www.w3.org/2000/svg" xmlns:xlink="http://www.w3.org/1999/xlink" version="1.1">
<metadata>
Created by FontForge 20170731 at Sun Jan 11 21:57:04 1998
 By Aleksey,,,
Copyright (c) 1985, 1987, 1990, 1991 Adobe Systems Incorporated.  All Rights Reserved.ITC American Typewriter is a registered trademark of International Typeface Corporation.
</metadata>
<defs>
<font id="AmericanTypewriterBold" horiz-adv-x="660" >
  <font-face 
    font-family="AmericanTypewriter"
    font-weight="400"
    font-stretch="normal"
    units-per-em="1000"
    panose-1="0 0 4 0 0 0 0 0 0 0"
    ascent="800"
    descent="-200"
    x-height="512"
    cap-height="686"
    bbox="-148 -250 1336 928"
    underline-thickness="50"
    underline-position="-175"
    unicode-range="U+0020-F002"
  />
<missing-glyph horiz-adv-x="500" 
d="M63 0v766h375v-766h-375zM125 63h250v641h-250v-641z" />
    <glyph glyph-name=".notdef" horiz-adv-x="500" 
d="M63 0v766h375v-766h-375zM125 63h250v641h-250v-641z" />
    <glyph glyph-name=".null" horiz-adv-x="0" 
 />
    <glyph glyph-name="nonmarkingreturn" horiz-adv-x="240" 
 />
    <glyph glyph-name="space" unicode=" " horiz-adv-x="240" 
 />
    <glyph glyph-name="exclam" unicode="!" horiz-adv-x="380" 
d="M191 172q41 0 69.5 -28.5t28.5 -69.5q0 -40 -28.5 -68.5t-69.5 -28.5q-40 0 -68.5 28.5t-28.5 68.5q0 41 28.5 69.5t68.5 28.5zM113 271v0l-23 355q-5 74 104 74q106 0 101 -70l-4 -52l-29 -308q-4 -45 -16.5 -54.5t-58.5 -8.5t-57 9q-14 11 -17 55z" />
    <glyph glyph-name="quotedbl" unicode="&#x22;" horiz-adv-x="560" 
d="M117 442v0l-19 185q-1 10 -1 31q0 42 65 42t65 -42q0 -21 -1 -31l-19 -185q-3 -26 -10 -31.5t-35 -5.5q-27 0 -34.5 5.5t-10.5 31.5zM341 442v0l-19 185q-1 10 -1 31q0 42 65 42t65 -42q0 -21 -1 -31l-19 -185q-3 -26 -10 -31.5t-35 -5.5q-27 0 -34.5 5.5t-10.5 31.5z
" />
    <glyph glyph-name="numbersign" unicode="#" 
d="M219 0h-110l39 218h-125v92h142l17 85h-124v92h139l37 204h109l-36 -204h107l36 204h113l-38 -204h113v-92h-129l-15 -85h111v-92h-127l-40 -218h-111l38 218h-106zM398 395h-108l-15 -85h107z" />
    <glyph glyph-name="dollar" unicode="$" 
d="M418 425q84 -26 126 -67q57 -55 57 -147q0 -93 -68 -158q-63 -60 -158 -76l4 -84q2 -43 -43 -43t-43 38l4 89q-85 -5 -160 43q-84 54 -84 136q0 46 25 78t70 32q33 0 58 -24t25 -57q0 -11 -7.5 -28.5t-7.5 -23.5q0 -14 21 -25q26 -13 73 -13q52 0 90 24q44 27 44 76
q0 44 -39 63q-20 10 -78 20q-101 18 -168 60q-81 51 -81 152q0 96 63 151q56 49 154 59l-3 78q-2 42 42 42q48 0 46 -38l-4 -82q61 0 108 -24q85 -43 85 -118q0 -36 -23 -60t-59 -24q-29 0 -51 17t-22 45q0 6 2 16.5t2 14.5q0 31 -64 31q-56 0 -87.5 -21.5t-31.5 -55.5
q0 -36 57 -59q63 -18 126 -37z" />
    <glyph glyph-name="percent" unicode="%" horiz-adv-x="960" 
d="M210 700q87 0 133 -64q41 -57 41 -147q0 -97 -37 -155q-45 -69 -137 -69q-90 0 -135 67q-39 57 -39 151t39 151q45 66 135 66zM209 615q-67 0 -67 -133q0 -132 67 -132q69 0 69 132q0 133 -69 133zM742 413q87 0 134 -64q40 -57 40 -148q0 -97 -37 -155q-45 -69 -137 -69
q-90 0 -135 67q-39 57 -39 151t39 151q45 67 135 67zM742 328v-1q-68 1 -68 -132t68 -133t68 133q0 49 -12 83q-18 50 -56 50zM669 643l-308 -623q-12 -25 -14 -27q-8 -8 -31 -8q-44 0 -44 19q0 10 9 28l312 629q11 22 17.5 26.5t28.5 4.5q41 0 41 -20q0 -7 -11 -29z" />
    <glyph glyph-name="ampersand" unicode="&#x26;" horiz-adv-x="880" 
d="M437 403l62 -90q40 94 73 126q61 59 142 59q63 0 110 -37q50 -40 50 -101q0 -44 -30.5 -75.5t-74.5 -31.5q-30 0 -54 19.5t-24 48.5q0 16 9 29.5t9 15.5q0 6 -11 6q-49 0 -113 -176l20 -26q25 -33 44 -42t59 -9q74 0 74 -67q0 -24 -14.5 -43t-38.5 -19q-9 0 -29.5 5
t-31.5 5t-33.5 -5t-34.5 -5q-57 0 -115 78q-59 -91 -197 -91q-104 0 -176 61q-76 65 -76 167q0 71 49 128q26 30 124 84l20 11q-43 68 -43 124q0 73 60 113q51 35 128 35q72 0 122 -35q56 -39 56 -108q0 -83 -115 -154zM369 494q47 14 47 62q0 39 -40 39q-15 0 -26.5 -10.5
t-11.5 -25.5q0 -32 31 -65zM402 164l-104 155q-86 -49 -86 -115q0 -42 27 -66t69 -24q61 0 94 50z" />
    <glyph glyph-name="quotesingle" unicode="'" horiz-adv-x="300" 
d="M105 442v0l-19 185q-1 10 -1 31q0 42 65 42t65 -42q0 -21 -1 -31l-19 -185q-3 -26 -10 -31.5t-35 -5.5q-27 0 -34.5 5.5t-10.5 31.5z" />
    <glyph glyph-name="parenleft" unicode="(" horiz-adv-x="480" 
d="M389 717q19 0 30.5 -16.5t11.5 -36.5q0 -36 -52 -75q-73 -54 -105 -136q-37 -95 -37 -199q0 -99 32 -186q20 -53 43 -84.5t67 -64.5q52 -39 52 -75q0 -19 -11.5 -36t-30.5 -17q-73 0 -164 81q-86 77 -123 172q-33 87 -33 210q0 183 81 298q46 66 108 112q71 53 131 53z
" />
    <glyph glyph-name="parenright" unicode=")" horiz-adv-x="480" 
d="M91 717q60 0 131 -53q62 -46 108 -112q81 -115 81 -298q0 -123 -33 -210q-37 -95 -123 -172q-91 -81 -164 -81q-19 0 -30.5 17t-11.5 36q0 36 52 75q44 33 67 64.5t43 84.5q32 87 32 186q0 104 -37 199q-32 82 -105 136q-52 39 -52 75q0 20 11.5 36.5t30.5 16.5z" />
    <glyph glyph-name="asterisk" unicode="*" horiz-adv-x="400" 
d="M225 467v0l8 -19q16 -38 16 -59q0 -18 -13 -29.5t-32 -11.5q-45 0 -45 46q0 11 11 49l8 28q0 8 -7 8q-3 0 -8 -5l-12 -13q-13 -15 -27 -29q-17 -16 -35 -16q-45 0 -45 46q0 26 25 38q12 6 46 12q9 2 19 4q17 3 17 9t-10 6l-20 6q-77 7 -77 49q0 19 12.5 33.5t30.5 14.5
q19 0 59 -42q23 -24 26 -24q11 0 6 17l-14 45q-6 19 -6 28q0 42 43 42q47 0 47 -41q0 -18 -7 -36l-8 -21q-8 -21 -8 -25q0 -8 7 -8q5 0 10 7l13 14q41 44 63 44q17 0 30.5 -14t13.5 -31q0 -42 -75 -52q-9 -1 -18 -3q-15 -3 -15 -9q0 -5 14 -8l16 -2q78 -10 78 -50
q0 -19 -13.5 -34t-32.5 -15q-17 0 -34 16q-2 2 -26 29q-18 21 -25 21q-11 0 -6 -15z" />
    <glyph glyph-name="plus" unicode="+" horiz-adv-x="600" 
d="M245 328v191h116v-191h194v-116h-194v-198h-116v198h-194v116h194z" />
    <glyph glyph-name="comma" unicode="," horiz-adv-x="320" 
d="M272 47q0 -88 -59 -189q-62 -107 -101 -107q-38 0 -38 43q0 26 25 62q55 80 55 110q0 15 -23 21q-34 10 -55 36.5t-21 61.5q0 40 28 72t68 32q54 0 89 -45q32 -41 32 -97z" />
    <glyph glyph-name="hyphen" unicode="-" horiz-adv-x="400" 
d="M108 339h184q78 0 78 -69t-78 -69h-184q-78 0 -78 69t78 69z" />
    <glyph glyph-name="hyphen" unicode="&#x2010;" horiz-adv-x="400" 
d="M108 339h184q78 0 78 -69t-78 -69h-184q-78 0 -78 69t78 69z" />
    <glyph glyph-name="period" unicode="." horiz-adv-x="320" 
d="M163 185q44 0 74.5 -30.5t30.5 -73.5t-30.5 -73.5t-74.5 -30.5q-43 0 -73.5 30.5t-30.5 73.5t30.5 73.5t73.5 30.5z" />
    <glyph glyph-name="slash" unicode="/" horiz-adv-x="720" 
d="M622 580l-69 -117q-167 -283 -316 -580q-29 -58 -45 -72q-21 -18 -69 -18q-65 0 -65 26q0 13 37 75q117 195 351 626q25 54 74 138q25 32 73 32q70 0 70 -28q0 -12 -41 -82z" />
    <glyph glyph-name="zero" unicode="0" 
d="M327 700q146 0 221 -110q64 -94 64 -246q0 -154 -54 -244q-73 -123 -231 -123q-148 0 -222 112q-63 95 -63 249q0 156 63 250q74 112 222 112zM327 558q-47 0 -76 -48q-36 -57 -36 -172q0 -113 35 -171q30 -49 77 -49q46 0 76 49q36 58 36 171q0 120 -39 177
q-29 43 -73 43z" />
    <glyph glyph-name="one" unicode="1" 
d="M270 207v262q0 50 -5.5 65.5t-19.5 15.5q-8 0 -23 -3.5t-22 -3.5q-24 0 -38 21t-14 46q0 33 18.5 54.5t51.5 21.5q15 0 46.5 -5t47.5 -5q11 0 40.5 5t45.5 5q32 0 40 -22q5 -12 5 -50v-407q0 -81 25 -81q8 0 23 3.5t22 3.5q24 0 38 -21t14 -46q0 -33 -18.5 -54.5
t-51.5 -21.5q-26 0 -69.5 5t-67.5 5q-25 0 -75.5 -5t-76.5 -5q-25 0 -41.5 22t-16.5 54q0 25 14 46t38 21q7 0 22 -3.5t23 -3.5q25 0 25 81z" />
    <glyph glyph-name="two" unicode="2" 
d="M265 385q71 29 88 40q50 31 50 74q0 31 -29 50q-25 16 -57 16q-46 0 -74 -20q20 -25 20 -52q0 -42 -30 -68t-72 -26q-45 0 -73.5 32t-28.5 77q0 97 90 149q74 43 179 43q110 0 180 -48q81 -56 81 -161q0 -95 -82 -155q-53 -38 -168 -75q-72 -23 -94 -35q-53 -28 -56 -72
l2 -2q34 56 100 56q46 0 103 -42t78 -42q13 0 31 16q-27 3 -44.5 22t-17.5 46q0 32 23.5 54t55.5 22q48 0 77 -40q26 -36 26 -87q0 -69 -45 -123q-48 -57 -115 -57q-45 0 -90 27q-20 12 -65 49q-32 27 -47 27q-11 0 -11 -30q0 -33 -25.5 -53t-60.5 -20q-59 0 -94 49
q-32 44 -32 105q0 160 227 254z" />
    <glyph glyph-name="three" unicode="3" 
d="M299 442l93 103h-135q-56 0 -56 -25q0 -7 4.5 -26t4.5 -31q0 -39 -22 -62t-61 -23q-33 0 -53 21t-20 55q0 17 4 51t4 52q0 14 -4 41t-4 40q0 48 58 48h423q40 0 53 -10q17 -13 17 -54q0 -35 -11 -57q-9 -18 -36 -46l-111 -115q75 -4 120.5 -56.5t45.5 -128.5
q0 -121 -98 -186q-85 -56 -213 -56q-110 0 -177 42q-94 59 -94 160q0 46 30.5 80.5t76.5 34.5q39 0 67 -27t28 -66q0 -31 -26 -59q34 -29 94 -29q52 0 89 24q42 28 42 78q0 44 -44 71q-28 17 -84 19q-28 1 -38 12t-10 39q0 23 6 36q3 6 21 29z" />
    <glyph glyph-name="four" unicode="4" 
d="M499 314h59q64 0 64 -62q0 -67 -60 -67h-63q0 -57 26 -57q8 0 21.5 2t20.5 2q24 0 38 -21t14 -46q0 -33 -18.5 -54t-51.5 -21q-23 0 -63.5 5t-55.5 5q-22 0 -65.5 -5t-64.5 -5q-85 0 -85 75q0 25 14 46t38 21q13 0 30 -2t23 -2q26 0 26 41v16h-251q-59 0 -59 59
q0 44 44 112l180 279q15 23 21 30q12 14 29 21q33 14 87 14q102 0 102 -77v-309zM343 519l-126 -205h128v205h-2z" />
    <glyph glyph-name="five" unicode="5" 
d="M69 380l24 259q2 26 13.5 36.5t44.5 10.5h365q54 0 54 -38q0 -8 -1.5 -23.5t-1.5 -23.5t1.5 -23.5t1.5 -23.5q0 -94 -76 -94q-49 0 -67 54q-3 9 -13 21q-11 4 -42 4h-105q-22 0 -24 -23l-9 -84q72 21 126 21q99 0 169 -62t70 -160q0 -120 -93 -190q-84 -64 -207 -64
q-91 0 -162 39q-94 52 -94 137q0 48 28.5 79.5t75.5 31.5q40 0 67.5 -22.5t27.5 -61.5q0 -22 -18 -48q34 -21 79 -21q48 0 82 25q39 27 39 73q0 50 -42 79q-38 25 -90 25q-25 0 -69.5 -11t-62.5 -11q-41 0 -68 31q-26 28 -23 58z" />
    <glyph glyph-name="six" unicode="6" 
d="M564 557q0 -40 -26 -65t-67 -25q-40 0 -61.5 19.5t-21.5 44.5q0 14 12 34q-21 6 -41 6q-67 0 -103 -58q-32 -49 -30 -119q79 52 158 52q99 0 167 -64.5t68 -163.5q0 -110 -83 -178q-78 -63 -191 -63q-144 0 -226 102q-76 94 -76 240q0 158 71 258q87 123 253 123
q76 0 131 -33q66 -39 66 -110zM452 213q0 45 -32 73.5t-78 28.5t-78 -28.5t-32 -73.5q0 -44 32.5 -73t77.5 -29t77.5 29t32.5 73z" />
    <glyph glyph-name="seven" unicode="7" 
d="M466 512l-2 2q-32 -17 -69 -17q-44 0 -107.5 36t-79.5 36q-29 0 -29 -33q0 -11 8 -39.5t8 -44.5q0 -80 -81 -80q-75 0 -75 74q0 18 5.5 53.5t5.5 52.5q0 14 -5.5 40.5t-5.5 39.5q0 28 16.5 48t43.5 20q52 0 52 -67h2q34 67 132 67q59 0 132 -38q39 -20 50 -20q14 0 30 23
q24 35 53 35q37 0 59 -31t22 -69q0 -60 -36 -118q-23 -37 -81.5 -100.5t-80.5 -98.5q-37 -59 -37 -120q0 -19 5 -55.5t5 -54.5q0 -37 -26 -56.5t-64 -19.5q-60 0 -91 53q-26 43 -26 107q0 89 44 157q30 47 103 109q93 79 120 109z" />
    <glyph glyph-name="eight" unicode="8" 
d="M154 369q-82 35 -82 134q0 94 83 149q72 48 172 48t173 -47q83 -55 83 -150q0 -99 -82 -134q53 -23 84.5 -68t31.5 -102q0 -110 -93 -171q-80 -51 -197 -51t-197 51q-93 61 -93 171q0 119 117 170zM324 575q-33 0 -56 -18t-23 -50q0 -33 24 -51.5t58 -18.5q32 0 57 19
t25 51t-26 50t-59 18zM328 305q-48 0 -83 -24q-38 -27 -38 -73t37 -72q32 -23 81 -23q48 0 83 23q39 27 39 73q0 44 -36.5 70t-82.5 26z" />
    <glyph glyph-name="nine" unicode="9" 
d="M279 211q-105 0 -172 66t-67 170q0 108 77 185q68 68 191 68q147 0 227 -104q73 -94 73 -245q0 -162 -74 -258q-89 -116 -255 -116q-78 0 -138 26q-78 35 -78 103q0 41 30 65.5t72 24.5q35 0 59 -17q31 -22 31 -52q0 -10 -3 -19q17 -6 33 -6q125 0 143 157
q-76 -48 -149 -48zM317 562q-44 0 -75.5 -31t-31.5 -75t31.5 -75t75.5 -31t75 31t31 75t-31 75t-75 31z" />
    <glyph glyph-name="colon" unicode=":" horiz-adv-x="320" 
d="M163 185q44 0 74.5 -30.5t30.5 -73.5t-30.5 -73.5t-74.5 -30.5q-43 0 -73.5 30.5t-30.5 73.5t30.5 73.5t73.5 30.5zM163 481q44 0 74.5 -30.5t30.5 -73.5t-30.5 -73.5t-74.5 -30.5q-43 0 -73.5 30.5t-30.5 73.5t30.5 73.5t73.5 30.5z" />
    <glyph glyph-name="semicolon" unicode=";" horiz-adv-x="320" 
d="M272 47q0 -88 -59 -189q-62 -107 -101 -107q-38 0 -38 43q0 26 25 62q55 80 55 110q0 15 -23 21q-34 10 -55 36.5t-21 61.5q0 40 28 72t68 32q54 0 89 -45q32 -41 32 -97zM160 481q43 0 73.5 -30.5t30.5 -73.5t-30.5 -74t-73.5 -31t-74 31t-31 74t31 73.5t74 30.5z" />
    <glyph glyph-name="less" unicode="&#x3c;" horiz-adv-x="600" 
d="M558 105v-111l-509 225v99l509 227v-111l-362 -167z" />
    <glyph glyph-name="equal" unicode="=" horiz-adv-x="600" 
d="M555 425v-115h-504v115h504zM555 230v-115h-504v115h504z" />
    <glyph glyph-name="greater" unicode="&#x3e;" horiz-adv-x="600" 
d="M48 105l362 162l-362 167v111l509 -227v-99l-509 -225v111z" />
    <glyph glyph-name="question" unicode="?" 
d="M228 539q31 -24 31 -57q0 -41 -30.5 -69t-71.5 -28q-49 0 -79 31t-30 80q0 101 96 157q80 47 189 47q113 0 178 -42q42 -27 68 -73t26 -96q0 -83 -52 -136q-41 -42 -136 -62q-23 -5 -30 -10q-10 -7 -11 -27q-1 -33 -19 -42q-9 -4 -49 -6q-54 -2 -71 7q-27 14 -27 64
q0 57 30 84q23 22 83 35q101 23 101 90q0 39 -36 62q-31 20 -73 20q-59 0 -87 -29zM290 172q41 0 69.5 -28.5t28.5 -69.5q0 -40 -28.5 -68.5t-69.5 -28.5q-40 0 -68.5 28.5t-28.5 68.5q0 41 28.5 69.5t68.5 28.5z" />
    <glyph glyph-name="at" unicode="@" horiz-adv-x="740" 
d="M634 171h78q-44 -88 -130 -141t-183 -53q-155 0 -262 99q-110 101 -110 255q0 155 104.5 262t259.5 107q120 0 218 -73q109 -82 109 -216q0 -118 -72 -192q-83 -86 -159 -86q-66 0 -74 85q-29 -39 -51 -56q-30 -23 -70 -23q-54 0 -93 41t-39 106q0 85 65 156t149 71
q71 0 82 -64h2l14 55h116l-78 -289q-4 -15 -4 -22q0 -20 14 -20q30 0 76 64q59 82 59 172q0 88 -81 157q-75 64 -177 64q-129 0 -214.5 -82t-85.5 -210q0 -132 92 -213q88 -78 223 -78t222 124zM314 175q44 0 87 86q36 72 36 145q0 25 -9 45q-12 25 -34 25q-48 0 -86 -99
q-32 -83 -32 -141q0 -61 38 -61z" />
    <glyph glyph-name="A" unicode="A" horiz-adv-x="800" 
d="M361 208q-47 0 -55 -12q-14 -20 -14 -53q0 -20 37 -20q49 0 49 -68q0 -28 -19 -46.5t-48 -18.5q-21 0 -58.5 5t-60.5 5q-22 0 -65.5 -5t-64.5 -5q-29 0 -48 20t-19 50q0 36 16 56q13 17 33 17q5 0 16.5 -1t17.5 -1q20 0 33 27q2 3 17 44l137 376q28 76 51.5 92.5
t105.5 16.5q87 0 108 -11q18 -10 26 -24q6 -10 17 -48l122 -409q11 -37 17 -48q8 -16 22 -16q6 0 16 1t14 1q49 0 49 -73q0 -30 -19 -50t-49 -20q-21 0 -58.5 5t-60.5 5q-22 0 -65.5 -5t-64.5 -5q-29 0 -48 18.5t-19 46.5q0 68 49 68h8q7 -1 11 -1q23 0 23 21q0 2 -3 18
q-5 27 -11 37t-31 10h-114zM419 564l-58 -202q-3 -10 -3 -11q0 -13 38 -13h27q44 0 44 14q0 4 -5 27l-41 185h-2z" />
    <glyph glyph-name="B" unicode="B" horiz-adv-x="760" 
d="M134 207v262q0 48 -5.5 64.5t-19.5 16.5q-8 0 -23 -3.5t-22 -3.5q-24 0 -38 21t-14 46q0 76 113 76q23 0 67 -5t69 -5q48 0 111.5 5t86.5 5q90 0 144 -29q85 -46 85 -142q0 -56 -35 -94t-91 -46v-2q153 -37 153 -176q0 -113 -91 -166q-70 -41 -179 -41q-24 0 -83 5
t-103 5q-31 0 -74 -5t-64 -5q-109 0 -109 76q0 25 14 46t38 21q7 0 22 -3.5t23 -3.5q25 0 25 81zM319 498v-54q0 -20 15 -23q2 -1 33 -1q131 0 131 73q0 36 -38 53q-29 13 -70 13q-47 0 -59 -11.5t-12 -49.5zM319 252v-71q0 -32 21 -45t79 -13q42 0 71 19q33 22 33 61
q0 47 -47 71q-41 21 -106 21q-37 0 -44 -6t-7 -37z" />
    <glyph glyph-name="C" unicode="C" horiz-adv-x="680" 
d="M30 333q0 155 61 248q37 57 100 88t134 31q106 0 171 -71l2 2q-4 28 14 46.5t48 18.5q29 0 46.5 -17.5t17.5 -46.5q0 -17 -4 -50.5t-4 -50.5q0 -13 4 -40t4 -41q0 -32 -27 -52q-23 -17 -57 -17q-79 0 -76 79q2 43 -18 66q-26 31 -85 31q-72 0 -104 -50q-35 -52 -35 -172
q0 -114 35 -165t109 -51q52 0 77 23t25 74q0 41 13 61q18 28 61 28q47 0 70.5 -29.5t23.5 -77.5q0 -106 -88 -167q-78 -54 -189 -54q-155 0 -243 95q-42 46 -66 122q-20 68 -20 139z" />
    <glyph glyph-name="D" unicode="D" horiz-adv-x="740" 
d="M134 207v262q0 81 -25 81q-8 0 -23 -3.5t-22 -3.5q-24 0 -38 21t-14 46q0 33 18.5 54.5t51.5 21.5q24 0 67.5 -5t68.5 -5q46 0 104.5 5t81.5 5q148 0 229 -102t81 -246q0 -134 -73 -236q-81 -112 -231 -112q-38 0 -96.5 5t-89.5 5q-28 0 -71 -5t-65 -5q-76 0 -76 76
q0 25 14 46t38 21q7 0 22 -3.5t23 -3.5q25 0 25 81zM319 488v-327q0 -23 14 -31.5t40 -8.5q68 0 112 67q38 57 38 156q0 94 -45 154q-43 57 -105 57q-36 0 -45 -12t-9 -55z" />
    <glyph glyph-name="E" unicode="E" horiz-adv-x="740" 
d="M134 207v262q0 81 -23 81q-9 0 -25 -3.5t-26 -3.5q-22 0 -35 21t-13 46q0 33 19 54.5t52 21.5q23 0 70.5 -5t81.5 -5q54 0 185 5t199 5q74 0 74 -51q0 -19 -4.5 -52.5t-4.5 -47.5q0 -15 4.5 -45t4.5 -45q0 -31 -23 -51t-55 -20q-76 0 -76 80q0 13 4.5 36.5t4.5 35.5
q0 20 -14 25t-66 5h-76q-47 0 -58 -7q-15 -10 -15 -50v-53q0 -30 29 -30q45 0 45 33q0 5 -1 15t-1 14q0 43 49 43q56 0 56 -53q0 -15 -4 -46t-4 -47q0 -22 4 -64.5t4 -63.5q0 -59 -55 -59q-22 0 -36.5 14.5t-14.5 36.5q0 6 1 16t1 15q0 24 -44 24q-22 0 -27 -12
q-2 -5 -2 -33v-52q0 -50 15.5 -62t76.5 -12h50q99 0 99 51q0 12 -3.5 34t-3.5 33q0 83 82 83q36 0 55 -24t19 -61q0 -19 -4 -58.5t-4 -59.5q0 -13 4 -39t4 -40q0 -52 -59 -52q-44 0 -172 5t-214 5q-27 0 -76.5 -5t-75.5 -5q-100 0 -100 76q0 31 16 49t36 18q7 0 22 -3.5
t23 -3.5q17 0 22 19q3 14 3 62z" />
    <glyph glyph-name="F" unicode="F" horiz-adv-x="720" 
d="M134 207v262q0 81 -25 81q-8 0 -23 -3.5t-22 -3.5q-24 0 -38 21t-14 46q0 76 89 76q26 0 74 -5t78 -5q71 0 194 5t190 5q52 0 52 -45q0 -16 -4 -48t-4 -49q0 -15 4 -46t4 -47q0 -36 -20.5 -60t-55.5 -24q-76 0 -76 84q0 12 3 35t3 35q0 24 -25 31q-12 3 -44 3h-81
q-42 0 -53 -5q-21 -9 -21 -45v-49q0 -42 20 -42q50 0 50 30q0 6 -1 17.5t-1 17.5q0 39 55 39q52 0 52 -53q0 -16 -4 -48t-4 -54t4 -60.5t4 -59.5q0 -57 -52 -57q-53 0 -53 58v21q0 27 -39 27q-19 0 -25 -7.5t-6 -28.5v-71q0 -59 26 -59q8 0 23 3.5t22 3.5q23 0 37 -21
t14 -46q0 -33 -18.5 -54.5t-51.5 -21.5q-25 0 -66 5t-71 5q-25 0 -75.5 -5t-76.5 -5q-33 0 -51.5 21.5t-18.5 54.5q0 25 14 46t38 21q7 0 22 -3.5t23 -3.5q14 0 19.5 17t5.5 64z" />
    <glyph glyph-name="G" unicode="G" horiz-adv-x="720" 
d="M222 315q0 -195 134 -195q38 0 64 19.5t26 55.5q0 42 -36 42q-5 0 -15.5 -1.5t-16.5 -1.5q-23 0 -37 21q-12 18 -12 42q0 31 20.5 49.5t51.5 18.5q23 0 67.5 -5.5t66.5 -5.5q20 0 59.5 5.5t58.5 5.5q30 0 52.5 -20t22.5 -55q0 -34 -14.5 -52.5t-32.5 -18.5q-5 0 -16 1.5
t-15 1.5q-8 0 -15 -11q-10 -15 -10 -39q0 -20 2 -59t2 -67q0 -69 -75 -69q-78 0 -72 56q-66 -56 -162 -56q-62 0 -120 27.5t-98 74.5q-72 86 -72 244q0 187 87 287q79 90 208 90q118 0 181 -72q3 60 61 60q61 0 61 -61q0 -13 -3.5 -42t-3.5 -48q0 -14 3.5 -38.5t3.5 -38.5
q0 -25 -23.5 -45t-55.5 -20q-42 0 -59.5 16.5t-26.5 64.5q-15 81 -104 81q-137 0 -137 -242z" />
    <glyph glyph-name="H" unicode="H" horiz-adv-x="840" 
d="M319 421h211v48q0 81 -16 81l-18 -3q-12 -4 -19 -4q-11 0 -21 18.5t-10 48.5q0 76 50 76q24 0 66.5 -5t68.5 -5q30 0 78.5 5t71.5 5t39.5 -22t16.5 -54q0 -25 -13.5 -46t-34.5 -21q-9 0 -26.5 3.5t-26.5 3.5q-21 0 -21 -81v-262q0 -81 21 -81q10 0 26 4q24 3 27 3
q21 0 34.5 -21t13.5 -46q0 -32 -16 -54t-38 -22q-25 0 -75.5 5t-76.5 5q-33 0 -76.5 -5t-60.5 -5q-48 0 -48 76q0 29 10.5 48t22.5 19q3 0 18 -3q12 -4 17 -4q16 0 16 81v79h-211v-79q0 -81 16 -81q7 0 17 4l18 3q12 0 22.5 -19t10.5 -48q0 -76 -48 -76q-17 0 -60.5 5
t-76.5 5q-25 0 -75.5 -5t-76.5 -5q-22 0 -38 22t-16 54q0 25 13.5 46t34.5 21q3 0 27 -3q16 -4 26 -4q21 0 21 81v262q0 81 -21 81q-9 0 -26.5 -3.5t-26.5 -3.5q-21 0 -34.5 21t-13.5 46q0 32 16.5 54t39.5 22t71.5 -5t78.5 -5q26 0 68.5 5t66.5 5q50 0 50 -76
q0 -30 -10 -48.5t-21 -18.5q-7 0 -19 4l-18 3q-16 0 -16 -81v-48z" />
    <glyph glyph-name="I" unicode="I" horiz-adv-x="460" 
d="M134 207v262q0 81 -21 81q-9 0 -26.5 -3.5t-26.5 -3.5q-21 0 -34.5 21t-13.5 46q0 32 16.5 54t39.5 22t71.5 -5t78.5 -5q26 0 77 5t76 5q33 0 51.5 -21.5t18.5 -54.5q0 -31 -16 -49t-36 -18q-8 0 -22 4q-21 3 -23 3q-15 0 -20 -16t-5 -65v-262q0 -40 1 -47q5 -34 24 -34
q9 0 23 4q21 3 22 3q24 0 38 -21t14 -46q0 -33 -18.5 -54.5t-51.5 -21.5q-25 0 -76 5t-77 5q-25 0 -75.5 -5t-76.5 -5q-22 0 -38 22t-16 54q0 25 13.5 46t34.5 21q3 0 27 -3q16 -4 26 -4q21 0 21 81z" />
    <glyph glyph-name="J" unicode="J" 
d="M362 273v196q0 81 -21 81q-9 0 -26.5 -3.5t-26.5 -3.5q-21 0 -34.5 21t-13.5 46q0 32 16.5 54t39.5 22t71.5 -5t78.5 -5q26 0 77 5t76 5q33 0 51.5 -21.5t18.5 -54.5q0 -31 -16 -49t-36 -18q-8 0 -22 4q-21 3 -23 3q-15 0 -20 -16t-5 -65v-229q0 -70 -13 -108
q-17 -49 -65 -88q-83 -67 -210 -67q-104 0 -180 52q-85 60 -85 160q0 72 51 124t122 52q50 0 89 -30q42 -33 42 -81q0 -35 -22.5 -62t-57.5 -27q-40 0 -58 39q-12 -19 -12 -30q0 -32 31 -50q25 -14 60 -14q64 0 93.5 37.5t29.5 125.5z" />
    <glyph glyph-name="K" unicode="K" horiz-adv-x="820" 
d="M134 207v262q0 81 -21 81q-9 0 -26.5 -3.5t-26.5 -3.5q-21 0 -34.5 21t-13.5 46q0 32 16.5 54t39.5 22t71.5 -5t78.5 -5q26 0 68.5 5t66.5 5q50 0 50 -76q0 -30 -10 -48.5t-21 -18.5q-7 0 -19 4l-18 3q-16 0 -16 -81v-89l140 130q14 13 28 25q18 19 18 32q0 7 -10 16
q-24 21 -24 46q0 26 19 41.5t46 15.5q17 0 53 -5t55 -5q21 0 52 5t48 5q72 0 72 -71q0 -31 -12.5 -51.5t-30.5 -20.5q-7 0 -20 4t-20 4q-14 0 -42 -24l-102 -88q-40 -35 -40 -47q0 -8 23 -47l99 -166q30 -50 52 -50q7 0 18.5 2t16.5 2q49 0 49 -73q0 -30 -19 -50t-49 -20
q-16 0 -46.5 5t-53.5 5q-19 0 -55 -5t-53 -5q-32 0 -52 16t-20 42q0 24 20 41t20 27q0 11 -12 32l-53 94q-24 43 -33 43q-6 0 -15 -9l-67 -69q0 -81 16 -81q6 0 20 4q11 3 19 3q12 0 20.5 -20t8.5 -47q0 -76 -48 -76q-17 0 -60.5 5t-76.5 5q-25 0 -75.5 -5t-76.5 -5
q-22 0 -38 22t-16 54q0 25 13.5 46t34.5 21q3 0 27 -3q16 -4 26 -4q21 0 21 81z" />
    <glyph glyph-name="L" unicode="L" horiz-adv-x="680" 
d="M134 207v262q0 81 -21 81q-9 0 -26.5 -3.5t-26.5 -3.5q-21 0 -34.5 21t-13.5 46q0 32 16.5 54t39.5 22q22 0 73 -5t87 -5q16 0 63 5t74 5q77 0 77 -76q0 -25 -13 -45q-16 -22 -40 -22q-8 0 -22 4q-21 3 -23 3q-13 0 -18 -12q-7 -17 -7 -69v-263q0 -55 12 -70.5t59 -15.5
h59q78 0 78 51q0 12 -4.5 37t-4.5 38q0 34 28 56q25 19 60 19q80 0 80 -83q0 -17 -3.5 -51.5t-3.5 -52.5q0 -14 3.5 -43.5t3.5 -44.5q0 -56 -66 -56q-57 0 -181 4q-142 5 -211 6q-33 0 -86 -5t-76 -5q-24 0 -39 21.5t-15 54.5q0 25 13.5 46t34.5 21q3 0 27 -3q16 -4 26 -4
q21 0 21 81z" />
    <glyph glyph-name="M" unicode="M" horiz-adv-x="1060" 
d="M455 611l81 -347h2l84 332q13 51 28.5 70.5t47.5 19.5q26 0 76.5 -5t75.5 -5q31 0 76.5 5t60.5 5q33 0 51.5 -21.5t18.5 -54.5q0 -25 -14 -46t-38 -21q-7 0 -22 3.5t-23 3.5q-19 0 -24 -34q-1 -8 -1 -47v-262q0 -42 1 -48q4 -33 24 -33q8 0 23 3.5t22 3.5q24 0 38 -21
t14 -46q0 -33 -18.5 -54.5t-51.5 -21.5q-21 0 -59 5t-62 5q-31 0 -73 -5t-57 -5q-55 0 -55 76q0 24 9 45.5t22 21.5q7 0 19 -3.5t20 -3.5q14 0 14 81v345h-2l-136 -474q-22 -78 -60 -78h-68q-26 0 -37 15t-24 63l-132 474h-2v-345q0 -81 19 -81q6 0 16 3.5t15 3.5
q16 0 25.5 -21t9.5 -46q0 -76 -48 -76q-21 0 -60 5t-61 5t-65.5 -5t-64.5 -5q-78 0 -78 76q0 31 18 50q15 17 34 17q7 0 22 -3.5t23 -3.5q25 0 25 81v262q0 49 -5.5 65t-19.5 16q-8 0 -23 -3.5t-22 -3.5q-23 0 -37.5 20t-14.5 47q0 76 95 76q26 0 76.5 -5t75.5 -5
q24 0 67.5 5t69.5 5t37 -14t22 -61z" />
    <glyph glyph-name="N" unicode="N" horiz-adv-x="880" 
d="M598 190v279q0 39 -1 48q-5 33 -24 33q-8 0 -23 -3.5t-22 -3.5q-24 0 -38 21t-14 46q0 76 80 76q20 0 63 -5t65 -5q18 0 59 5t62 5q33 0 51.5 -21.5t18.5 -54.5q0 -29 -15 -48t-37 -19q-7 0 -22 3.5t-23 3.5q-14 0 -19.5 -16.5t-5.5 -64.5v-395q0 -38 -7 -52
q-13 -27 -46 -27h-138q-33 0 -45 13t-32 57l-194 429h-2v-287q0 -48 4 -63q5 -18 21 -18q8 0 23 3.5t22 3.5q24 0 38 -21t14 -46q0 -33 -18.5 -54.5t-51.5 -21.5q-21 0 -62 5t-59 5q-22 0 -65 -5t-63 -5q-38 0 -59 22t-21 54q0 33 18 52q15 15 34 15q7 0 22 -3.5t23 -3.5
q16 0 21 19q4 15 4 62v262q0 81 -25 81q-8 0 -23 -3.5t-22 -3.5q-21 0 -36.5 20t-15.5 47q0 76 90 76q20 0 63 -5t65 -5q18 0 59 5t62 5q35 0 57 -51l188 -445h2z" />
    <glyph glyph-name="O" unicode="O" horiz-adv-x="720" 
d="M349 700q164 0 247.5 -99.5t83.5 -260.5q0 -157 -71 -251q-84 -112 -251 -112q-165 0 -249 100q-79 94 -79 264q0 155 70 248q41 55 111 84q64 27 138 27zM355 121q133 0 133 212q0 118 -33 172q-31 51 -98 51q-63 0 -95 -41q-40 -52 -40 -176q0 -116 32 -167t101 -51z
" />
    <glyph glyph-name="P" unicode="P" horiz-adv-x="700" 
d="M319 491v-94q0 -29 6 -35.5t36 -6.5q129 0 129 97q0 49 -35 69q-29 17 -91 17q-29 0 -37 -10.5t-8 -36.5zM414 223h-51q-33 0 -39 -2t-6 -14q0 -38 2 -49q5 -32 27 -32q10 0 27.5 3.5t26.5 3.5q28 0 46 -22q15 -20 15 -45q0 -33 -22 -54.5t-60 -21.5q-26 0 -71 5t-66 5
q-25 0 -75.5 -5t-76.5 -5q-79 0 -79 76q0 25 14 46t38 21q7 0 22 -3.5t23 -3.5q25 0 25 81v262q0 39 -1 47q-5 34 -24 34q-8 0 -23 -3.5t-22 -3.5q-24 0 -38 21t-14 46q0 76 96 76q23 0 68 -5t68 -5q63 0 119.5 5t66.5 5q104 0 177.5 -60.5t73.5 -171.5q0 -105 -73 -168
t-194 -63z" />
    <glyph glyph-name="Q" unicode="Q" horiz-adv-x="700" 
d="M30 336q0 162 75 256q86 108 249 108q159 0 245 -105q79 -97 79 -261q0 -239 -167 -323q8 -50 31 -50q16 0 29 31.5t49 31.5q31 0 47.5 -21t16.5 -52q0 -62 -49 -95q-43 -29 -107 -29q-82 0 -124 42q-31 31 -42 108q-161 -11 -251 96q-81 96 -81 263zM222 321
q0 -182 100 -200q-2 21 -24.5 43.5t-22.5 48.5q0 30 25 48q22 15 53 15q45 0 73 -30q25 -28 29 -74q31 44 31 154q0 124 -33 179q-30 51 -95 51q-68 0 -100 -51q-36 -56 -36 -184z" />
    <glyph glyph-name="R" unicode="R" horiz-adv-x="780" 
d="M319 233v-47q0 -60 25 -60q9 0 23 4q21 3 22 3q24 0 38 -21t14 -46q0 -33 -18.5 -54.5t-51.5 -21.5q-17 0 -62 5t-75 5q-25 0 -75.5 -5t-76.5 -5q-33 0 -51.5 21.5t-18.5 54.5q0 25 14 46t38 21q1 0 22 -3q16 -4 23 -4q19 0 24 33q1 8 1 48v262q0 39 -1 47q-5 34 -24 34
q-8 0 -23 -3.5t-22 -3.5q-24 0 -38 21t-14 46q0 33 19 54.5t52 21.5q21 0 74.5 -5t89.5 -5q44 0 114 5t110 5q92 0 151 -48t59 -128q0 -128 -147 -154v-2q136 -16 136 -139v-44q0 -24 4 -31q4 -10 18 -10q5 0 15 1.5t16 1.5q20 0 33 -21.5t13 -45.5q0 -33 -18.5 -54.5
t-51.5 -21.5q-10 0 -30 5t-31 5q-14 0 -35.5 -5t-32.5 -5q-87 0 -87 122q0 9 1 32t1 37q0 57 -37 78q-26 14 -89 14q-40 0 -40 -40zM319 504v-65q0 -38 40 -38q130 0 130 80q0 36 -30 54q-24 15 -60 15q-42 0 -54 -4q-26 -9 -26 -42z" />
    <glyph glyph-name="S" unicode="S" horiz-adv-x="620" 
d="M275 700q114 0 165 -72l2 2q-1 60 60 60q64 0 64 -57q0 -16 -3 -41.5t-3 -38.5q0 -9 3 -29t3 -34q0 -66 -71 -66q-61 0 -76 72q-14 67 -115 67q-30 0 -51 -15q-25 -17 -25 -47q0 -26 19 -40q24 -18 90 -30q247 -44 247 -216q0 -107 -72.5 -172.5t-180.5 -65.5
q-98 0 -176 66q0 -57 -61 -57q-64 0 -64 64q0 16 2 48t2 49q0 12 -2 35.5t-2 35.5q0 30 26 47q23 14 55 14q65 0 78 -82q13 -78 116 -78q41 0 67 17q30 20 30 58q0 41 -34 56q-26 12 -97 30t-79 20q-41 14 -72 37q-74 55 -74 151q0 97 67 156q63 56 162 56z" />
    <glyph glyph-name="T" unicode="T" horiz-adv-x="700" 
d="M256 208v268q0 46 -11 63t-40 17q-47 0 -47 -35q0 -10 3 -31.5t3 -32.5q0 -89 -77 -89q-37 0 -57.5 23t-21.5 60q0 17 2.5 51t2.5 49q0 16 -2.5 46.5t-2.5 45.5q0 43 51 43q24 0 115.5 -5t174.5 -5q82 0 173.5 5t115.5 5q51 0 51 -43q0 -15 -2.5 -45.5t-2.5 -46.5
q0 -15 2.5 -49t2.5 -51q-1 -37 -21.5 -60t-57.5 -23q-77 0 -77 89q0 11 3 32.5t3 31.5q0 35 -47 35q-29 0 -40 -17t-11 -63v-268q0 -81 31 -81q10 0 28.5 3.5t27.5 3.5q29 0 48 -22q16 -20 16 -45q0 -33 -23 -55t-64 -22q-24 0 -75.5 5t-80.5 5t-81 -5t-76 -5q-41 0 -64 22
t-23 55q0 25 17.5 46t46.5 21q9 0 27.5 -3.5t28.5 -3.5q31 0 31 81z" />
    <glyph glyph-name="U" unicode="U" horiz-adv-x="820" 
d="M312 471v-205q0 -66 11 -91q22 -50 89 -50q64 0 86 35q19 30 19 106v205q0 80 -18 80q-1 0 -16 -3q-10 -4 -15 -4q-16 0 -25.5 21t-9.5 46q0 75 72 75q21 0 64.5 -5t65.5 -5q20 0 58.5 5t60.5 5q33 0 51.5 -21t18.5 -54q0 -25 -14 -46t-38 -21q-8 0 -22 4q-21 3 -23 3
q-25 0 -25 -80v-220q0 -78 -10 -114q-15 -54 -64 -94q-81 -66 -220 -66q-140 0 -213 59q-47 37 -60 96q-8 34 -8 117v222q0 46 -4 61q-5 19 -21 19q1 0 -23 -3q-14 -4 -22 -4q-24 0 -38 21t-14 46q0 31 16 53t38 22q26 0 76.5 -5t75.5 -5q24 0 67.5 5t69.5 5q48 0 48 -75
q0 -25 -9.5 -46t-25.5 -21q-5 0 -15 4q-15 3 -16 3q-18 0 -18 -80z" />
    <glyph glyph-name="V" unicode="V" horiz-adv-x="800" 
d="M402 173l93 323q9 31 9 38q0 16 -12 16q-5 0 -15 -4t-15 -4q-21 0 -34.5 21t-13.5 46q0 34 18.5 55.5t50.5 21.5q21 0 64.5 -5t65.5 -5q15 0 55.5 5t63.5 5q33 0 51.5 -21.5t18.5 -55.5q0 -25 -14 -46t-38 -21q-6 0 -17 4t-17 4q-17 0 -27 -26l-29 -76l-114 -349
q-20 -61 -39 -85t-49 -24q-12 0 -31 5t-29 5q-9 0 -30.5 -5t-35.5 -5q-31 0 -52 34q-19 30 -41 99l-131 407q-6 19 -27 19q-6 0 -18 -3.5t-18 -3.5q-24 0 -38 21t-14 46q0 77 85 77q21 0 64.5 -5t65.5 -5q15 0 55.5 5t63.5 5q33 0 51.5 -21.5t18.5 -55.5q0 -25 -14 -46
t-38 -21q-4 0 -12 4t-13 4q-15 0 -15 -16q0 -8 8 -38l87 -323h2z" />
    <glyph glyph-name="W" unicode="W" horiz-adv-x="1040" 
d="M201 90l-85 381q-4 22 -14 57q-6 18 -24 18q-5 0 -15 -2t-16 -2q-24 0 -38 21t-14 46q0 33 16.5 55t39.5 22q16 0 57.5 -5t64.5 -5t60.5 5t58.5 5q33 0 51.5 -21.5t18.5 -55.5q0 -25 -14 -46t-38 -21q-4 0 -12.5 3.5t-13.5 3.5q-16 0 -16 -19q0 -4 5 -31l62 -331h2
l65 434q7 46 13 62q9 22 32 22q13 0 39 -5t40 -5q15 0 37.5 5t35.5 5q23 0 31 -18q6 -14 14 -66l66 -434h2l60 331q4 22 4 31q0 19 -17 19q-5 0 -13 -3.5t-12 -3.5q-24 0 -38 21t-14 46q0 32 15 54.5t34 22.5q21 0 64.5 -5t65.5 -5q15 0 55.5 5t63.5 5q33 0 51.5 -21.5
t18.5 -55.5q0 -25 -14 -46t-38 -21q-5 0 -15.5 2t-16.5 2q-16 0 -22 -16q-7 -19 -16 -59l-85 -381q-6 -30 -21 -77q-11 -23 -42 -23q-13 0 -37 5t-36 5q-14 0 -40 -5t-39 -5q-22 0 -33 27q-9 20 -19 89l-53 349h-2l-53 -349q-4 -30 -16 -82q-12 -34 -41 -34q-13 0 -37 5
t-36 5q-14 0 -40 -5t-39 -5q-24 0 -35 20q-9 15 -23 80z" />
    <glyph glyph-name="X" unicode="X" horiz-adv-x="760" 
d="M249 333l-97 147q-43 65 -68 65q-6 0 -18.5 -1t-20.5 -1q-21 0 -34.5 21t-13.5 46q0 33 18.5 54.5t51.5 21.5q20 0 60.5 -5t61.5 -5q18 0 54 5t56 5q31 0 48.5 -20.5t17.5 -51.5q0 -33 -23 -46t-23 -22q0 -14 19 -49l45 -82l53 83q23 36 23 46q0 6 -22.5 21t-22.5 44
q0 30 12.5 53.5t30.5 23.5q20 0 60.5 -5t61.5 -5q22 0 56 5t54 5q33 0 51.5 -21.5t18.5 -54.5q0 -25 -14 -46t-38 -21q-4 0 -13.5 1t-15.5 1q-21 0 -50 -40l-114 -157l110 -171q30 -47 49 -47q6 0 17.5 2t16.5 2q24 0 38 -21t14 -46q0 -33 -18.5 -55t-51.5 -22
q-20 0 -55.5 5t-54.5 5q-21 0 -61.5 -5t-60.5 -5q-26 0 -41 20.5t-15 47.5q0 36 26.5 51.5t26.5 25.5q0 6 -12 27l-59 102l-53 -81q-27 -41 -27 -51q0 -11 18.5 -21t25 -20.5t6.5 -32.5q0 -68 -62 -68q-21 0 -59 5t-51 5q-21 0 -61.5 -5t-60.5 -5q-27 0 -44.5 21.5
t-17.5 54.5q0 25 14 46t38 21q6 0 18 -2t18 -2q18 0 48 42z" />
    <glyph glyph-name="Y" unicode="Y" horiz-adv-x="780" 
d="M341 489l51 -100l55 100q23 42 23 52q0 11 -22 24t-22 47q0 33 16.5 53.5t40.5 20.5q20 0 60.5 -5t61.5 -5t55.5 5t54.5 5q33 0 51.5 -21.5t18.5 -54.5q0 -25 -14 -46t-38 -21q-7 0 -20.5 2.5t-20.5 2.5q-18 0 -28 -11.5t-32 -47.5l-123 -196q-32 -51 -32 -72v-59
q0 -36 34 -36q10 0 29.5 3.5t28.5 3.5q24 0 38 -21t14 -46q0 -33 -18.5 -54.5t-51.5 -21.5q-24 0 -67.5 5t-71.5 5q-26 0 -76 -5t-75 -5q-100 0 -100 76q0 25 14 46t38 21q10 0 29.5 -3.5t29.5 -3.5q28 0 28 37v39q0 23 -7 40q-4 9 -26 45l-116 191q-13 21 -36 55
q-12 13 -29 13q-7 0 -20 -1.5t-20 -1.5q-24 0 -38 21t-14 46q0 76 75 76q20 0 60.5 -5t61.5 -5q18 0 54 5t56 5q66 0 66 -79q0 -30 -23.5 -43t-23.5 -23q0 -11 21 -52z" />
    <glyph glyph-name="Z" unicode="Z" horiz-adv-x="640" 
d="M43 131l324 432h-112q-35 0 -45 -4q-19 -8 -19 -38q0 -9 2 -27t2 -27q0 -32 -22 -52t-54 -20q-77 0 -77 77q0 15 2.5 44t2.5 43q0 13 -2.5 39.5t-2.5 40.5q0 31 17 40q14 7 63 7h430q65 0 65 -70q0 -35 -44 -92l-312 -403h127q52 0 73.5 5.5t21.5 34.5q0 12 -2.5 36
t-2.5 37q0 35 22 55.5t57 20.5q34 0 53.5 -23t19.5 -57q0 -16 -3.5 -48t-3.5 -48q0 -14 3.5 -42t3.5 -42q0 -55 -72 -55h-467q-76 0 -76 66q0 33 28 70z" />
    <glyph glyph-name="bracketleft" unicode="[" horiz-adv-x="480" 
d="M88 -103v749q0 38 50 38h226q34 0 47.5 -12.5t13.5 -48.5q0 -60 -49 -60q-13 0 -39 4t-39 4q-45 0 -45 -53v-491q0 -54 9.5 -70.5t35.5 -16.5q13 0 39 4t39 4q49 0 49 -60q0 -61 -52 -61h-235q-34 0 -43 16q-7 12 -7 54z" />
    <glyph glyph-name="backslash" unicode="\" horiz-adv-x="600" 
d="M50 686h132l373 -691h-132z" />
    <glyph glyph-name="bracketright" unicode="]" horiz-adv-x="480" 
d="M392 646v-749q0 -42 -7 -54q-9 -16 -43 -16h-235q-52 0 -52 61q0 60 49 60q13 0 39 -4t39 -4q26 0 35.5 16.5t9.5 70.5v491q0 53 -45 53q-13 0 -39 -4t-39 -4q-49 0 -49 60q0 36 13.5 48.5t47.5 12.5h226q50 0 50 -38z" />
    <glyph glyph-name="asciicircum" unicode="^" horiz-adv-x="600" 
d="M179 286h-127l191 400h120l191 -400h-127l-124 255z" />
    <glyph glyph-name="underscore" unicode="_" horiz-adv-x="500" 
d="M0 -75h500v-50h-500v50z" />
    <glyph glyph-name="grave" unicode="`" horiz-adv-x="400" 
d="M198 587l-70 28q-40 16 -51 23q-28 18 -28 44q0 27 18 49.5t44 22.5q24 0 67 -23l74 -40q37 -20 43 -24q24 -18 24 -41q0 -21 -13.5 -40t-33.5 -19q-24 0 -74 20z" />
    <glyph glyph-name="a" unicode="a" horiz-adv-x="600" 
d="M236 406v-18q0 -32 -25.5 -49.5t-60.5 -17.5q-38 0 -65 24.5t-27 61.5q0 51 51 84q58 36 167 36t162 -30q38 -21 52 -60q12 -32 12 -94v-188q0 -47 17 -47q4 0 12 1t12 1q23 0 36.5 -16.5t13.5 -39.5q0 -39 -34 -60q-28 -17 -69 -17q-91 0 -114 64q-67 -64 -171 -64
q-74 0 -123 37q-55 41 -55 113q0 102 80 140q14 6 150 36q80 18 80 70q0 27 -20.5 41.5t-47.5 14.5q-33 0 -33 -23zM337 197v22q-10 -11 -83 -26q-62 -13 -62 -43q0 -47 57 -47q88 0 88 94z" />
    <glyph glyph-name="b" unicode="b" horiz-adv-x="600" 
d="M81 68v427q0 71 -18 71q-5 0 -15.5 -3.5t-17.5 -3.5q-44 0 -44 57q0 70 59 70q13 0 39.5 -5t40.5 -5q15 0 44.5 5t43.5 5q33 0 33 -54v-172h2q47 67 138 67q99 0 152 -88q43 -73 43 -180q0 -115 -51 -192q-60 -90 -169 -90q-114 0 -161 92l-2 -2l3 -25q0 -47 -56 -47
q-38 0 -52 19q-12 15 -12 54zM334 112q82 0 82 138q0 66 -20 100q-25 42 -61 42q-34 0 -59 -32q-30 -39 -30 -112q0 -136 88 -136z" />
    <glyph glyph-name="c" unicode="c" horiz-adv-x="540" 
d="M192 256q0 -62 25 -100q29 -44 83 -44q32 0 50 17q13 13 27 46q13 30 26.5 40t42.5 10q33 0 55.5 -20t22.5 -54q0 -69 -66.5 -121.5t-163.5 -52.5q-119 0 -191 71q-76 75 -76 201q0 128 73.5 203t201.5 75q81 0 139 -36q70 -43 70 -119q0 -39 -27.5 -63.5t-66.5 -24.5
q-80 0 -80 65q0 16 10 30q-22 17 -55 17q-44 0 -71 -35q-29 -38 -29 -105z" />
    <glyph glyph-name="d" unicode="d" horiz-adv-x="640" 
d="M541 616v-435q0 -71 21 -71q5 0 18.5 3t22.5 3q52 0 52 -56q0 -70 -68 -70q-13 0 -40 5t-41 5q-13 0 -37.5 -5t-36.5 -5q-33 0 -30 80h-2q-21 -46 -66 -71q-41 -22 -91 -22q-101 0 -162 86q-54 77 -54 185q0 113 52 190q59 89 165 89q72 0 140 -70v38q0 71 -19 71
q-5 0 -18.5 -3t-22.5 -3q-52 0 -52 56q0 29 15 49.5t40 20.5q13 0 39.5 -5t40.5 -5q15 0 44.5 5t43.5 5q32 0 41 -21q5 -12 5 -49zM384 249q0 60 -30 97q-37 46 -72 46q-47 0 -72 -55q-18 -42 -18 -97q0 -50 19 -85q24 -43 70 -43q50 0 79 45q24 39 24 92z" />
    <glyph glyph-name="e" unicode="e" horiz-adv-x="560" 
d="M464 224h-243q-17 0 -23 -3t-6 -18q0 -43 29.5 -71.5t73.5 -28.5t81 39q22 24 34 31q16 9 42 9q30 0 49.5 -17t19.5 -46q0 -58 -66 -100t-162 -42q-122 0 -194 74.5t-72 197.5q0 121 71 199.5t191 78.5q115 0 178 -64t63 -176q0 -37 -10 -49q-13 -14 -56 -14zM239 335
h101q25 0 25 17q0 23 -20 42.5t-55 19.5q-36 0 -64.5 -22t-28.5 -43q0 -14 42 -14z" />
    <glyph glyph-name="f" unicode="f" horiz-adv-x="460" 
d="M102 179v183q0 28 -5 33.5t-29 5.5q-32 0 -45 10q-16 12 -16 43q0 59 56 59q28 0 33.5 5t6.5 28q3 77 63 118q53 36 134 36q63 0 103 -21q60 -31 60 -89q0 -33 -21 -55.5t-54 -22.5q-26 0 -47 16.5t-21 42.5q0 12 9 27q-9 4 -20 4q-50 0 -50 -57q0 -24 5 -28t29 -4
q43 0 57 -12t14 -42q0 -35 -16 -46.5t-68 -11.5q-21 0 -21 -39v-183q0 -59 9 -67q3 -3 9 -3t16 4q15 3 17 3q44 0 44 -57q0 -69 -59 -69q-22 0 -63 5t-61 5t-57 -5t-52 -5q-55 -1 -55 69q0 57 44 57q3 0 18 -3q12 -4 15 -4q18 0 18 70z" />
    <glyph glyph-name="g" unicode="g" horiz-adv-x="580" 
d="M263 127h121q108 0 159 -51q38 -39 38 -102q0 -100 -106 -154q-75 -38 -195 -38q-101 0 -168 31q-102 48 -102 137q0 86 103 113v2q-81 10 -81 92q0 42 22 67q18 22 60 40q-37 40 -37 91q0 78 71 126q63 42 145 42q13 0 39 -2q-3 52 38 83q36 28 91 28q44 0 76 -21
q37 -25 37 -67q0 -26 -17.5 -42.5t-43.5 -16.5q-28 0 -45 27q-10 17 -19 17q-14 0 -19 -13t-2 -27q46 -13 72 -53t26 -90q0 -46 -29 -87.5t-72 -60.5q-49 -23 -122 -23q-58 0 -114 25q-15 -13 -15 -27q0 -46 89 -46zM301 415q-29 0 -48 -19t-19 -48q0 -28 19.5 -47t47.5 -19
q29 0 48.5 19t19.5 47q0 29 -19.5 48t-48.5 19zM172 -37q0 -54 127 -54q119 0 119 57q0 41 -82 41q-19 0 -58.5 1.5t-59.5 1.5q-46 -15 -46 -47z" />
    <glyph glyph-name="h" unicode="h" horiz-adv-x="680" 
d="M103 179v318q0 70 -19 70q-5 0 -15.5 -3.5t-17.5 -3.5q-44 0 -44 57q0 69 58 69q13 0 39.5 -5t40.5 -5q15 0 44.5 5t43.5 5q27 0 27 -48v-175q43 36 70 49q35 15 85 15q78 0 120 -44q39 -42 39 -112v-192q0 -70 18 -70q6 0 16 4q18 3 17 3q44 0 44 -57q0 -69 -59 -69
q-20 0 -58 5t-57 5q-18 0 -52 -5t-50 -5q-38 0 -38 69q0 57 29 57q2 0 10.5 -3.5t11.5 -3.5q8 0 10 16q1 9 1 54v113q0 48 -9 68q-15 31 -58 31q-41 0 -65.5 -31t-24.5 -77v-104q0 -70 12 -70q6 0 13.5 3.5t8.5 3.5q29 0 29 -57q0 -69 -38 -69q-22 0 -63 5t-61 5
q-19 0 -56 -5t-54 -5q-20 0 -32 20t-12 49q0 57 44 57q2 0 17 -3q10 -4 16 -4q19 0 19 70z" />
    <glyph glyph-name="i" unicode="i" horiz-adv-x="360" 
d="M102 179v144q0 70 -18 70q-5 0 -15.5 -3.5t-17.5 -3.5q-44 0 -44 57q0 69 60 69q14 0 41.5 -5t40.5 -5q15 0 44.5 5t43.5 5q30 0 30 -51v-282q0 -70 17 -70q4 0 15 3.5t18 3.5q44 0 44 -57q0 -69 -59 -69q-22 0 -63 5t-61 5q-19 0 -56.5 -5t-55.5 -5q-59 0 -59 69
q0 57 44 57q1 0 18 -3q22 -4 15 -4q18 0 18 70zM178 740q39 0 66.5 -27.5t27.5 -66.5t-27.5 -66.5t-66.5 -27.5t-66.5 27.5t-27.5 66.5t27.5 66.5t66.5 27.5z" />
    <glyph glyph-name="j" unicode="j" horiz-adv-x="360" 
d="M131 40v283q0 70 -18 70q-5 0 -15.5 -3.5t-17.5 -3.5q-44 0 -44 57q0 69 60 69q14 0 41.5 -5t40.5 -5q15 0 44.5 5t43.5 5q30 0 30 -51v-448q0 -63 -7 -91q-11 -44 -47 -79q-65 -64 -172 -64q-78 0 -124.5 33t-46.5 82q0 37 26 60t64 23q30 0 51.5 -17t21.5 -46
q0 -14 -7 -25q10 -2 15 -2q35 0 52 44q9 24 9 109zM207 740q38 0 66 -27.5t28 -66.5t-28 -66.5t-66 -27.5q-39 0 -66.5 27.5t-27.5 66.5t27.5 66.5t66.5 27.5z" />
    <glyph glyph-name="k" unicode="k" horiz-adv-x="680" 
d="M257 299l68 59q32 28 32 40q0 7 -16 23q-23 23 -23 43q0 48 51 48q17 0 54 -5t56 -5q20 0 61 5t63 5q59 0 59 -69q0 -57 -44 -57q-7 0 -20 7t-22 7q-6 0 -67 -41q-47 -32 -47 -48q0 -5 7 -15l12 -18l67 -107q27 -42 37 -52.5t22 -10.5q6 0 19 3.5t17 4.5q44 0 44 -57
q0 -69 -59 -69q-14 0 -43.5 5t-44.5 5q-14 0 -40.5 -5t-39.5 -5q-36 0 -56 18q-17 15 -17 39q0 14 10 31t10 24q0 13 -38 66l-23 32q-15 21 -20 21q-11 0 -50 -37l-18 -17v-8q0 -51 16 -51q1 0 36 8q44 0 44 -57q0 -69 -59 -69q-22 0 -63 5t-61 5q-28 0 -68 -5t-55 -5
q-20 0 -32 20t-12 49q0 57 44 57q2 0 17 -3q10 -4 16 -4q19 0 19 70v318q0 70 -19 70q-5 0 -15.5 -3.5t-17.5 -3.5q-44 0 -44 57q0 69 58 69q13 0 39.5 -5t40.5 -5q15 0 44.5 5t43.5 5q27 0 27 -48v-339z" />
    <glyph glyph-name="l" unicode="l" horiz-adv-x="360" 
d="M267 632v-453q0 -70 17 -70q4 0 15 3.5t18 3.5q44 0 44 -57q0 -69 -59 -69q-22 0 -63 5t-61 5q-19 0 -56.5 -5t-55.5 -5q-59 0 -59 69q0 57 44 57q1 0 18 -3q22 -4 15 -4q18 0 18 70v318q0 69 -18 69q-5 0 -15.5 -3.5t-17.5 -3.5q-44 0 -44 57q0 70 59 70q13 0 39.5 -5
t40.5 -5q15 0 44.5 5t43.5 5q33 0 33 -54z" />
    <glyph glyph-name="m" unicode="m" horiz-adv-x="980" 
d="M259 253v-74q0 -70 12 -70q3 0 10 3.5t13 3.5q29 0 29 -57q0 -69 -40 -69q-22 0 -63 5t-61 5q-19 0 -56 -5t-54 -5q-18 0 -30 20t-12 49q0 57 44 57q1 0 18 -3q22 -4 15 -4q18 0 18 70v144q0 70 -18 70q-5 0 -15.5 -3.5t-17.5 -3.5q-44 0 -44 57q0 29 11.5 49t27.5 20
q11 0 35.5 -5t37.5 -5t40 5t42 5q33 0 33 -43v-19q70 77 164 77q83 0 131 -77q89 77 173 77q87 0 139 -61q38 -45 38 -157v-145q0 -55 19 -55q4 0 15 3.5t18 3.5q44 0 44 -57q0 -69 -59 -69q-19 0 -55 5t-54 5q-17 0 -49 -5t-47 -5q-53 0 -53 69q0 57 29 57q3 0 11.5 -3.5
t11.5 -3.5q12 0 12 70v127q0 77 -67 77q-51 0 -70 -35q-16 -29 -16 -95v-74q0 -70 12 -70q3 0 10 3.5t13 3.5q29 0 29 -57q0 -69 -40 -69q-19 0 -55 5t-54 5q-17 0 -49 -5t-47 -5q-40 0 -40 69q0 57 29 57q3 0 11.5 -3.5t11.5 -3.5q12 0 12 70v124q0 80 -62 80
q-49 0 -73 -36q-18 -27 -18 -94z" />
    <glyph glyph-name="n" unicode="n" horiz-adv-x="680" 
d="M416 179v125q0 80 -62 82q-33 1 -60 -21q-35 -30 -35 -90v-96q0 -70 12 -70q3 0 11 3.5t15 3.5q29 0 29 -57q0 -69 -40 -69q-24 0 -65.5 5t-61.5 5q-19 0 -56 -5t-54 -5q-18 0 -30 20t-12 49q0 57 44 57q1 0 18 -3q22 -4 15 -4q18 0 18 70v144q0 70 -18 70
q-5 0 -15.5 -3.5t-17.5 -3.5q-44 0 -44 57q0 29 11.5 49t27.5 20q10 0 37 -5t45 -5q14 0 36.5 5t34.5 5q20 0 24 -9.5t4 -42.5v-25h2q73 92 174 92q70 0 118 -46q52 -50 52 -133v-169q0 -70 18 -70q4 0 15 3.5t18 3.5q44 0 44 -57q0 -69 -59 -69q-22 0 -63 5t-61 5
q-19 0 -48.5 -5t-47.5 -5q-40 0 -40 69q0 57 31 57q3 0 11.5 -3.5t11.5 -3.5q9 0 11 13t2 57z" />
    <glyph glyph-name="o" unicode="o" horiz-adv-x="580" 
d="M293 527q122 0 191 -73.5t69 -195.5q0 -129 -64 -203q-68 -78 -195 -78q-129 0 -198 72.5t-69 202.5q0 129 69 202t197 73zM290 401q-41 0 -67 -32q-31 -40 -31 -117q0 -79 31 -118q25 -31 62 -31q60 0 81.5 44t21.5 105q0 149 -98 149z" />
    <glyph glyph-name="p" unicode="p" horiz-adv-x="640" 
d="M102 6v317q0 70 -18 70q-5 0 -15.5 -3.5t-17.5 -3.5q-44 0 -44 57q0 69 56 69q9 0 30.5 -5t32.5 -5t34.5 5t36.5 5q31 0 31 -52v-17h2q59 84 157 84q108 0 164 -79q53 -74 53 -188q0 -117 -50 -194q-58 -89 -168 -89q-35 0 -69 19q-11 7 -58 42v-32q0 -70 18 -70
q5 0 15 4l18 3q44 0 44 -57q0 -69 -59 -69q-22 0 -63 5t-61 5q-19 0 -56 -5t-54 -5q-54 0 -54 69q0 57 44 57l18 -3q10 -4 15 -4q18 0 18 70zM344 117q40 0 66 32q29 36 29 106q0 69 -29 106q-26 32 -67 32q-37 0 -60.5 -37t-23.5 -101q0 -68 26 -105q23 -33 59 -33z" />
    <glyph glyph-name="q" unicode="q" horiz-adv-x="620" 
d="M532 462v-456q0 -70 18 -70q5 0 15 4l18 3q44 0 44 -57q0 -69 -59 -69q-22 0 -63 5t-61 5t-56 -5t-49 -5q-59 0 -59 69q0 57 44 57l18 -3q10 -4 15 -4q18 0 18 70v41q-62 -70 -137 -70q-101 0 -160 89q-51 78 -51 185q0 130 56.5 203t151.5 73q97 0 151 -72h2q-2 48 7 57
q16 15 57 15q39 0 63 -15q12 -7 14.5 -15t2.5 -35zM284 117q41 0 67 44q24 41 24 94q0 68 -28 106q-25 34 -65 34q-38 0 -61 -31q-29 -37 -29 -110q0 -55 22 -93q25 -44 70 -44z" />
    <glyph glyph-name="r" unicode="r" horiz-adv-x="520" 
d="M223 469v-75h2q12 61 54.5 94.5t106.5 33.5q54 0 93 -36t39 -89q0 -40 -23.5 -69t-62.5 -29q-29 0 -49.5 18t-20.5 47q0 15 12 39q-73 5 -99 -79q-16 -49 -16 -145q0 -70 18 -70q4 0 15 3.5t18 3.5q44 0 44 -57q0 -69 -50 -69q-29 0 -72.5 5t-62.5 5t-56.5 -5t-55.5 -5
q-50 0 -50 69q0 57 44 57q1 0 18 -3q22 -4 15 -4q18 0 18 70v144q0 70 -18 70q-5 0 -15.5 -3.5t-17.5 -3.5q-44 0 -44 57q0 69 50 69q16 0 38 -5t31 -5q11 0 32.5 5t33.5 5q20 0 26 -12q5 -8 5 -31z" />
    <glyph glyph-name="s" unicode="s" horiz-adv-x="540" 
d="M56 353q0 80 54 128q51 46 133 46q83 0 131 -47q2 43 57 43q50 0 50 -36q0 -8 -3.5 -28t-3.5 -32t3.5 -30.5t3.5 -28.5q0 -42 -58 -42q-42 0 -74 43t-81 43q-55 0 -55 -41q0 -32 63 -44l43 -8q96 -18 133 -42q58 -38 58 -121q0 -81 -66 -132q-61 -47 -145 -47
q-97 0 -164 58q3 -49 -50 -49q-58 0 -58 45q0 10 2.5 29.5t2.5 30.5q0 10 -2.5 29.5t-2.5 29.5q0 22 20 35q16 11 40 11q43 0 72 -41q13 -19 18 -25q12 -13 24 -19q36 -17 73 -17q71 0 71 45q0 22 -19.5 32t-70.5 19q-101 17 -138 40q-61 37 -61 123z" />
    <glyph glyph-name="t" unicode="t" horiz-adv-x="440" 
d="M87 548v51q0 40 16.5 54t72.5 14q35 0 48 -11t13 -43v-63q0 -27 7 -34q4 -5 19 -5h86q58 0 58 -57q0 -54 -67 -54h-82q-14 0 -17.5 -9.5t-3.5 -36.5v-184q0 -63 36 -63q35 0 35 56v34q0 57 56 57q64 0 64 -104q0 -84 -49.5 -128.5t-133.5 -44.5q-85 0 -130 46
q-24 25 -31 69q-4 22 -4 77v201q0 18 -4.5 24.5t-21.5 6.5h-20q-14 0 -27 17t-13 38q0 55 50 55q25 0 34 6t9 31z" />
    <glyph glyph-name="u" unicode="u" 
d="M233 467v-249q0 -57 12 -76q19 -31 56 -31q46 0 72 40q23 35 23 103v69q0 70 -18 70l-13.5 -3.5t-19.5 -3.5q-44 0 -44 57q0 69 61 69q17 0 44.5 -5t43.5 -5q14 0 36.5 5t34.5 5q32 0 32 -33v-300q0 -70 18 -70q5 0 15.5 3.5t17.5 3.5q44 0 44 -57q0 -69 -59 -69
q-13 0 -36.5 5t-34.5 5t-32.5 -5t-30.5 -5q-36 0 -36 33v40h-2q-27 -40 -75.5 -63t-100.5 -23q-77 0 -121 42.5t-44 118.5v185q0 70 -18 70l-13.5 -3.5t-19.5 -3.5q-44 0 -44 57q0 69 64 69q16 0 45 -5t46 -5q16 0 37.5 5t33.5 5q18 0 23 -13q3 -8 3 -32z" />
    <glyph glyph-name="v" unicode="v" horiz-adv-x="680" 
d="M567 338l-98 -257q-10 -27 -15 -38q-11 -23 -23 -34q-20 -19 -48 -19q-12 0 -30 5t-28 5t-29.5 -5t-28.5 -5q-27 0 -40 12t-30 60l-93 257q-15 41 -21 52q-9 16 -21 16q-4 0 -13 -1t-14 -1q-44 0 -44 57q0 70 51 70q15 0 47.5 -5t52.5 -5t61 5t63 5q53 0 53 -60
q0 -52 -40 -57q-25 -3 -25 -19q0 -9 13 -52l66 -217h2l71 217q16 49 16 52q0 13 -17 17q-25 7 -32 12q-17 13 -17 46q0 61 54 61q14 0 46 -5t49 -5t52 5t54 5q59 0 59 -70q0 -57 -44 -57q-4 0 -12 1.5t-11 1.5q-17 0 -36 -50z" />
    <glyph glyph-name="w" unicode="w" horiz-adv-x="920" 
d="M566 414l55 -280h2l50 219q5 22 5 26q0 16 -24 16q-50 0 -50 56q0 61 56 61q14 0 46 -5t49 -5t52 5t54 5q59 0 59 -69q0 -57 -44 -57q-5 0 -13 3t-12 3q-12 0 -24 -37l-91 -286q-12 -38 -19 -51q-16 -28 -40 -28q-10 0 -28 5t-26 5q-10 0 -29.5 -5t-28.5 -5q-45 0 -57 64
l-53 289h-2l-55 -251q-6 -27 -20 -74q-12 -28 -37 -28q-10 0 -28 5t-26 5q-10 0 -29.5 -5t-28.5 -5q-27 0 -41.5 14.5t-24.5 51.5l-75 287q-12 47 -32 47q-5 0 -13 -2t-12 -2q-44 0 -44 57q0 69 65 69q14 0 46 -5t49 -5t52 5t54 5q56 0 56 -62q0 -54 -40 -54q-30 0 -30 -18
q0 -10 5 -35l41 -209h2l60 292q11 54 30 70.5t74 16.5q66 0 84 -16.5t31 -82.5z" />
    <glyph glyph-name="x" unicode="x" 
d="M486 370l-68 -105l68 -114q23 -38 37 -38q3 0 11.5 1.5t13.5 1.5q38 0 38 -57q0 -69 -51 -69q-16 0 -45.5 5t-44.5 5q-14 0 -40.5 -5t-38.5 -5q-22 0 -37 18.5t-15 44.5q0 20 16.5 34.5t16.5 22.5t-28 57l-15 26l-29 -47q-20 -32 -20 -40q0 -10 17 -19.5t17 -32.5
q0 -29 -15.5 -46.5t-40.5 -17.5q-15 0 -45 5t-45 5q-14 0 -40.5 -5t-38.5 -5q-50 0 -50 69q0 57 38 57q6 0 16.5 -2t15.5 -2q15 0 38 36l71 111l-62 91q-29 43 -45 43q-7 0 -17 -3.5t-15 -3.5q-35 0 -35 57q0 69 53 69q12 0 38.5 -5t40.5 -5q15 0 44.5 5t45.5 5q52 0 52 -57
q0 -19 -13 -32.5t-13 -19.5q0 -7 29 -61l14 -26l15 26q27 47 27 54q0 6 -16.5 17.5t-16.5 39.5q0 59 41 59q12 0 38.5 -5t40.5 -5q15 0 44.5 5t45.5 5q51 0 51 -69q0 -57 -34 -57q-6 0 -17 4t-16 4q-11 0 -27 -24z" />
    <glyph glyph-name="y" unicode="y" 
d="M549 342l-87 -238q-52 -143 -109 -216q-85 -109 -204 -109q-66 0 -113 30q-56 34 -56 96q0 37 25.5 61.5t62.5 24.5q29 0 49 -20.5t20 -48.5l-3 -21q13 -8 24 -8q25 0 52.5 31t27.5 57q0 25 -39 117l-101 239q-22 51 -36 51q-4 0 -11.5 -1t-11.5 -1q-44 0 -44 57
q0 69 59 69q15 0 48 -5t50 -5q18 0 54 5t55 5q58 0 58 -60q0 -36 -32 -45q-11 -3 -22 -6.5t-11 -15.5q0 -8 10 -39l65 -202h2l65 193q13 39 13 49q0 7 -28.5 20t-28.5 47q0 24 14.5 41.5t37.5 17.5q14 0 44 -5t46 -5q17 0 50.5 5t51.5 5q59 0 59 -69q0 -57 -44 -57
q-4 0 -13 2t-14 2q-17 0 -35 -48z" />
    <glyph glyph-name="z" unicode="z" horiz-adv-x="540" 
d="M55 122l247 269h-112q-33 0 -33 -19q0 -6 2 -17.5t2 -16.5q0 -22 -16 -39q-19 -19 -50 -19q-27 0 -43.5 18t-16.5 43q0 13 3.5 33.5t3.5 30.5q0 14 -3.5 34t-3.5 31q0 42 54 42h354q77 0 77 -71q0 -36 -31 -69l-239 -258h90q64 0 64 33q0 7 -1.5 20t-1.5 19q0 55 61 55
q62 0 62 -71q0 -10 -2.5 -30.5t-2.5 -31.5q0 -19 2.5 -43t2.5 -33q0 -20 -13 -28.5t-49 -8.5h-374q-67 0 -67 60q0 30 34 67z" />
    <glyph glyph-name="braceleft" unicode="{" horiz-adv-x="480" 
d="M346 568v-181q0 -58 -15 -85q-19 -33 -67 -40v-2q48 -7 67 -40q15 -27 15 -85v-192q0 -41 36 -46t36 -35q0 -35 -35 -35h-80q-122 0 -122 134v218q0 43 -36 46t-36 36t36 36t36 46v207q0 134 122 134h80q35 0 35 -35q0 -30 -35 -35q-22 -3 -29.5 -13t-7.5 -33z" />
    <glyph glyph-name="bar" unicode="|" horiz-adv-x="600" 
d="M243 -250v1000h119v-1000h-119z" />
    <glyph glyph-name="braceright" unicode="}" horiz-adv-x="480" 
d="M299 550v-207q0 -43 36 -46t36 -36t-36 -36t-36 -46v-218q0 -134 -122 -134h-80q-35 0 -35 35q0 30 35 35q22 3 29.5 13t7.5 33v192q0 58 15 85q19 33 67 40v2q-48 7 -67 40q-15 27 -15 85v181q0 41 -36 46t-36 35q0 35 35 35h80q122 0 122 -134z" />
    <glyph glyph-name="asciitilde" unicode="~" horiz-adv-x="600" 
d="M491 373v0l64 -73q-37 -59 -57 -79q-38 -38 -87 -38q-36 0 -92 24l-40 17q-59 25 -77 25q-30 0 -54 -28q-6 -8 -33 -54l-64 74q67 124 149 124q40 0 115 -33t95 -33q27 0 49 26z" />
    <glyph glyph-name="exclamdown" unicode="&#xa1;" horiz-adv-x="380" 
d="M194 332q-40 0 -69 29t-29 69t28.5 68.5t69.5 28.5t69 -28t28 -69t-28.5 -69.5t-68.5 -28.5zM272 231v0l23 -355q5 -74 -104 -74q-106 0 -101 70l4 52l29 308q4 45 16.5 54.5t58.5 8.5t57 -9q14 -11 17 -55z" />
    <glyph glyph-name="cent" unicode="&#xa2;" 
d="M295 586l-5 49q-5 52 41 52q44 0 42 -38l-4 -63q67 -5 110 -34q53 -36 53 -98q0 -40 -22 -65.5t-61 -25.5q-26 0 -48 15t-22 40q0 13 12 30q-19 17 -40 17q-42 0 -66 -39q-22 -34 -22 -78q0 -45 21 -77q24 -38 66 -38q34 0 58 44t60 44q75 0 75 -65q0 -63 -57 -106
q-52 -40 -116 -40l4 -76q1 -13 -10.5 -23.5t-29.5 -10.5q-46 0 -44 34l4 76q-90 11 -140 80q-45 64 -45 158q0 93 47 156q49 68 139 82z" />
    <glyph glyph-name="sterling" unicode="&#xa3;" 
d="M127 423h60q-20 40 -20 96q0 80 61 135q51 46 129 46q60 0 105 -34q53 -40 53 -110q0 -42 -20.5 -70t-53.5 -28q-26 0 -43.5 19.5t-17.5 50.5q0 19 7 33q-22 12 -34 12q-22 0 -36.5 -17t-14.5 -44q0 -20 26 -89h136q55 0 55 -56q0 -29 -11 -39.5t-40 -10.5h-101
q23 -38 23 -95q0 -31 -3 -46q25 -21 61 -40q41 -22 63 -22q45 0 45 34q0 15 -11 15q-6 0 -17.5 -4t-18.5 -4q-46 0 -46 61q0 38 25 59q21 19 53 19q49 0 83 -42.5t34 -102.5q0 -76 -50 -124q-46 -44 -108 -44q-39 0 -88 24q-11 5 -84 47q-27 -36 -71.5 -55.5t-87.5 -19.5
q-65 0 -111 35q-56 41 -56 116q0 64 44 105q39 37 91 37q48 0 120 -37q1 21 -10 44q-11 20 -21 40h-99q-26 0 -36 8q-15 11 -15 42q0 35 13 47q10 9 38 9zM224 129q-35 27 -67 27q-36 0 -36 -31q0 -14 12 -22t24 -8q17 0 38 9.5t29 24.5z" />
    <glyph glyph-name="currency" unicode="&#xa4;" 
d="M77 127l44 44q-37 66 -37 128q0 70 37 131l-44 43l79 80l44 -44q63 38 129 38q73 0 134 -38l44 44l77 -80l-44 -43q38 -61 38 -130q0 -75 -38 -129l44 -44l-77 -79l-44 44q-65 -39 -129 -39q-74 0 -134 39l-44 -44zM331 177q52 0 87.5 36.5t35.5 86.5t-35.5 86.5
t-87.5 36.5t-87.5 -36.5t-35.5 -86.5t35.5 -86.5t87.5 -36.5z" />
    <glyph glyph-name="yen" unicode="&#xa5;" 
d="M473 374l-43 -84h180q33 0 33 -31t-32 -31h-206v-48q0 -54 21 -54q6 0 18 3.5t20 3.5q21 0 32.5 -21t11.5 -46q0 -33 -15.5 -54.5t-43.5 -21.5q-23 0 -63 5t-56 5q-21 0 -63.5 -5t-64.5 -5t-36.5 21.5t-14.5 54.5q0 25 12 46t32 21q7 0 19.5 -3.5t18.5 -3.5q23 0 23 57
v45h-210q-32 0 -32 31t31 31h181l-42 84h-138q-32 0 -32 30q0 31 31 31h106l-38 69q-24 44 -40 44q-5 0 -16 -2.5t-19 -2.5q-21 0 -32.5 21t-11.5 46q0 76 63 76q17 0 51.5 -5t51.5 -5q16 0 46.5 5t47.5 5q26 0 42 -20.5t16 -52.5t-26 -50q-15 -10 -15 -22q0 -8 19 -51
l44 -100l54 119q9 20 9 32q0 6 -19.5 21.5t-19.5 49.5q0 32 15 53t37 21q17 0 52 -5t52 -5q14 0 44.5 5t48.5 5q60 0 60 -76q0 -25 -12 -46t-32 -21q-4 0 -15 3t-18 3q-16 0 -23 -6.5t-17 -25.5l-14 -26l-31 -56h105q33 0 33 -31q0 -30 -32 -30h-138z" />
    <glyph glyph-name="brokenbar" unicode="&#xa6;" horiz-adv-x="600" 
d="M243 325v350h119v-350h-119zM243 -175v350h119v-350h-119z" />
    <glyph glyph-name="section" unicode="&#xa7;" 
d="M321 70l-48 17q-49 17 -66 24q-43 17 -61 30q-63 45 -63 124q0 68 77 132q-40 62 -40 111q0 90 63 143q58 49 150 49q76 0 128 -28q82 -44 82 -113q0 -38 -22.5 -63.5t-59.5 -25.5q-32 0 -54 15q-25 18 -25 48q0 19 14 39q-25 14 -51 14q-28 0 -48 -11q-25 -14 -25 -40
q0 -22 17 -34q13 -9 71 -30q107 -39 140 -62q71 -48 71 -127q0 -69 -73 -122q48 -48 48 -122q0 -93 -70 -147q-65 -49 -161 -49q-74 0 -130 31q-82 45 -82 118q0 37 26.5 61t63.5 24q29 0 50 -16.5t21 -44.5q0 -21 -11 -37q29 -19 66 -19q32 0 49 12q23 17 23 41t-24 39
q-11 7 -46 19zM305 238l86 -30q28 7 28 41q0 25 -31 43q-12 8 -53 23l-78 29q-26 -19 -26 -45t25 -41q10 -7 49 -20z" />
    <glyph glyph-name="dieresis" unicode="&#xa8;" horiz-adv-x="520" 
d="M157 754q37 0 63 -25.5t26 -62.5t-26 -63t-63 -26t-62.5 26t-25.5 63t25.5 62.5t62.5 25.5zM370 754q37 0 63 -25.5t26 -62.5t-26 -63t-63 -26t-63 26t-26 63t26 62.5t63 25.5z" />
    <glyph glyph-name="copyright" unicode="&#xa9;" horiz-adv-x="740" 
d="M373 -23q-149 0 -255.5 106t-106.5 256q0 149 106.5 255t255.5 106t255.5 -106t106.5 -255q0 -150 -106.5 -256t-255.5 -106zM373 45q122 0 208 86t86 208t-86 207.5t-208 85.5t-208 -85.5t-86 -207.5t86 -208t208 -86zM525 504v-104h-39q-18 46 -32 63q-24 28 -63 28
q-52 0 -80 -43q-25 -38 -25 -98q0 -67 28 -113q34 -56 97 -56q22 0 48 13t39 32l9 13l32 -13q-19 -45 -69 -69q-44 -21 -99 -21q-85 0 -136.5 55t-51.5 141q0 89 55.5 145t143.5 56q33 0 72 -9q25 -4 71 -20z" />
    <glyph glyph-name="ordfeminine" unicode="&#xaa;" horiz-adv-x="460" 
d="M186 636v-9q0 -35 -48 -35q-21 0 -36.5 12.5t-15.5 32.5q0 63 124 63q65 0 95 -20.5t30 -82.5v-102q2 -14 9 -14q2 0 7 1h7q27 0 27 -30q0 -20 -18 -30.5t-39 -10.5q-50 0 -64 34q-39 -33 -96 -33q-42 0 -69 20q-30 22 -30 62q0 50 45 69q8 4 84 20q45 9 45 35
q0 30 -39 30q-18 0 -18 -12zM244 527v11q-6 -6 -48 -13q-35 -7 -35 -23q0 -24 32 -24q51 0 51 49zM114 347h227q51 0 51 -26q0 -32 -51 -32h-227q-52 0 -52 28q0 20 22 26z" />
    <glyph glyph-name="guillemotleft" unicode="&#xab;" horiz-adv-x="540" 
d="M45 322v0l93 81q54 47 76 46q15 -1 26 -15t10 -30q-1 -21 -32 -59l-46 -56q-14 -17 -14 -24q-1 -7 10 -18l25 -31q18 -21 35 -42q22 -30 22 -49q0 -36 -45 -34q-21 1 -43 17q-6 5 -35 33l-61 59q-53 51 -52 76q1 18 31 46zM288 322v0l93 81q54 47 76 46q15 -1 26 -15
t10 -30q-1 -19 -33 -59l-45 -56q-15 -19 -15 -23q-1 -7 11 -19l25 -30q57 -68 57 -91q0 -37 -45 -35q-21 1 -43 18q-6 4 -35 32l-61 59q-53 51 -52 76q1 18 31 46z" />
    <glyph glyph-name="logicalnot" unicode="&#xac;" horiz-adv-x="600" 
d="M440 134v176h-389v115h504v-291h-115z" />
    <glyph glyph-name="minus" unicode="&#xad;" horiz-adv-x="400" 
d="M51 212v115h504v-115h-504z" />
    <glyph glyph-name="minus" unicode="&#x2212;" horiz-adv-x="400" 
d="M51 212v115h504v-115h-504z" />
    <glyph glyph-name="registered" unicode="&#xae;" horiz-adv-x="740" 
d="M374 -23q-150 0 -256 106t-106 256q0 149 106 255t256 106q149 0 255 -106t106 -255q0 -150 -106 -256t-255 -106zM374 45q122 0 207.5 86t85.5 208t-85.5 207.5t-207.5 85.5t-208 -85.5t-86 -207.5t86 -208t208 -86zM208 512v26h160q83 0 111 -15q46 -25 46 -83
q0 -37 -28 -64t-66 -33v-2q30 -2 56 -44q20 -38 41 -76q22 -41 42 -41v-24h-60q-30 0 -41 7q-19 12 -44 75q-12 31 -36 75q-10 12 -40 12h-14v-115q0 -30 20 -30h21v-24h-170v24h7q23 0 28 2q9 5 9 23v289q0 18 -26 18h-16zM335 498v-141q12 -3 22 -3q83 0 83 81
q0 75 -71 75q-24 0 -29 -1t-5 -11z" />
    <glyph glyph-name="macron" unicode="&#xaf;" horiz-adv-x="520" 
d="M393 587h-257q-67 0 -67 66q0 65 69 65h255q66 0 66 -65q0 -66 -66 -66z" />
    <glyph glyph-name="macron" unicode="&#x2c9;" horiz-adv-x="520" 
d="M393 587h-257q-67 0 -67 66q0 65 69 65h255q66 0 66 -65q0 -66 -66 -66z" />
    <glyph glyph-name="degree" unicode="&#xb0;" horiz-adv-x="400" 
d="M350 550q0 -62 -44 -106t-106 -44t-106 44t-44 106t44 106t106 44t106 -44t44 -106zM290 550q0 38 -26 64t-64 26t-64 -26.5t-26 -63.5q0 -38 26.5 -64t63.5 -26q38 0 64 26.5t26 63.5z" />
    <glyph glyph-name="plusminus" unicode="&#xb1;" horiz-adv-x="600" 
d="M245 403v116h116v-116h194v-116h-194v-116h-116v116h-194v116h194zM51 -5v116h504v-116h-504z" />
    <glyph glyph-name="twosuperior" unicode="&#xb2;" horiz-adv-x="396" 
d="M366 561q0 -57 -53 -93q-35 -23 -110 -45q-45 -13 -61 -21q-34 -17 -36 -43l2 -2q21 34 64 34q30 0 67 -25.5t51 -25.5q8 0 20 10q-41 3 -41 41q0 19 15.5 32t36.5 13q31 0 49 -23t18 -53q0 -41 -29 -74q-32 -35 -75 -35q-39 0 -82 31.5t-50 31.5q-4 0 -11 -5
q4 -10 4 -14q0 -20 -16.5 -32t-39.5 -12q-38 0 -61 29q-20 26 -20 63q0 97 147 154q47 18 57 24q33 19 33 44q0 19 -17.5 29.5t-38.5 10.5q-31 0 -48 -12q13 -16 13 -31q0 -26 -19.5 -41.5t-47.5 -15.5q-29 0 -47.5 19.5t-18.5 46.5q0 58 59 89q48 26 116 26q72 0 117 -29
q53 -33 53 -96z" />
    <glyph glyph-name="threesuperior" unicode="&#xb3;" horiz-adv-x="396" 
d="M81 676h255q26 0 34 -5q12 -8 12 -33q0 -32 -31 -62l-72 -69q49 -3 78.5 -34.5t29.5 -76.5q0 -73 -64 -112q-54 -33 -138 -33q-71 0 -120 29q-56 33 -56 92q0 28 19.5 48.5t49.5 20.5q26 0 44 -16t18 -40q0 -20 -17 -35q23 -18 61 -18q35 0 58 14q28 17 28 47
q0 22 -19 36q-22 18 -65 18q-31 0 -31 31q0 24 28 52l61 61h-88q-37 0 -37 -15q0 -4 3 -15t3 -19q0 -51 -54 -51q-22 0 -35 13t-12 33q0 6 3 31q2 19 2 31q0 8 -2.5 24t-2.5 24q0 20 16 26q9 3 41 3z" />
    <glyph glyph-name="acute" unicode="&#xb4;" horiz-adv-x="400" 
d="M155 691l75 40q43 23 67 23q26 0 44 -22.5t18 -49.5q0 -26 -28 -44q-11 -7 -51 -23l-70 -28q-50 -20 -74 -20q-20 0 -33.5 19t-13.5 40q0 23 24 41q8 6 42 24z" />
    <glyph glyph-name="mu1" unicode="&#xb5;" 
 />
    <glyph glyph-name="paragraph" unicode="&#xb6;" horiz-adv-x="680" 
d="M438 -104v664q0 28 -5 35.5t-19 7.5q-18 0 -23.5 -9.5t-5.5 -37.5v-660q0 -46 -9.5 -62.5t-34.5 -16.5t-35 16t-10 63v338q0 35 -12 44t-48 10q-206 5 -206 199q0 97 52.5 148t149.5 51q31 0 92.5 -5t92.5 -5q24 0 71 5t70 5q56 0 56 -58q0 -49 -38 -49q-6 0 -15.5 2.5
t-13.5 2.5q-12 0 -16 -12t-4 -55v-621q0 -46 -10 -62.5t-34 -16.5q-30 0 -40 26q-5 14 -5 53zM197 472q0 -61 18 -87q13 -19 32 -19q32 0 42 28q8 23 8 97q0 69 -8 88q-13 31 -41 31q-51 0 -51 -138z" />
    <glyph glyph-name="periodcentered" unicode="&#xb7;" horiz-adv-x="320" 
d="M163 374q44 0 74.5 -30.5t30.5 -73.5t-30.5 -73.5t-74.5 -30.5q-43 0 -73.5 30.5t-30.5 73.5t30.5 73.5t73.5 30.5z" />
    <glyph glyph-name="periodcentered" unicode="&#x2219;" horiz-adv-x="320" 
d="M163 374q44 0 74.5 -30.5t30.5 -73.5t-30.5 -73.5t-74.5 -30.5q-43 0 -73.5 30.5t-30.5 73.5t30.5 73.5t73.5 30.5z" />
    <glyph glyph-name="cedilla" unicode="&#xb8;" horiz-adv-x="400" 
d="M236 -5l-23 -53q40 4 32 4q37 0 63.5 -20t26.5 -56q0 -39 -38.5 -70.5t-104.5 -31.5q-39 0 -75 12q-49 18 -49 49t29 31q8 0 41 -9.5t55 -9.5q52 0 52 26q0 23 -48 23q-8 0 -25 -1t-26 -1q-29 0 -29 28q0 18 20 51l17 28h82z" />
    <glyph glyph-name="onesuperior" unicode="&#xb9;" horiz-adv-x="396" 
d="M142 386v166q0 48 -16 48q-6 0 -15.5 -2t-14.5 -2q-33 0 -33 40q0 46 45 46q10 0 30 -3t31 -3q8 0 27 3t29 3q20 0 24.5 -8.5t4.5 -34.5v-253q0 -49 17 -49q5 0 14.5 2t14.5 2q15 0 24.5 -12.5t9.5 -27.5q0 -46 -46 -46q-18 0 -48.5 3t-40.5 3q-16 0 -49 -3t-50 -3
q-16 0 -26.5 13t-10.5 33q0 40 33 40q5 0 14.5 -2t15.5 -2q16 0 16 49z" />
    <glyph glyph-name="ordmasculine" unicode="&#xba;" horiz-adv-x="460" 
d="M225 700q70 0 109.5 -38t39.5 -108q0 -67 -38 -106.5t-104 -39.5q-152 0 -152 146q0 68 38.5 107t106.5 39zM228 633q-56 0 -56 -79t56 -79q54 0 54 79t-54 79zM114 347h227q51 0 51 -28q0 -30 -51 -30h-227q-52 0 -52 28q0 30 52 30z" />
    <glyph glyph-name="guillemotright" unicode="&#xbb;" horiz-adv-x="540" 
d="M495 218v0l-92 -81q-53 -47 -77 -46q-15 1 -25.5 15t-9.5 30q1 21 32 59l46 56q14 17 14 24q1 5 -10 18l-26 32q-17 21 -35 41q-22 30 -21 49q1 35 44 34q29 -1 79 -50l60 -59q54 -53 53 -76q-1 -19 -32 -46zM253 218v0l-93 -81q-54 -47 -77 -46q-15 1 -25.5 15t-9.5 30
q1 21 32 59l46 56q14 17 14 24q1 5 -10 18l-25 30q-35 43 -36 43q-22 30 -21 49q1 36 45 34q28 -1 78 -50l60 -59q54 -53 53 -76q-1 -18 -31 -46z" />
    <glyph glyph-name="onequarter" unicode="&#xbc;" horiz-adv-x="990" 
d="M575 214l117 167q11 16 18 22.5t22 10.5q21 6 49 6q39 0 56 -16q10 -10 10 -46v-170h21q34 0 42 -4q17 -9 17 -33t-11.5 -32t-47.5 -8h-21q0 -32 17 -32h28q33 0 33 -40q0 -45 -45 -45q-15 0 -41 3t-36 3q-15 0 -43 -3t-42 -3q-55 0 -55 45q0 39 34 40q8 0 19 -1t15 -1
q16 0 16 24v10h-152q-26 0 -36 7q-13 10 -13 28q0 27 29 68zM745 309l-81 -123h83v123h-2zM667 639l-308 -623q-12 -25 -14 -27q-8 -8 -31 -8q-44 0 -44 19q0 8 10 28l311 629q11 22 17.5 26.5t28.5 4.5q42 0 42 -20q0 -5 -12 -29zM142 386v166q0 48 -16 48q-6 0 -15.5 -2
t-14.5 -2q-33 0 -33 40q0 46 45 46q10 0 30 -3t31 -3q8 0 27 3t29 3q20 0 24.5 -8.5t4.5 -34.5v-253q0 -49 17 -49q5 0 14.5 2t14.5 2q15 0 24.5 -12.5t9.5 -27.5q0 -46 -46 -46q-18 0 -48.5 3t-40.5 3q-16 0 -49 -3t-50 -3q-16 0 -26.5 13t-10.5 33q0 40 33 40q5 0 14.5 -2
t15.5 -2q16 0 16 49z" />
    <glyph glyph-name="onehalf" unicode="&#xbd;" horiz-adv-x="990" 
d="M667 639l-308 -623q-12 -25 -14 -27q-8 -8 -31 -8q-44 0 -44 19q0 8 10 28l311 629q11 22 17.5 26.5t28.5 4.5q42 0 42 -20q0 -5 -12 -29zM142 386v166q0 48 -16 48q-6 0 -15.5 -2t-14.5 -2q-33 0 -33 40q0 46 45 46q10 0 30 -3t31 -3q8 0 27 3t29 3q20 0 24.5 -8.5
t4.5 -34.5v-253q0 -49 17 -49q5 0 14.5 2t14.5 2q15 0 24.5 -12.5t9.5 -27.5q0 -46 -46 -46q-18 0 -48.5 3t-40.5 3q-16 0 -49 -3t-50 -3q-16 0 -26.5 13t-10.5 33q0 40 33 40q5 0 14.5 -2t15.5 -2q16 0 16 49zM939 293q0 -57 -53 -93q-35 -23 -110 -45q-45 -13 -61 -21
q-34 -17 -36 -43l2 -2q21 34 64 34q30 0 67 -25.5t51 -25.5q8 0 20 10q-41 3 -41 41q0 19 15.5 32t36.5 13q31 0 49 -23t18 -53q0 -41 -29 -74q-32 -35 -75 -35q-39 0 -82 31.5t-50 31.5q-4 0 -11 -5q4 -10 4 -14q0 -20 -16.5 -32t-39.5 -12q-38 0 -61 29q-20 26 -20 63
q0 97 147 154q47 18 57 24q33 19 33 44q0 19 -17.5 29.5t-38.5 10.5q-31 0 -48 -12q13 -16 13 -31q0 -26 -19.5 -41.5t-47.5 -15.5q-29 0 -47.5 19.5t-18.5 46.5q0 58 59 89q48 26 116 26q72 0 117 -29q53 -33 53 -96z" />
    <glyph glyph-name="threequarters" unicode="&#xbe;" horiz-adv-x="990" 
d="M605 214l117 167q11 16 18 22.5t22 10.5q21 6 49 6q39 0 56 -16q10 -10 10 -46v-170h21q34 0 42 -4q17 -9 17 -33t-11.5 -32t-47.5 -8h-21q0 -32 17 -32h28q33 0 33 -40q0 -45 -45 -45q-15 0 -41 3t-36 3q-15 0 -43 -3t-42 -3q-55 0 -55 45q0 39 34 40q8 0 19 -1t15 -1
q16 0 16 24v10h-152q-26 0 -36 7q-13 10 -13 28q0 27 29 68zM775 309l-81 -123h83v123h-2zM717 639l-308 -623q-12 -25 -14 -27q-8 -8 -31 -8q-44 0 -44 19q0 8 10 28l311 629q11 22 17.5 26.5t28.5 4.5q42 0 42 -20q0 -5 -12 -29zM111 676h255q26 0 34 -5q12 -8 12 -33
q0 -32 -31 -62l-72 -69q49 -3 78.5 -34.5t29.5 -76.5q0 -73 -64 -112q-54 -33 -138 -33q-71 0 -120 29q-56 33 -56 92q0 28 19.5 48.5t49.5 20.5q26 0 44 -16t18 -40q0 -20 -17 -35q23 -18 61 -18q35 0 58 14q28 17 28 47q0 22 -19 36q-22 18 -65 18q-31 0 -31 31
q0 24 28 52l61 61h-88q-37 0 -37 -15q0 -4 3 -15t3 -19q0 -51 -54 -51q-22 0 -35 13t-12 33q0 6 3 31q2 19 2 31q0 8 -2.5 24t-2.5 24q0 20 16 26q9 3 41 3z" />
    <glyph glyph-name="questiondown" unicode="&#xbf;" horiz-adv-x="700" 
d="M452 -34q-31 24 -31 57q0 41 30.5 69t71.5 28q49 0 79 -31t30 -80q0 -101 -96 -159q-81 -48 -189 -48t-178 45q-42 27 -68 73t-26 96q0 83 52 136q41 42 136 62q23 5 31.5 11t9.5 26q1 33 19 42q9 4 49 6q54 2 71 -7q27 -14 27 -64q0 -57 -30 -84q-23 -22 -83 -35
q-100 -22 -100 -90q0 -40 36 -62q30 -20 72 -20q59 0 87 29zM391 332q-40 0 -69 29t-29 69t28.5 68.5t69.5 28.5q40 0 68.5 -28.5t28.5 -68.5q0 -41 -28.5 -69.5t-68.5 -28.5z" />
    <glyph glyph-name="Agrave" unicode="&#xc0;" horiz-adv-x="800" 
d="M361 208q-47 0 -55 -12q-14 -20 -14 -53q0 -20 37 -20q49 0 49 -68q0 -28 -19 -46.5t-48 -18.5q-21 0 -58.5 5t-60.5 5q-22 0 -65.5 -5t-64.5 -5q-29 0 -48 20t-19 50q0 36 16 56q13 17 33 17q5 0 16.5 -1t17.5 -1q20 0 33 27q2 3 17 44l137 376q28 76 51.5 92.5
t105.5 16.5q87 0 108 -11q18 -10 26 -24q6 -10 17 -48l122 -409q11 -37 17 -48q8 -16 22 -16q6 0 16 1t14 1q49 0 49 -73q0 -30 -19 -50t-49 -20q-21 0 -58.5 5t-60.5 5q-22 0 -65.5 -5t-64.5 -5q-29 0 -48 18.5t-19 46.5q0 68 49 68h8q7 -1 11 -1q23 0 23 21q0 2 -3 18
q-5 27 -11 37t-31 10h-114zM419 564l-58 -202q-3 -10 -3 -11q0 -13 38 -13h27q44 0 44 14q0 4 -5 27l-41 185h-2zM408 761l-70 28q-40 16 -51 23q-28 18 -28 44q0 27 18 49.5t44 22.5q24 0 67 -23l74 -40q37 -20 43 -24q24 -18 24 -41q0 -21 -13.5 -40t-33.5 -19
q-24 0 -74 20z" />
    <glyph glyph-name="Aacute" unicode="&#xc1;" horiz-adv-x="800" 
d="M361 208q-47 0 -55 -12q-14 -20 -14 -53q0 -20 37 -20q49 0 49 -68q0 -28 -19 -46.5t-48 -18.5q-21 0 -58.5 5t-60.5 5q-22 0 -65.5 -5t-64.5 -5q-29 0 -48 20t-19 50q0 36 16 56q13 17 33 17q5 0 16.5 -1t17.5 -1q20 0 33 27q2 3 17 44l137 376q28 76 51.5 92.5
t105.5 16.5q87 0 108 -11q18 -10 26 -24q6 -10 17 -48l122 -409q11 -37 17 -48q8 -16 22 -16q6 0 16 1t14 1q49 0 49 -73q0 -30 -19 -50t-49 -20q-21 0 -58.5 5t-60.5 5q-22 0 -65.5 -5t-64.5 -5q-29 0 -48 18.5t-19 46.5q0 68 49 68h8q7 -1 11 -1q23 0 23 21q0 2 -3 18
q-5 27 -11 37t-31 10h-114zM419 564l-58 -202q-3 -10 -3 -11q0 -13 38 -13h27q44 0 44 14q0 4 -5 27l-41 185h-2zM375 865l75 40q43 23 67 23q26 0 44 -22.5t18 -49.5q0 -26 -28 -44q-11 -7 -51 -23l-70 -28q-50 -20 -74 -20q-20 0 -33.5 19t-13.5 40q0 23 24 41q8 6 42 24z
" />
    <glyph glyph-name="Acircumflex" unicode="&#xc2;" horiz-adv-x="800" 
d="M361 208q-47 0 -55 -12q-14 -20 -14 -53q0 -20 37 -20q49 0 49 -68q0 -28 -19 -46.5t-48 -18.5q-21 0 -58.5 5t-60.5 5q-22 0 -65.5 -5t-64.5 -5q-29 0 -48 20t-19 50q0 36 16 56q13 17 33 17q5 0 16.5 -1t17.5 -1q20 0 33 27q2 3 17 44l137 376q28 76 51.5 92.5
t105.5 16.5q87 0 108 -11q18 -10 26 -24q6 -10 17 -48l122 -409q11 -37 17 -48q8 -16 22 -16q6 0 16 1t14 1q49 0 49 -73q0 -30 -19 -50t-49 -20q-21 0 -58.5 5t-60.5 5q-22 0 -65.5 -5t-64.5 -5q-29 0 -48 18.5t-19 46.5q0 68 49 68h8q7 -1 11 -1q23 0 23 21q0 2 -3 18
q-5 27 -11 37t-31 10h-114zM419 564l-58 -202q-3 -10 -3 -11q0 -13 38 -13h27q44 0 44 14q0 4 -5 27l-41 185h-2zM430 786l-104 -38q-47 -17 -67 -17q-18 0 -29 17t-11 36q0 25 22 42q7 6 44 25l46 24q75 39 103 39q26 0 96 -39l43 -24q32 -18 40 -24q21 -18 21 -39
q0 -20 -11 -37q-12 -20 -31 -20q-14 0 -60 17z" />
    <glyph glyph-name="Atilde" unicode="&#xc3;" horiz-adv-x="800" 
d="M361 208q-47 0 -55 -12q-14 -20 -14 -53q0 -20 37 -20q49 0 49 -68q0 -28 -19 -46.5t-48 -18.5q-21 0 -58.5 5t-60.5 5q-22 0 -65.5 -5t-64.5 -5q-29 0 -48 20t-19 50q0 36 16 56q13 17 33 17q5 0 16.5 -1t17.5 -1q20 0 33 27q2 3 17 44l137 376q28 76 51.5 92.5
t105.5 16.5q87 0 108 -11q18 -10 26 -24q6 -10 17 -48l122 -409q11 -37 17 -48q8 -16 22 -16q6 0 16 1t14 1q49 0 49 -73q0 -30 -19 -50t-49 -20q-21 0 -58.5 5t-60.5 5q-22 0 -65.5 -5t-64.5 -5q-29 0 -48 18.5t-19 46.5q0 68 49 68h8q7 -1 11 -1q23 0 23 21q0 2 -3 18
q-5 27 -11 37t-31 10h-114zM419 564l-58 -202q-3 -10 -3 -11q0 -13 38 -13h27q44 0 44 14q0 4 -5 27l-41 185h-2zM544 884q26 17 42 17q45 0 45 -51q0 -48 -48 -80q-44 -29 -94 -29q-32 0 -82 20.5t-62 20.5t-40 -17q-30 -23 -47 -23q-22 0 -35.5 16t-13.5 39q0 39 34 71
q40 38 101 38q29 0 81.5 -20.5t73.5 -20.5q16 0 45 19z" />
    <glyph glyph-name="Adieresis" unicode="&#xc4;" horiz-adv-x="800" 
d="M361 208q-47 0 -55 -12q-14 -20 -14 -53q0 -20 37 -20q49 0 49 -68q0 -28 -19 -46.5t-48 -18.5q-21 0 -58.5 5t-60.5 5q-22 0 -65.5 -5t-64.5 -5q-29 0 -48 20t-19 50q0 36 16 56q13 17 33 17q5 0 16.5 -1t17.5 -1q20 0 33 27q2 3 17 44l137 376q28 76 51.5 92.5
t105.5 16.5q87 0 108 -11q18 -10 26 -24q6 -10 17 -48l122 -409q11 -37 17 -48q8 -16 22 -16q6 0 16 1t14 1q49 0 49 -73q0 -30 -19 -50t-49 -20q-21 0 -58.5 5t-60.5 5q-22 0 -65.5 -5t-64.5 -5q-29 0 -48 18.5t-19 46.5q0 68 49 68h8q7 -1 11 -1q23 0 23 21q0 2 -3 18
q-5 27 -11 37t-31 10h-114zM419 564l-58 -202q-3 -10 -3 -11q0 -13 38 -13h27q44 0 44 14q0 4 -5 27l-41 185h-2zM317 918q37 0 63 -25.5t26 -62.5t-26 -63t-63 -26t-62.5 26t-25.5 63t25.5 62.5t62.5 25.5zM530 918q37 0 63 -25.5t26 -62.5t-26 -63t-63 -26t-63 26t-26 63
t26 62.5t63 25.5z" />
    <glyph glyph-name="Aring" unicode="&#xc5;" horiz-adv-x="800" 
d="M361 208q-47 0 -55 -12q-14 -20 -14 -53q0 -20 37 -20q49 0 49 -68q0 -28 -19 -46.5t-48 -18.5q-21 0 -58.5 5t-60.5 5q-22 0 -65.5 -5t-64.5 -5q-29 0 -48 20t-19 50q0 36 16 56q13 17 33 17q5 0 16.5 -1t17.5 -1q20 0 33 27q2 3 17 44l137 376q28 76 51.5 92.5
t105.5 16.5q87 0 108 -11q18 -10 26 -24q6 -10 17 -48l122 -409q11 -37 17 -48q8 -16 22 -16q6 0 16 1t14 1q49 0 49 -73q0 -30 -19 -50t-49 -20q-21 0 -58.5 5t-60.5 5q-22 0 -65.5 -5t-64.5 -5q-29 0 -48 18.5t-19 46.5q0 68 49 68h8q7 -1 11 -1q23 0 23 21q0 2 -3 18
q-5 27 -11 37t-31 10h-114zM419 564l-58 -202q-3 -10 -3 -11q0 -13 38 -13h27q44 0 44 14q0 4 -5 27l-41 185h-2zM432 918q42 0 72.5 -30t30.5 -73q0 -42 -30.5 -72.5t-72.5 -30.5q-43 0 -73 30.5t-30 72.5q0 43 30 73t73 30zM432 858q-43 0 -43 -43q0 -18 12 -30.5
t31 -12.5q18 0 30.5 12.5t12.5 30.5q0 19 -12.5 31t-30.5 12z" />
    <glyph glyph-name="AE" unicode="&#xc6;" horiz-adv-x="1120" 
d="M345 256l-25 -41q-31 -51 -31 -66q0 -18 20 -18q4 0 9.5 1t8.5 1q49 0 49 -73q0 -30 -19 -50t-49 -20q-21 0 -59 5t-60 5t-65.5 -5t-64.5 -5q-30 0 -49.5 20t-19.5 50q0 69 49 73q7 1 19.5 -2t16.5 -3q18 0 91 133l205 372q29 53 74 53q8 0 64 -5t96 -5q76 0 206.5 5
t203.5 5q61 0 61 -35q0 -20 -4.5 -59.5t-4.5 -58.5q0 -14 4.5 -41t4.5 -41q0 -33 -21.5 -53.5t-54.5 -20.5q-76 0 -76 78q0 13 4.5 37t4.5 36q0 21 -20 28q-10 3 -38 3h-95q-36 0 -48 -8.5t-12 -39.5v-51q0 -28 4 -35.5t21 -7.5q22 0 31.5 6.5t9.5 28.5q0 5 -1 15t-1 16
q0 18 15 28.5t34 10.5q55 0 55 -46q0 -20 -4 -60.5t-4 -60.5q0 -15 4 -44t4 -43q0 -77 -51 -77q-57 0 -55 63q1 25 -5.5 34.5t-28.5 9.5q-28 0 -28 -40v-58q0 -51 18 -66q14 -11 60 -11h75q69 0 69 48q0 12 -3 35.5t-3 34.5q0 36 20.5 60t57.5 24t57 -23t20 -60
q0 -20 -4.5 -59.5t-4.5 -58.5q0 -14 4.5 -41t4.5 -41q0 -52 -75 -52q-62 0 -187.5 5t-198.5 5q-43 0 -87.5 -5t-64.5 -5q-25 0 -43 20t-18 50q0 70 49 73q11 1 26 -2.5t21 -3.5q28 0 28 69v71q0 17 -3.5 22.5t-19.5 5.5h-95q-39 0 -50 -6t-28 -33zM481 529l-41 -77
q-9 -17 -9 -23q0 -18 29 -18h52q21 0 26 11q3 8 3 29v102q0 21 -20 21q-16 0 -40 -45z" />
    <glyph glyph-name="Ccedilla" unicode="&#xc7;" horiz-adv-x="680" 
d="M30 333q0 155 61 248q37 57 100 88t134 31q106 0 171 -71l2 2q-4 28 14 46.5t48 18.5q29 0 46.5 -17.5t17.5 -46.5q0 -17 -4 -50.5t-4 -50.5q0 -13 4 -40t4 -41q0 -32 -27 -52q-23 -17 -57 -17q-79 0 -76 79q2 43 -18 66q-26 31 -85 31q-72 0 -104 -50q-35 -52 -35 -172
q0 -114 35 -165t109 -51q52 0 77 23t25 74q0 41 13 61q18 28 61 28q47 0 70.5 -29.5t23.5 -77.5q0 -99 -77 -159q-67 -53 -170 -60l-16 -37q40 4 32 4q37 0 63.5 -20t26.5 -56q0 -39 -38.5 -70.5t-104.5 -31.5q-39 0 -75 12q-49 18 -49 49t29 31q8 0 41 -9.5t55 -9.5
q52 0 52 26q0 23 -48 23q-8 0 -25 -1t-26 -1q-29 0 -29 28q0 20 20 51l9 14q-118 13 -190 91q-42 46 -66 122q-20 68 -20 139z" />
    <glyph glyph-name="Egrave" unicode="&#xc8;" horiz-adv-x="740" 
d="M134 207v262q0 81 -23 81q-9 0 -25 -3.5t-26 -3.5q-22 0 -35 21t-13 46q0 33 19 54.5t52 21.5q23 0 70.5 -5t81.5 -5q54 0 185 5t199 5q74 0 74 -51q0 -19 -4.5 -52.5t-4.5 -47.5q0 -15 4.5 -45t4.5 -45q0 -31 -23 -51t-55 -20q-76 0 -76 80q0 13 4.5 36.5t4.5 35.5
q0 20 -14 25t-66 5h-76q-47 0 -58 -7q-15 -10 -15 -50v-53q0 -30 29 -30q45 0 45 33q0 5 -1 15t-1 14q0 43 49 43q56 0 56 -53q0 -15 -4 -46t-4 -47q0 -22 4 -64.5t4 -63.5q0 -59 -55 -59q-22 0 -36.5 14.5t-14.5 36.5q0 6 1 16t1 15q0 24 -44 24q-22 0 -27 -12
q-2 -5 -2 -33v-52q0 -50 15.5 -62t76.5 -12h50q99 0 99 51q0 12 -3.5 34t-3.5 33q0 83 82 83q36 0 55 -24t19 -61q0 -19 -4 -58.5t-4 -59.5q0 -13 4 -39t4 -40q0 -52 -59 -52q-44 0 -172 5t-214 5q-27 0 -76.5 -5t-75.5 -5q-100 0 -100 76q0 31 16 49t36 18q7 0 22 -3.5
t23 -3.5q17 0 22 19q3 14 3 62zM368 761l-70 28q-40 16 -51 23q-28 18 -28 44q0 27 18 49.5t44 22.5q24 0 67 -23l74 -40q37 -20 43 -24q24 -18 24 -41q0 -21 -13.5 -40t-33.5 -19q-24 0 -74 20z" />
    <glyph glyph-name="Eacute" unicode="&#xc9;" horiz-adv-x="740" 
d="M134 207v262q0 81 -23 81q-9 0 -25 -3.5t-26 -3.5q-22 0 -35 21t-13 46q0 33 19 54.5t52 21.5q23 0 70.5 -5t81.5 -5q54 0 185 5t199 5q74 0 74 -51q0 -19 -4.5 -52.5t-4.5 -47.5q0 -15 4.5 -45t4.5 -45q0 -31 -23 -51t-55 -20q-76 0 -76 80q0 13 4.5 36.5t4.5 35.5
q0 20 -14 25t-66 5h-76q-47 0 -58 -7q-15 -10 -15 -50v-53q0 -30 29 -30q45 0 45 33q0 5 -1 15t-1 14q0 43 49 43q56 0 56 -53q0 -15 -4 -46t-4 -47q0 -22 4 -64.5t4 -63.5q0 -59 -55 -59q-22 0 -36.5 14.5t-14.5 36.5q0 6 1 16t1 15q0 24 -44 24q-22 0 -27 -12
q-2 -5 -2 -33v-52q0 -50 15.5 -62t76.5 -12h50q99 0 99 51q0 12 -3.5 34t-3.5 33q0 83 82 83q36 0 55 -24t19 -61q0 -19 -4 -58.5t-4 -59.5q0 -13 4 -39t4 -40q0 -52 -59 -52q-44 0 -172 5t-214 5q-27 0 -76.5 -5t-75.5 -5q-100 0 -100 76q0 31 16 49t36 18q7 0 22 -3.5
t23 -3.5q17 0 22 19q3 14 3 62zM325 865l75 40q43 23 67 23q26 0 44 -22.5t18 -49.5q0 -26 -28 -44q-11 -7 -51 -23l-70 -28q-50 -20 -74 -20q-20 0 -33.5 19t-13.5 40q0 23 24 41q8 6 42 24z" />
    <glyph glyph-name="Ecircumflex" unicode="&#xca;" horiz-adv-x="740" 
d="M134 207v262q0 81 -23 81q-9 0 -25 -3.5t-26 -3.5q-22 0 -35 21t-13 46q0 33 19 54.5t52 21.5q23 0 70.5 -5t81.5 -5q54 0 185 5t199 5q74 0 74 -51q0 -19 -4.5 -52.5t-4.5 -47.5q0 -15 4.5 -45t4.5 -45q0 -31 -23 -51t-55 -20q-76 0 -76 80q0 13 4.5 36.5t4.5 35.5
q0 20 -14 25t-66 5h-76q-47 0 -58 -7q-15 -10 -15 -50v-53q0 -30 29 -30q45 0 45 33q0 5 -1 15t-1 14q0 43 49 43q56 0 56 -53q0 -15 -4 -46t-4 -47q0 -22 4 -64.5t4 -63.5q0 -59 -55 -59q-22 0 -36.5 14.5t-14.5 36.5q0 6 1 16t1 15q0 24 -44 24q-22 0 -27 -12
q-2 -5 -2 -33v-52q0 -50 15.5 -62t76.5 -12h50q99 0 99 51q0 12 -3.5 34t-3.5 33q0 83 82 83q36 0 55 -24t19 -61q0 -19 -4 -58.5t-4 -59.5q0 -13 4 -39t4 -40q0 -52 -59 -52q-44 0 -172 5t-214 5q-27 0 -76.5 -5t-75.5 -5q-100 0 -100 76q0 31 16 49t36 18q7 0 22 -3.5
t23 -3.5q17 0 22 19q3 14 3 62zM380 796l-104 -38q-47 -17 -67 -17q-18 0 -29 17t-11 36q0 25 22 42q7 6 44 25l46 24q75 39 103 39q26 0 96 -39l43 -24q32 -18 40 -24q21 -18 21 -39q0 -20 -11 -37q-12 -20 -31 -20q-14 0 -60 17z" />
    <glyph glyph-name="Edieresis" unicode="&#xcb;" horiz-adv-x="740" 
d="M134 207v262q0 81 -23 81q-9 0 -25 -3.5t-26 -3.5q-22 0 -35 21t-13 46q0 33 19 54.5t52 21.5q23 0 70.5 -5t81.5 -5q54 0 185 5t199 5q74 0 74 -51q0 -19 -4.5 -52.5t-4.5 -47.5q0 -15 4.5 -45t4.5 -45q0 -31 -23 -51t-55 -20q-76 0 -76 80q0 13 4.5 36.5t4.5 35.5
q0 20 -14 25t-66 5h-76q-47 0 -58 -7q-15 -10 -15 -50v-53q0 -30 29 -30q45 0 45 33q0 5 -1 15t-1 14q0 43 49 43q56 0 56 -53q0 -15 -4 -46t-4 -47q0 -22 4 -64.5t4 -63.5q0 -59 -55 -59q-22 0 -36.5 14.5t-14.5 36.5q0 6 1 16t1 15q0 24 -44 24q-22 0 -27 -12
q-2 -5 -2 -33v-52q0 -50 15.5 -62t76.5 -12h50q99 0 99 51q0 12 -3.5 34t-3.5 33q0 83 82 83q36 0 55 -24t19 -61q0 -19 -4 -58.5t-4 -59.5q0 -13 4 -39t4 -40q0 -52 -59 -52q-44 0 -172 5t-214 5q-27 0 -76.5 -5t-75.5 -5q-100 0 -100 76q0 31 16 49t36 18q7 0 22 -3.5
t23 -3.5q17 0 22 19q3 14 3 62zM267 918q37 0 63 -25.5t26 -62.5t-26 -63t-63 -26t-62.5 26t-25.5 63t25.5 62.5t62.5 25.5zM480 918q37 0 63 -25.5t26 -62.5t-26 -63t-63 -26t-63 26t-26 63t26 62.5t63 25.5z" />
    <glyph glyph-name="Igrave" unicode="&#xcc;" horiz-adv-x="460" 
d="M134 207v262q0 81 -21 81q-9 0 -26.5 -3.5t-26.5 -3.5q-21 0 -34.5 21t-13.5 46q0 32 16.5 54t39.5 22t71.5 -5t78.5 -5q26 0 77 5t76 5q33 0 51.5 -21.5t18.5 -54.5q0 -31 -16 -49t-36 -18q-8 0 -22 4q-21 3 -23 3q-15 0 -20 -16t-5 -65v-262q0 -40 1 -47q5 -34 24 -34
q9 0 23 4q21 3 22 3q24 0 38 -21t14 -46q0 -33 -18.5 -54.5t-51.5 -21.5q-25 0 -76 5t-77 5q-25 0 -75.5 -5t-76.5 -5q-22 0 -38 22t-16 54q0 25 13.5 46t34.5 21q3 0 27 -3q16 -4 26 -4q21 0 21 81zM228 761l-70 28q-40 16 -51 23q-28 18 -28 44q0 27 18 49.5t44 22.5
q24 0 67 -23l74 -40q37 -20 43 -24q24 -18 24 -41q0 -21 -13.5 -40t-33.5 -19q-24 0 -74 20z" />
    <glyph glyph-name="Iacute" unicode="&#xcd;" horiz-adv-x="460" 
d="M134 207v262q0 81 -21 81q-9 0 -26.5 -3.5t-26.5 -3.5q-21 0 -34.5 21t-13.5 46q0 32 16.5 54t39.5 22t71.5 -5t78.5 -5q26 0 77 5t76 5q33 0 51.5 -21.5t18.5 -54.5q0 -31 -16 -49t-36 -18q-8 0 -22 4q-21 3 -23 3q-15 0 -20 -16t-5 -65v-262q0 -40 1 -47q5 -34 24 -34
q9 0 23 4q21 3 22 3q24 0 38 -21t14 -46q0 -33 -18.5 -54.5t-51.5 -21.5q-25 0 -76 5t-77 5q-25 0 -75.5 -5t-76.5 -5q-22 0 -38 22t-16 54q0 25 13.5 46t34.5 21q3 0 27 -3q16 -4 26 -4q21 0 21 81zM185 865l75 40q43 23 67 23q26 0 44 -22.5t18 -49.5q0 -26 -28 -44
q-11 -7 -51 -23l-70 -28q-50 -20 -74 -20q-20 0 -33.5 19t-13.5 40q0 23 24 41q8 6 42 24z" />
    <glyph glyph-name="Icircumflex" unicode="&#xce;" horiz-adv-x="460" 
d="M134 207v262q0 81 -21 81q-9 0 -26.5 -3.5t-26.5 -3.5q-21 0 -34.5 21t-13.5 46q0 32 16.5 54t39.5 22t71.5 -5t78.5 -5q26 0 77 5t76 5q33 0 51.5 -21.5t18.5 -54.5q0 -31 -16 -49t-36 -18q-8 0 -22 4q-21 3 -23 3q-15 0 -20 -16t-5 -65v-262q0 -40 1 -47q5 -34 24 -34
q9 0 23 4q21 3 22 3q24 0 38 -21t14 -46q0 -33 -18.5 -54.5t-51.5 -21.5q-25 0 -76 5t-77 5q-25 0 -75.5 -5t-76.5 -5q-22 0 -38 22t-16 54q0 25 13.5 46t34.5 21q3 0 27 -3q16 -4 26 -4q21 0 21 81zM230 796l-104 -38q-47 -17 -67 -17q-18 0 -29 17t-11 36q0 25 22 42
q7 6 44 25l46 24q75 39 103 39q26 0 96 -39l43 -24q32 -18 40 -24q21 -18 21 -39q0 -20 -11 -37q-12 -20 -31 -20q-14 0 -60 17z" />
    <glyph glyph-name="Idieresis" unicode="&#xcf;" horiz-adv-x="460" 
d="M134 207v262q0 81 -21 81q-9 0 -26.5 -3.5t-26.5 -3.5q-21 0 -34.5 21t-13.5 46q0 32 16.5 54t39.5 22t71.5 -5t78.5 -5q26 0 77 5t76 5q33 0 51.5 -21.5t18.5 -54.5q0 -31 -16 -49t-36 -18q-8 0 -22 4q-21 3 -23 3q-15 0 -20 -16t-5 -65v-262q0 -40 1 -47q5 -34 24 -34
q9 0 23 4q21 3 22 3q24 0 38 -21t14 -46q0 -33 -18.5 -54.5t-51.5 -21.5q-25 0 -76 5t-77 5q-25 0 -75.5 -5t-76.5 -5q-22 0 -38 22t-16 54q0 25 13.5 46t34.5 21q3 0 27 -3q16 -4 26 -4q21 0 21 81zM127 918q37 0 63 -25.5t26 -62.5t-26 -63t-63 -26t-62.5 26t-25.5 63
t25.5 62.5t62.5 25.5zM340 918q37 0 63 -25.5t26 -62.5t-26 -63t-63 -26t-63 26t-26 63t26 62.5t63 25.5z" />
    <glyph glyph-name="Eth" unicode="&#xd0;" horiz-adv-x="740" 
d="M134 301h-52q-39 0 -54.5 12t-15.5 41q0 31 14.5 42t55.5 11h52v62q0 81 -25 81q-8 0 -23 -3.5t-22 -3.5q-24 0 -38 21t-14 46q0 33 18.5 54.5t51.5 21.5q24 0 67.5 -5t68.5 -5q46 0 104.5 5t81.5 5q148 0 229 -102t81 -246q0 -134 -73 -236q-81 -112 -231 -112
q-38 0 -96.5 5t-89.5 5q-28 0 -71 -5t-65 -5q-76 0 -76 76q0 25 14 46t38 21q7 0 22 -3.5t23 -3.5q25 0 25 81v94zM319 407h80q41 0 55.5 -11t14.5 -42q0 -53 -70 -53h-80v-140q0 -23 14 -31.5t40 -8.5q68 0 112 67q38 57 38 156q0 94 -45 154q-43 57 -105 57q-36 0 -45 -12
t-9 -55v-81z" />
    <glyph glyph-name="Ntilde" unicode="&#xd1;" horiz-adv-x="880" 
d="M598 190v279q0 39 -1 48q-5 33 -24 33q-8 0 -23 -3.5t-22 -3.5q-24 0 -38 21t-14 46q0 76 80 76q20 0 63 -5t65 -5q18 0 59 5t62 5q33 0 51.5 -21.5t18.5 -54.5q0 -29 -15 -48t-37 -19q-7 0 -22 3.5t-23 3.5q-14 0 -19.5 -16.5t-5.5 -64.5v-395q0 -38 -7 -52
q-13 -27 -46 -27h-138q-33 0 -45 13t-32 57l-194 429h-2v-287q0 -48 4 -63q5 -18 21 -18q8 0 23 3.5t22 3.5q24 0 38 -21t14 -46q0 -33 -18.5 -54.5t-51.5 -21.5q-21 0 -62 5t-59 5q-22 0 -65 -5t-63 -5q-38 0 -59 22t-21 54q0 33 18 52q15 15 34 15q7 0 22 -3.5t23 -3.5
q16 0 21 19q4 15 4 62v262q0 81 -25 81q-8 0 -23 -3.5t-22 -3.5q-21 0 -36.5 20t-15.5 47q0 76 90 76q20 0 63 -5t65 -5q18 0 59 5t62 5q35 0 57 -51l188 -445h2zM564 894q26 17 42 17q45 0 45 -51q0 -48 -48 -80q-44 -29 -94 -29q-32 0 -82 20.5t-62 20.5t-40 -17
q-30 -23 -47 -23q-22 0 -35.5 16t-13.5 39q0 39 34 71q40 38 101 38q29 0 81.5 -20.5t73.5 -20.5q16 0 45 19z" />
    <glyph glyph-name="Ograve" unicode="&#xd2;" horiz-adv-x="720" 
d="M349 700q164 0 247.5 -99.5t83.5 -260.5q0 -157 -71 -251q-84 -112 -251 -112q-165 0 -249 100q-79 94 -79 264q0 155 70 248q41 55 111 84q64 27 138 27zM355 121q133 0 133 212q0 118 -33 172q-31 51 -98 51q-63 0 -95 -41q-40 -52 -40 -176q0 -116 32 -167t101 -51z
M358 761l-70 28q-40 16 -51 23q-28 18 -28 44q0 27 18 49.5t44 22.5q24 0 67 -23l74 -40q37 -20 43 -24q24 -18 24 -41q0 -21 -13.5 -40t-33.5 -19q-24 0 -74 20z" />
    <glyph glyph-name="Oacute" unicode="&#xd3;" horiz-adv-x="720" 
d="M349 700q164 0 247.5 -99.5t83.5 -260.5q0 -157 -71 -251q-84 -112 -251 -112q-165 0 -249 100q-79 94 -79 264q0 155 70 248q41 55 111 84q64 27 138 27zM355 121q133 0 133 212q0 118 -33 172q-31 51 -98 51q-63 0 -95 -41q-40 -52 -40 -176q0 -116 32 -167t101 -51z
M315 865l75 40q43 23 67 23q26 0 44 -22.5t18 -49.5q0 -26 -28 -44q-11 -7 -51 -23l-70 -28q-50 -20 -74 -20q-20 0 -33.5 19t-13.5 40q0 23 24 41q8 6 42 24z" />
    <glyph glyph-name="Ocircumflex" unicode="&#xd4;" horiz-adv-x="720" 
d="M349 700q164 0 247.5 -99.5t83.5 -260.5q0 -157 -71 -251q-84 -112 -251 -112q-165 0 -249 100q-79 94 -79 264q0 155 70 248q41 55 111 84q64 27 138 27zM355 121q133 0 133 212q0 118 -33 172q-31 51 -98 51q-63 0 -95 -41q-40 -52 -40 -176q0 -116 32 -167t101 -51z
M370 796l-104 -38q-47 -17 -67 -17q-18 0 -29 17t-11 36q0 25 22 42q7 6 44 25l46 24q75 39 103 39q26 0 96 -39l43 -24q32 -18 40 -24q21 -18 21 -39q0 -20 -11 -37q-12 -20 -31 -20q-14 0 -60 17z" />
    <glyph glyph-name="Otilde" unicode="&#xd5;" horiz-adv-x="720" 
d="M349 700q164 0 247.5 -99.5t83.5 -260.5q0 -157 -71 -251q-84 -112 -251 -112q-165 0 -249 100q-79 94 -79 264q0 155 70 248q41 55 111 84q64 27 138 27zM355 121q133 0 133 212q0 118 -33 172q-31 51 -98 51q-63 0 -95 -41q-40 -52 -40 -176q0 -116 32 -167t101 -51z
M484 894q26 17 42 17q45 0 45 -51q0 -48 -48 -80q-44 -29 -94 -29q-32 0 -82 20.5t-62 20.5t-40 -17q-30 -23 -47 -23q-22 0 -35.5 16t-13.5 39q0 39 34 71q40 38 101 38q29 0 81.5 -20.5t73.5 -20.5q16 0 45 19z" />
    <glyph glyph-name="Odieresis" unicode="&#xd6;" horiz-adv-x="720" 
d="M349 700q164 0 247.5 -99.5t83.5 -260.5q0 -157 -71 -251q-84 -112 -251 -112q-165 0 -249 100q-79 94 -79 264q0 155 70 248q41 55 111 84q64 27 138 27zM355 121q133 0 133 212q0 118 -33 172q-31 51 -98 51q-63 0 -95 -41q-40 -52 -40 -176q0 -116 32 -167t101 -51z
M257 918q37 0 63 -25.5t26 -62.5t-26 -63t-63 -26t-62.5 26t-25.5 63t25.5 62.5t62.5 25.5zM470 918q37 0 63 -25.5t26 -62.5t-26 -63t-63 -26t-63 26t-26 63t26 62.5t63 25.5z" />
    <glyph glyph-name="multiply" unicode="&#xd7;" horiz-adv-x="600" 
d="M303 185l-170 -170l-82 82l170 170l-170 170l82 82l170 -170l170 170l82 -82l-170 -170l170 -170l-82 -82z" />
    <glyph glyph-name="Oslash" unicode="&#xd8;" horiz-adv-x="720" 
d="M608 599l5 -6q43 -63 57 -117q19 -72 19 -146q0 -151 -78 -245q-89 -108 -241 -108q-100 0 -169 34l-36 -52q-18 -25 -25 -30q-11 -9 -39 -9q-71 0 -71 27q0 9 22 41l63 93q-73 83 -73 239q0 170 69 264q42 57 110 87q64 29 137 29q94 0 166 -34l39 55q15 21 25 27t34 6
q73 0 73 -28q0 -7 -19 -33zM229 240l205 300q-36 17 -68 17q-142 0 -142 -243q0 -49 3 -74h2zM497 442l-205 -298q21 -24 78 -24q137 0 137 216q0 36 -8 106h-2z" />
    <glyph glyph-name="Ugrave" unicode="&#xd9;" horiz-adv-x="820" 
d="M312 471v-205q0 -66 11 -91q22 -50 89 -50q64 0 86 35q19 30 19 106v205q0 80 -18 80q-1 0 -16 -3q-10 -4 -15 -4q-16 0 -25.5 21t-9.5 46q0 75 72 75q21 0 64.5 -5t65.5 -5q20 0 58.5 5t60.5 5q33 0 51.5 -21t18.5 -54q0 -25 -14 -46t-38 -21q-8 0 -22 4q-21 3 -23 3
q-25 0 -25 -80v-220q0 -78 -10 -114q-15 -54 -64 -94q-81 -66 -220 -66q-140 0 -213 59q-47 37 -60 96q-8 34 -8 117v222q0 46 -4 61q-5 19 -21 19q1 0 -23 -3q-14 -4 -22 -4q-24 0 -38 21t-14 46q0 31 16 53t38 22q26 0 76.5 -5t75.5 -5q24 0 67.5 5t69.5 5q48 0 48 -75
q0 -25 -9.5 -46t-25.5 -21q-5 0 -15 4q-15 3 -16 3q-18 0 -18 -80zM408 761l-70 28q-40 16 -51 23q-28 18 -28 44q0 27 18 49.5t44 22.5q24 0 67 -23l74 -40q37 -20 43 -24q24 -18 24 -41q0 -21 -13.5 -40t-33.5 -19q-24 0 -74 20z" />
    <glyph glyph-name="Uacute" unicode="&#xda;" horiz-adv-x="820" 
d="M312 471v-205q0 -66 11 -91q22 -50 89 -50q64 0 86 35q19 30 19 106v205q0 80 -18 80q-1 0 -16 -3q-10 -4 -15 -4q-16 0 -25.5 21t-9.5 46q0 75 72 75q21 0 64.5 -5t65.5 -5q20 0 58.5 5t60.5 5q33 0 51.5 -21t18.5 -54q0 -25 -14 -46t-38 -21q-8 0 -22 4q-21 3 -23 3
q-25 0 -25 -80v-220q0 -78 -10 -114q-15 -54 -64 -94q-81 -66 -220 -66q-140 0 -213 59q-47 37 -60 96q-8 34 -8 117v222q0 46 -4 61q-5 19 -21 19q1 0 -23 -3q-14 -4 -22 -4q-24 0 -38 21t-14 46q0 31 16 53t38 22q26 0 76.5 -5t75.5 -5q24 0 67.5 5t69.5 5q48 0 48 -75
q0 -25 -9.5 -46t-25.5 -21q-5 0 -15 4q-15 3 -16 3q-18 0 -18 -80zM365 865l75 40q43 23 67 23q26 0 44 -22.5t18 -49.5q0 -26 -28 -44q-11 -7 -51 -23l-70 -28q-50 -20 -74 -20q-20 0 -33.5 19t-13.5 40q0 23 24 41q8 6 42 24z" />
    <glyph glyph-name="Ucircumflex" unicode="&#xdb;" horiz-adv-x="820" 
d="M312 471v-205q0 -66 11 -91q22 -50 89 -50q64 0 86 35q19 30 19 106v205q0 80 -18 80q-1 0 -16 -3q-10 -4 -15 -4q-16 0 -25.5 21t-9.5 46q0 75 72 75q21 0 64.5 -5t65.5 -5q20 0 58.5 5t60.5 5q33 0 51.5 -21t18.5 -54q0 -25 -14 -46t-38 -21q-8 0 -22 4q-21 3 -23 3
q-25 0 -25 -80v-220q0 -78 -10 -114q-15 -54 -64 -94q-81 -66 -220 -66q-140 0 -213 59q-47 37 -60 96q-8 34 -8 117v222q0 46 -4 61q-5 19 -21 19q1 0 -23 -3q-14 -4 -22 -4q-24 0 -38 21t-14 46q0 31 16 53t38 22q26 0 76.5 -5t75.5 -5q24 0 67.5 5t69.5 5q48 0 48 -75
q0 -25 -9.5 -46t-25.5 -21q-5 0 -15 4q-15 3 -16 3q-18 0 -18 -80zM420 796l-104 -38q-47 -17 -67 -17q-18 0 -29 17t-11 36q0 25 22 42q7 6 44 25l46 24q75 39 103 39q26 0 96 -39l43 -24q32 -18 40 -24q21 -18 21 -39q0 -20 -11 -37q-12 -20 -31 -20q-14 0 -60 17z" />
    <glyph glyph-name="Udieresis" unicode="&#xdc;" horiz-adv-x="820" 
d="M312 471v-205q0 -66 11 -91q22 -50 89 -50q64 0 86 35q19 30 19 106v205q0 80 -18 80q-1 0 -16 -3q-10 -4 -15 -4q-16 0 -25.5 21t-9.5 46q0 75 72 75q21 0 64.5 -5t65.5 -5q20 0 58.5 5t60.5 5q33 0 51.5 -21t18.5 -54q0 -25 -14 -46t-38 -21q-8 0 -22 4q-21 3 -23 3
q-25 0 -25 -80v-220q0 -78 -10 -114q-15 -54 -64 -94q-81 -66 -220 -66q-140 0 -213 59q-47 37 -60 96q-8 34 -8 117v222q0 46 -4 61q-5 19 -21 19q1 0 -23 -3q-14 -4 -22 -4q-24 0 -38 21t-14 46q0 31 16 53t38 22q26 0 76.5 -5t75.5 -5q24 0 67.5 5t69.5 5q48 0 48 -75
q0 -25 -9.5 -46t-25.5 -21q-5 0 -15 4q-15 3 -16 3q-18 0 -18 -80zM307 918q37 0 63 -25.5t26 -62.5t-26 -63t-63 -26t-62.5 26t-25.5 63t25.5 62.5t62.5 25.5zM520 918q37 0 63 -25.5t26 -62.5t-26 -63t-63 -26t-63 26t-26 63t26 62.5t63 25.5z" />
    <glyph glyph-name="Yacute" unicode="&#xdd;" horiz-adv-x="780" 
d="M341 489l51 -100l55 100q23 42 23 52q0 11 -22 24t-22 47q0 33 16.5 53.5t40.5 20.5q20 0 60.5 -5t61.5 -5t55.5 5t54.5 5q33 0 51.5 -21.5t18.5 -54.5q0 -25 -14 -46t-38 -21q-7 0 -20.5 2.5t-20.5 2.5q-18 0 -28 -11.5t-32 -47.5l-123 -196q-32 -51 -32 -72v-59
q0 -36 34 -36q10 0 29.5 3.5t28.5 3.5q24 0 38 -21t14 -46q0 -33 -18.5 -54.5t-51.5 -21.5q-24 0 -67.5 5t-71.5 5q-26 0 -76 -5t-75 -5q-100 0 -100 76q0 25 14 46t38 21q10 0 29.5 -3.5t29.5 -3.5q28 0 28 37v39q0 23 -7 40q-4 9 -26 45l-116 191q-13 21 -36 55
q-12 13 -29 13q-7 0 -20 -1.5t-20 -1.5q-24 0 -38 21t-14 46q0 76 75 76q20 0 60.5 -5t61.5 -5q18 0 54 5t56 5q66 0 66 -79q0 -30 -23.5 -43t-23.5 -23q0 -11 21 -52zM345 865l75 40q43 23 67 23q26 0 44 -22.5t18 -49.5q0 -26 -28 -44q-11 -7 -51 -23l-70 -28
q-50 -20 -74 -20q-20 0 -33.5 19t-13.5 40q0 23 24 41q8 6 42 24z" />
    <glyph glyph-name="Thorn" unicode="&#xde;" horiz-adv-x="700" 
d="M134 207v264q0 47 -5.5 63t-19.5 16q-8 0 -23 -3.5t-22 -3.5q-24 0 -38 21t-14 47q0 75 96 75q24 0 67 -5t68 -5q27 0 69.5 5t67.5 5q38 0 60 -21t22 -54q0 -26 -15 -46q-18 -22 -46 -22q-9 0 -26.5 3.5t-27.5 3.5q-29 0 -29 -29q0 -13 7 -15.5t38 -2.5h51q141 0 193 -32
q74 -46 74 -121t-73 -119.5t-194 -44.5h-51q-31 0 -38 -2.5t-7 -15.5v-19q0 -23 29 -23q10 0 27.5 3.5t26.5 3.5q28 0 46 -22q15 -20 15 -45q0 -33 -22 -54.5t-60 -21.5q-25 0 -68 5t-69 5q-25 0 -75.5 -5t-76.5 -5q-79 0 -79 76q0 25 14 46t38 21q7 0 22 -3.5t23 -3.5
q25 0 25 81zM319 377v-71q0 -20 42 -20q129 0 129 62q0 55 -112 55q-39 0 -51 -7q-8 -5 -8 -19z" />
    <glyph glyph-name="germandbls" unicode="&#xdf;" horiz-adv-x="740" 
d="M103 180v216h-44q-52 0 -52 57q0 33 11.5 45t42.5 12h51q6 93 100 146q79 44 180 44q91 0 160 -34q43 -21 70 -56q30 -40 30 -84q0 -37 -26 -68t-63 -44q-24 -9 -24 -19q0 -16 31 -26q51 -16 98 -56q57 -48 57 -133q0 -90 -46 -142q-54 -61 -143 -61q-79 0 -138 62v-13
q0 -39 -43 -39q-50 0 -50 51q0 12 2.5 37t2.5 38t-2.5 35.5t-2.5 34.5q0 58 73 58q57 0 58 -53q2 -80 68 -80q27 0 44 17t17 44q0 34 -36 59q-9 6 -68 35l-82 40q-47 23 -47 64q0 37 38 60q34 17 70.5 35.5t36.5 48.5q0 32 -30 50q-26 15 -60 15q-67 0 -100 -37
q-27 -30 -27 -102v-380q0 -35 -6 -48q-7 -19 -30 -19q-15 0 -42.5 5t-37.5 5q-15 0 -44.5 -5t-43.5 -5q-48 0 -48 69q0 58 44 58q7 0 17.5 -3.5t15.5 -3.5q18 0 18 70z" />
    <glyph glyph-name="agrave" unicode="&#xe0;" horiz-adv-x="600" 
d="M236 406v-18q0 -32 -25.5 -49.5t-60.5 -17.5q-38 0 -65 24.5t-27 61.5q0 51 51 84q58 36 167 36t162 -30q38 -21 52 -60q12 -32 12 -94v-188q0 -47 17 -47q4 0 12 1t12 1q23 0 36.5 -16.5t13.5 -39.5q0 -39 -34 -60q-28 -17 -69 -17q-91 0 -114 64q-67 -64 -171 -64
q-74 0 -123 37q-55 41 -55 113q0 102 80 140q14 6 150 36q80 18 80 70q0 27 -20.5 41.5t-47.5 14.5q-33 0 -33 -23zM337 197v22q-10 -11 -83 -26q-62 -13 -62 -43q0 -47 57 -47q88 0 88 94zM298 587l-70 28q-40 16 -51 23q-28 18 -28 44q0 27 18 49.5t44 22.5q24 0 67 -23
l74 -40q37 -20 43 -24q24 -18 24 -41q0 -21 -13.5 -40t-33.5 -19q-24 0 -74 20z" />
    <glyph glyph-name="aacute" unicode="&#xe1;" horiz-adv-x="600" 
d="M236 406v-18q0 -32 -25.5 -49.5t-60.5 -17.5q-38 0 -65 24.5t-27 61.5q0 51 51 84q58 36 167 36t162 -30q38 -21 52 -60q12 -32 12 -94v-188q0 -47 17 -47q4 0 12 1t12 1q23 0 36.5 -16.5t13.5 -39.5q0 -39 -34 -60q-28 -17 -69 -17q-91 0 -114 64q-67 -64 -171 -64
q-74 0 -123 37q-55 41 -55 113q0 102 80 140q14 6 150 36q80 18 80 70q0 27 -20.5 41.5t-47.5 14.5q-33 0 -33 -23zM337 197v22q-10 -11 -83 -26q-62 -13 -62 -43q0 -47 57 -47q88 0 88 94zM255 691l75 40q43 23 67 23q26 0 44 -22.5t18 -49.5q0 -26 -28 -44q-11 -7 -51 -23
l-70 -28q-50 -20 -74 -20q-20 0 -33.5 19t-13.5 40q0 23 24 41q8 6 42 24z" />
    <glyph glyph-name="acircumflex" unicode="&#xe2;" horiz-adv-x="600" 
d="M236 406v-18q0 -32 -25.5 -49.5t-60.5 -17.5q-38 0 -65 24.5t-27 61.5q0 51 51 84q58 36 167 36t162 -30q38 -21 52 -60q12 -32 12 -94v-188q0 -47 17 -47q4 0 12 1t12 1q23 0 36.5 -16.5t13.5 -39.5q0 -39 -34 -60q-28 -17 -69 -17q-91 0 -114 64q-67 -64 -171 -64
q-74 0 -123 37q-55 41 -55 113q0 102 80 140q14 6 150 36q80 18 80 70q0 27 -20.5 41.5t-47.5 14.5q-33 0 -33 -23zM337 197v22q-10 -11 -83 -26q-62 -13 -62 -43q0 -47 57 -47q88 0 88 94zM300 622l-104 -38q-47 -17 -67 -17q-18 0 -29 17t-11 36q0 25 22 42q7 6 44 25
l46 24q75 39 103 39q26 0 96 -39l43 -24q32 -18 40 -24q21 -18 21 -39q0 -20 -11 -37q-12 -20 -31 -20q-14 0 -60 17z" />
    <glyph glyph-name="atilde" unicode="&#xe3;" horiz-adv-x="600" 
d="M236 406v-18q0 -32 -25.5 -49.5t-60.5 -17.5q-38 0 -65 24.5t-27 61.5q0 51 51 84q58 36 167 36t162 -30q38 -21 52 -60q12 -32 12 -94v-188q0 -47 17 -47q4 0 12 1t12 1q23 0 36.5 -16.5t13.5 -39.5q0 -39 -34 -60q-28 -17 -69 -17q-91 0 -114 64q-67 -64 -171 -64
q-74 0 -123 37q-55 41 -55 113q0 102 80 140q14 6 150 36q80 18 80 70q0 27 -20.5 41.5t-47.5 14.5q-33 0 -33 -23zM337 197v22q-10 -11 -83 -26q-62 -13 -62 -43q0 -47 57 -47q88 0 88 94zM414 720q26 17 42 17q45 0 45 -51q0 -48 -48 -80q-44 -29 -94 -29q-32 0 -82 20.5
t-62 20.5t-40 -17q-30 -23 -47 -23q-22 0 -35.5 16t-13.5 39q0 39 34 71q40 38 101 38q29 0 81.5 -20.5t73.5 -20.5q16 0 45 19z" />
    <glyph glyph-name="adieresis" unicode="&#xe4;" horiz-adv-x="600" 
d="M236 406v-18q0 -32 -25.5 -49.5t-60.5 -17.5q-38 0 -65 24.5t-27 61.5q0 51 51 84q58 36 167 36t162 -30q38 -21 52 -60q12 -32 12 -94v-188q0 -47 17 -47q4 0 12 1t12 1q23 0 36.5 -16.5t13.5 -39.5q0 -39 -34 -60q-28 -17 -69 -17q-91 0 -114 64q-67 -64 -171 -64
q-74 0 -123 37q-55 41 -55 113q0 102 80 140q14 6 150 36q80 18 80 70q0 27 -20.5 41.5t-47.5 14.5q-33 0 -33 -23zM337 197v22q-10 -11 -83 -26q-62 -13 -62 -43q0 -47 57 -47q88 0 88 94zM197 754q37 0 63 -25.5t26 -62.5t-26 -63t-63 -26t-62.5 26t-25.5 63t25.5 62.5
t62.5 25.5zM410 754q37 0 63 -25.5t26 -62.5t-26 -63t-63 -26t-63 26t-26 63t26 62.5t63 25.5z" />
    <glyph glyph-name="aring" unicode="&#xe5;" horiz-adv-x="600" 
d="M236 406v-18q0 -32 -25.5 -49.5t-60.5 -17.5q-38 0 -65 24.5t-27 61.5q0 51 51 84q58 36 167 36t162 -30q38 -21 52 -60q12 -32 12 -94v-188q0 -47 17 -47q4 0 12 1t12 1q23 0 36.5 -16.5t13.5 -39.5q0 -39 -34 -60q-28 -17 -69 -17q-91 0 -114 64q-67 -64 -171 -64
q-74 0 -123 37q-55 41 -55 113q0 102 80 140q14 6 150 36q80 18 80 70q0 27 -20.5 41.5t-47.5 14.5q-33 0 -33 -23zM337 197v22q-10 -11 -83 -26q-62 -13 -62 -43q0 -47 57 -47q88 0 88 94zM297 754q42 0 72.5 -30t30.5 -73q0 -42 -30.5 -72.5t-72.5 -30.5q-43 0 -73 30.5
t-30 72.5q0 43 30 73t73 30zM297 694q-43 0 -43 -43q0 -18 12 -30.5t31 -12.5q18 0 30.5 12.5t12.5 30.5q0 19 -12.5 31t-30.5 12z" />
    <glyph glyph-name="ae" unicode="&#xe6;" horiz-adv-x="860" 
d="M768 227h-252q-22 0 -22 -17q0 -43 26.5 -74.5t67.5 -31.5q51 0 81.5 40.5t72.5 40.5q32 0 53 -17t21 -48q0 -62 -64.5 -102.5t-162.5 -40.5q-140 0 -179 93q-59 -93 -192 -93q-79 0 -132 40q-59 44 -59 119t55 116q35 26 126 39q126 18 126 71q0 22 -18 34.5t-41 12.5
q-36 0 -42 -32q-10 -51 -82 -51q-40 0 -66 21t-26 61q0 51 46 83q52 36 153 36q128 0 167 -68q61 68 168 68t170.5 -62.5t63.5 -168.5q0 -41 -10.5 -55t-48.5 -14zM528 337h108q26 0 26 16q0 28 -24 47q-23 16 -52 16q-28 0 -54 -18q-30 -20 -30 -47q0 -14 26 -14zM337 197
v21q-31 -19 -86 -25q-59 -6 -59 -42q0 -47 56 -47q37 0 68 28q21 19 21 65z" />
    <glyph glyph-name="ccedilla" unicode="&#xe7;" horiz-adv-x="540" 
d="M27 249q0 128 73.5 203t201.5 75q81 0 139 -36q70 -43 70 -119q0 -39 -27.5 -63.5t-66.5 -24.5q-80 0 -80 65q0 16 10 30q-22 17 -55 17q-44 0 -71 -35q-29 -38 -29 -105q0 -62 25 -100q29 -44 83 -44q32 0 50 17q13 13 27 46q13 30 26.5 40t42.5 10q33 0 55.5 -20
t22.5 -54q0 -69 -66 -121q-56 -45 -134 -51l-16 -37q40 4 32 4q37 0 63.5 -20t26.5 -56q0 -39 -38.5 -70.5t-104.5 -31.5q-39 0 -75 12q-49 18 -49 49t29 31q8 0 41 -9.5t55 -9.5q52 0 52 26q0 23 -48 23q-8 0 -25 -1t-26 -1q-29 0 -29 28q0 20 20 51l9 14q-83 13 -138 67
q-76 75 -76 201z" />
    <glyph glyph-name="egrave" unicode="&#xe8;" horiz-adv-x="560" 
d="M464 224h-243q-17 0 -23 -3t-6 -18q0 -43 29.5 -71.5t73.5 -28.5t81 39q22 24 34 31q16 9 42 9q30 0 49.5 -17t19.5 -46q0 -58 -66 -100t-162 -42q-122 0 -194 74.5t-72 197.5q0 121 71 199.5t191 78.5q115 0 178 -64t63 -176q0 -37 -10 -49q-13 -14 -56 -14zM239 335
h101q25 0 25 17q0 23 -20 42.5t-55 19.5q-36 0 -64.5 -22t-28.5 -43q0 -14 42 -14zM288 587l-70 28q-40 16 -51 23q-28 18 -28 44q0 27 18 49.5t44 22.5q24 0 67 -23l74 -40q37 -20 43 -24q24 -18 24 -41q0 -21 -13.5 -40t-33.5 -19q-24 0 -74 20z" />
    <glyph glyph-name="eacute" unicode="&#xe9;" horiz-adv-x="560" 
d="M464 224h-243q-17 0 -23 -3t-6 -18q0 -43 29.5 -71.5t73.5 -28.5t81 39q22 24 34 31q16 9 42 9q30 0 49.5 -17t19.5 -46q0 -58 -66 -100t-162 -42q-122 0 -194 74.5t-72 197.5q0 121 71 199.5t191 78.5q115 0 178 -64t63 -176q0 -37 -10 -49q-13 -14 -56 -14zM239 335
h101q25 0 25 17q0 23 -20 42.5t-55 19.5q-36 0 -64.5 -22t-28.5 -43q0 -14 42 -14zM245 691l75 40q43 23 67 23q26 0 44 -22.5t18 -49.5q0 -26 -28 -44q-11 -7 -51 -23l-70 -28q-50 -20 -74 -20q-20 0 -33.5 19t-13.5 40q0 23 24 41q8 6 42 24z" />
    <glyph glyph-name="ecircumflex" unicode="&#xea;" horiz-adv-x="560" 
d="M464 224h-243q-17 0 -23 -3t-6 -18q0 -43 29.5 -71.5t73.5 -28.5t81 39q22 24 34 31q16 9 42 9q30 0 49.5 -17t19.5 -46q0 -58 -66 -100t-162 -42q-122 0 -194 74.5t-72 197.5q0 121 71 199.5t191 78.5q115 0 178 -64t63 -176q0 -37 -10 -49q-13 -14 -56 -14zM239 335
h101q25 0 25 17q0 23 -20 42.5t-55 19.5q-36 0 -64.5 -22t-28.5 -43q0 -14 42 -14zM295 622l-104 -38q-47 -17 -67 -17q-18 0 -29 17t-11 36q0 25 22 42q7 6 44 25l46 24q75 39 103 39q26 0 96 -39l43 -24q32 -18 40 -24q21 -18 21 -39q0 -20 -11 -37q-12 -20 -31 -20
q-14 0 -60 17z" />
    <glyph glyph-name="edieresis" unicode="&#xeb;" horiz-adv-x="560" 
d="M464 224h-243q-17 0 -23 -3t-6 -18q0 -43 29.5 -71.5t73.5 -28.5t81 39q22 24 34 31q16 9 42 9q30 0 49.5 -17t19.5 -46q0 -58 -66 -100t-162 -42q-122 0 -194 74.5t-72 197.5q0 121 71 199.5t191 78.5q115 0 178 -64t63 -176q0 -37 -10 -49q-13 -14 -56 -14zM239 335
h101q25 0 25 17q0 23 -20 42.5t-55 19.5q-36 0 -64.5 -22t-28.5 -43q0 -14 42 -14zM187 754q37 0 63 -25.5t26 -62.5t-26 -63t-63 -26t-62.5 26t-25.5 63t25.5 62.5t62.5 25.5zM400 754q37 0 63 -25.5t26 -62.5t-26 -63t-63 -26t-63 26t-26 63t26 62.5t63 25.5z" />
    <glyph glyph-name="igrave" unicode="&#xec;" horiz-adv-x="360" 
d="M102 179v144q0 70 -18 70q-5 0 -15.5 -3.5t-17.5 -3.5q-44 0 -44 57q0 69 60 69q14 0 41.5 -5t40.5 -5q15 0 44.5 5t43.5 5q30 0 30 -51v-282q0 -70 17 -70q4 0 15 3.5t18 3.5q44 0 44 -57q0 -69 -59 -69q-22 0 -63 5t-61 5q-19 0 -56.5 -5t-55.5 -5q-59 0 -59 69
q0 57 44 57q1 0 18 -3q22 -4 15 -4q18 0 18 70zM168 587l-70 28q-40 16 -51 23q-28 18 -28 44q0 27 18 49.5t44 22.5q24 0 67 -23l74 -40q37 -20 43 -24q24 -18 24 -41q0 -21 -13.5 -40t-33.5 -19q-24 0 -74 20z" />
    <glyph glyph-name="iacute" unicode="&#xed;" horiz-adv-x="360" 
d="M102 179v144q0 70 -18 70q-5 0 -15.5 -3.5t-17.5 -3.5q-44 0 -44 57q0 69 60 69q14 0 41.5 -5t40.5 -5q15 0 44.5 5t43.5 5q30 0 30 -51v-282q0 -70 17 -70q4 0 15 3.5t18 3.5q44 0 44 -57q0 -69 -59 -69q-22 0 -63 5t-61 5q-19 0 -56.5 -5t-55.5 -5q-59 0 -59 69
q0 57 44 57q1 0 18 -3q22 -4 15 -4q18 0 18 70zM135 691l75 40q43 23 67 23q26 0 44 -22.5t18 -49.5q0 -26 -28 -44q-11 -7 -51 -23l-70 -28q-50 -20 -74 -20q-20 0 -33.5 19t-13.5 40q0 23 24 41q8 6 42 24z" />
    <glyph glyph-name="icircumflex" unicode="&#xee;" horiz-adv-x="360" 
d="M102 179v144q0 70 -18 70q-5 0 -15.5 -3.5t-17.5 -3.5q-44 0 -44 57q0 69 60 69q14 0 41.5 -5t40.5 -5q15 0 44.5 5t43.5 5q30 0 30 -51v-282q0 -70 17 -70q4 0 15 3.5t18 3.5q44 0 44 -57q0 -69 -59 -69q-22 0 -63 5t-61 5q-19 0 -56.5 -5t-55.5 -5q-59 0 -59 69
q0 57 44 57q1 0 18 -3q22 -4 15 -4q18 0 18 70zM160 622l-104 -38q-47 -17 -67 -17q-18 0 -29 17t-11 36q0 25 22 42q7 6 44 25l46 24q75 39 103 39q26 0 96 -39l43 -24q32 -18 40 -24q21 -18 21 -39q0 -20 -11 -37q-12 -20 -31 -20q-14 0 -60 17z" />
    <glyph glyph-name="idieresis" unicode="&#xef;" horiz-adv-x="360" 
d="M102 179v144q0 70 -18 70q-5 0 -15.5 -3.5t-17.5 -3.5q-44 0 -44 57q0 69 60 69q14 0 41.5 -5t40.5 -5q15 0 44.5 5t43.5 5q30 0 30 -51v-282q0 -70 17 -70q4 0 15 3.5t18 3.5q44 0 44 -57q0 -69 -59 -69q-22 0 -63 5t-61 5q-19 0 -56.5 -5t-55.5 -5q-59 0 -59 69
q0 57 44 57q1 0 18 -3q22 -4 15 -4q18 0 18 70zM57 754q37 0 63 -25.5t26 -62.5t-26 -63t-63 -26t-62.5 26t-25.5 63t25.5 62.5t62.5 25.5zM270 754q37 0 63 -25.5t26 -62.5t-26 -63t-63 -26t-63 26t-26 63t26 62.5t63 25.5z" />
    <glyph glyph-name="eth" unicode="&#xf0;" horiz-adv-x="580" 
d="M290 401q-41 0 -67 -32q-31 -40 -31 -117q0 -79 31 -118q25 -31 62 -31q60 0 81.5 44t21.5 105q0 149 -98 149zM27 252q0 130 73 205q69 70 175 70q28 0 43 -7l2 2q-19 26 -54 52l-99 -31q-14 -4 -26 -4q-39 0 -39 31q0 23 28 31l70 20q-28 15 -79 20q-28 3 -28 26
q0 37 60 37q92 0 173 -42l105 32q12 4 23 4q38 0 38 -31q0 -26 -33 -36l-58 -18q152 -128 152 -355q0 -129 -64 -203q-68 -78 -195 -78q-129 0 -198 72.5t-69 202.5z" />
    <glyph glyph-name="ntilde" unicode="&#xf1;" horiz-adv-x="680" 
d="M416 179v125q0 80 -62 82q-33 1 -60 -21q-35 -30 -35 -90v-96q0 -70 12 -70q3 0 11 3.5t15 3.5q29 0 29 -57q0 -69 -40 -69q-24 0 -65.5 5t-61.5 5q-19 0 -56 -5t-54 -5q-18 0 -30 20t-12 49q0 57 44 57q1 0 18 -3q22 -4 15 -4q18 0 18 70v144q0 70 -18 70
q-5 0 -15.5 -3.5t-17.5 -3.5q-44 0 -44 57q0 29 11.5 49t27.5 20q10 0 37 -5t45 -5q14 0 36.5 5t34.5 5q20 0 24 -9.5t4 -42.5v-25h2q73 92 174 92q70 0 118 -46q52 -50 52 -133v-169q0 -70 18 -70q4 0 15 3.5t18 3.5q44 0 44 -57q0 -69 -59 -69q-22 0 -63 5t-61 5
q-19 0 -48.5 -5t-47.5 -5q-40 0 -40 69q0 57 31 57q3 0 11.5 -3.5t11.5 -3.5q9 0 11 13t2 57zM444 720q26 17 42 17q45 0 45 -51q0 -48 -48 -80q-44 -29 -94 -29q-32 0 -82 20.5t-62 20.5t-40 -17q-30 -23 -47 -23q-22 0 -35.5 16t-13.5 39q0 39 34 71q40 38 101 38
q29 0 81.5 -20.5t73.5 -20.5q16 0 45 19z" />
    <glyph glyph-name="ograve" unicode="&#xf2;" horiz-adv-x="580" 
d="M293 527q122 0 191 -73.5t69 -195.5q0 -129 -64 -203q-68 -78 -195 -78q-129 0 -198 72.5t-69 202.5q0 129 69 202t197 73zM290 401q-41 0 -67 -32q-31 -40 -31 -117q0 -79 31 -118q25 -31 62 -31q60 0 81.5 44t21.5 105q0 149 -98 149zM288 587l-70 28q-40 16 -51 23
q-28 18 -28 44q0 27 18 49.5t44 22.5q24 0 67 -23l74 -40q37 -20 43 -24q24 -18 24 -41q0 -21 -13.5 -40t-33.5 -19q-24 0 -74 20z" />
    <glyph glyph-name="oacute" unicode="&#xf3;" horiz-adv-x="580" 
d="M293 527q122 0 191 -73.5t69 -195.5q0 -129 -64 -203q-68 -78 -195 -78q-129 0 -198 72.5t-69 202.5q0 129 69 202t197 73zM290 401q-41 0 -67 -32q-31 -40 -31 -117q0 -79 31 -118q25 -31 62 -31q60 0 81.5 44t21.5 105q0 149 -98 149zM250 691l75 40q43 23 67 23
q26 0 44 -22.5t18 -49.5q0 -26 -28 -44q-11 -7 -51 -23l-70 -28q-50 -20 -74 -20q-20 0 -33.5 19t-13.5 40q0 23 24 41q8 6 42 24z" />
    <glyph glyph-name="ocircumflex" unicode="&#xf4;" horiz-adv-x="580" 
d="M293 527q122 0 191 -73.5t69 -195.5q0 -129 -64 -203q-68 -78 -195 -78q-129 0 -198 72.5t-69 202.5q0 129 69 202t197 73zM290 401q-41 0 -67 -32q-31 -40 -31 -117q0 -79 31 -118q25 -31 62 -31q60 0 81.5 44t21.5 105q0 149 -98 149zM300 622l-104 -38
q-47 -17 -67 -17q-18 0 -29 17t-11 36q0 25 22 42q7 6 44 25l46 24q75 39 103 39q26 0 96 -39l43 -24q32 -18 40 -24q21 -18 21 -39q0 -20 -11 -37q-12 -20 -31 -20q-14 0 -60 17z" />
    <glyph glyph-name="otilde" unicode="&#xf5;" horiz-adv-x="580" 
d="M293 527q122 0 191 -73.5t69 -195.5q0 -129 -64 -203q-68 -78 -195 -78q-129 0 -198 72.5t-69 202.5q0 129 69 202t197 73zM290 401q-41 0 -67 -32q-31 -40 -31 -117q0 -79 31 -118q25 -31 62 -31q60 0 81.5 44t21.5 105q0 149 -98 149zM414 720q26 17 42 17q45 0 45 -51
q0 -48 -48 -80q-44 -29 -94 -29q-32 0 -82 20.5t-62 20.5t-40 -17q-30 -23 -47 -23q-22 0 -35.5 16t-13.5 39q0 39 34 71q40 38 101 38q29 0 81.5 -20.5t73.5 -20.5q16 0 45 19z" />
    <glyph glyph-name="odieresis" unicode="&#xf6;" horiz-adv-x="580" 
d="M293 527q122 0 191 -73.5t69 -195.5q0 -129 -64 -203q-68 -78 -195 -78q-129 0 -198 72.5t-69 202.5q0 129 69 202t197 73zM290 401q-41 0 -67 -32q-31 -40 -31 -117q0 -79 31 -118q25 -31 62 -31q60 0 81.5 44t21.5 105q0 149 -98 149zM197 754q37 0 63 -25.5t26 -62.5
t-26 -63t-63 -26t-62.5 26t-25.5 63t25.5 62.5t62.5 25.5zM410 754q37 0 63 -25.5t26 -62.5t-26 -63t-63 -26t-63 26t-26 63t26 62.5t63 25.5z" />
    <glyph glyph-name="divide" unicode="&#xf7;" horiz-adv-x="600" 
d="M51 212v116h504v-116h-504zM303 181q34 0 57 -23t23 -57t-23 -57t-57 -23t-57 23t-23 57t23 57t57 23zM303 519q34 0 57 -23t23 -57t-23 -57t-57 -23t-57 23t-23 57t23 57t57 23z" />
    <glyph glyph-name="oslash" unicode="&#xf8;" horiz-adv-x="580" 
d="M46 -26l49 76q-68 87 -68 201q0 276 266 276q72 0 108 -16l16 26q23 37 34 44.5t45 7.5q26 0 31 -1q18 -3 18 -19q0 -8 -15 -31l-48 -72q69 -75 69 -193q0 -137 -57 -209q-69 -87 -207 -87q-63 0 -113 21l-11 -17q-23 -36 -33 -43q-15 -11 -50 -11q-29 0 -38.5 3t-9.5 14
q0 8 14 30zM191 193l134 202q-18 6 -37 6q-58 0 -82 -47q-19 -37 -19 -105q0 -10 1 -28.5t1 -27.5h2zM382 315l-133 -202q28 -10 43 -10q56 0 77.5 48.5t21.5 112.5q0 20 -9 51z" />
    <glyph glyph-name="ugrave" unicode="&#xf9;" 
d="M233 467v-249q0 -57 12 -76q19 -31 56 -31q46 0 72 40q23 35 23 103v69q0 70 -18 70l-13.5 -3.5t-19.5 -3.5q-44 0 -44 57q0 69 61 69q17 0 44.5 -5t43.5 -5q14 0 36.5 5t34.5 5q32 0 32 -33v-300q0 -70 18 -70q5 0 15.5 3.5t17.5 3.5q44 0 44 -57q0 -69 -59 -69
q-13 0 -36.5 5t-34.5 5t-32.5 -5t-30.5 -5q-36 0 -36 33v40h-2q-27 -40 -75.5 -63t-100.5 -23q-77 0 -121 42.5t-44 118.5v185q0 70 -18 70l-13.5 -3.5t-19.5 -3.5q-44 0 -44 57q0 69 64 69q16 0 45 -5t46 -5q16 0 37.5 5t33.5 5q18 0 23 -13q3 -8 3 -32zM308 587l-70 28
q-40 16 -51 23q-28 18 -28 44q0 27 18 49.5t44 22.5q24 0 67 -23l74 -40q37 -20 43 -24q24 -18 24 -41q0 -21 -13.5 -40t-33.5 -19q-24 0 -74 20z" />
    <glyph glyph-name="uacute" unicode="&#xfa;" 
d="M233 467v-249q0 -57 12 -76q19 -31 56 -31q46 0 72 40q23 35 23 103v69q0 70 -18 70l-13.5 -3.5t-19.5 -3.5q-44 0 -44 57q0 69 61 69q17 0 44.5 -5t43.5 -5q14 0 36.5 5t34.5 5q32 0 32 -33v-300q0 -70 18 -70q5 0 15.5 3.5t17.5 3.5q44 0 44 -57q0 -69 -59 -69
q-13 0 -36.5 5t-34.5 5t-32.5 -5t-30.5 -5q-36 0 -36 33v40h-2q-27 -40 -75.5 -63t-100.5 -23q-77 0 -121 42.5t-44 118.5v185q0 70 -18 70l-13.5 -3.5t-19.5 -3.5q-44 0 -44 57q0 69 64 69q16 0 45 -5t46 -5q16 0 37.5 5t33.5 5q18 0 23 -13q3 -8 3 -32zM285 691l75 40
q43 23 67 23q26 0 44 -22.5t18 -49.5q0 -26 -28 -44q-11 -7 -51 -23l-70 -28q-50 -20 -74 -20q-20 0 -33.5 19t-13.5 40q0 23 24 41q8 6 42 24z" />
    <glyph glyph-name="ucircumflex" unicode="&#xfb;" 
d="M233 467v-249q0 -57 12 -76q19 -31 56 -31q46 0 72 40q23 35 23 103v69q0 70 -18 70l-13.5 -3.5t-19.5 -3.5q-44 0 -44 57q0 69 61 69q17 0 44.5 -5t43.5 -5q14 0 36.5 5t34.5 5q32 0 32 -33v-300q0 -70 18 -70q5 0 15.5 3.5t17.5 3.5q44 0 44 -57q0 -69 -59 -69
q-13 0 -36.5 5t-34.5 5t-32.5 -5t-30.5 -5q-36 0 -36 33v40h-2q-27 -40 -75.5 -63t-100.5 -23q-77 0 -121 42.5t-44 118.5v185q0 70 -18 70l-13.5 -3.5t-19.5 -3.5q-44 0 -44 57q0 69 64 69q16 0 45 -5t46 -5q16 0 37.5 5t33.5 5q18 0 23 -13q3 -8 3 -32zM315 622l-104 -38
q-47 -17 -67 -17q-18 0 -29 17t-11 36q0 25 22 42q7 6 44 25l46 24q75 39 103 39q26 0 96 -39l43 -24q32 -18 40 -24q21 -18 21 -39q0 -20 -11 -37q-12 -20 -31 -20q-14 0 -60 17z" />
    <glyph glyph-name="udieresis" unicode="&#xfc;" 
d="M233 467v-249q0 -57 12 -76q19 -31 56 -31q46 0 72 40q23 35 23 103v69q0 70 -18 70l-13.5 -3.5t-19.5 -3.5q-44 0 -44 57q0 69 61 69q17 0 44.5 -5t43.5 -5q14 0 36.5 5t34.5 5q32 0 32 -33v-300q0 -70 18 -70q5 0 15.5 3.5t17.5 3.5q44 0 44 -57q0 -69 -59 -69
q-13 0 -36.5 5t-34.5 5t-32.5 -5t-30.5 -5q-36 0 -36 33v40h-2q-27 -40 -75.5 -63t-100.5 -23q-77 0 -121 42.5t-44 118.5v185q0 70 -18 70l-13.5 -3.5t-19.5 -3.5q-44 0 -44 57q0 69 64 69q16 0 45 -5t46 -5q16 0 37.5 5t33.5 5q18 0 23 -13q3 -8 3 -32zM207 754
q37 0 63 -25.5t26 -62.5t-26 -63t-63 -26t-62.5 26t-25.5 63t25.5 62.5t62.5 25.5zM420 754q37 0 63 -25.5t26 -62.5t-26 -63t-63 -26t-63 26t-26 63t26 62.5t63 25.5z" />
    <glyph glyph-name="yacute" unicode="&#xfd;" 
d="M549 342l-87 -238q-52 -143 -109 -216q-85 -109 -204 -109q-66 0 -113 30q-56 34 -56 96q0 37 25.5 61.5t62.5 24.5q29 0 49 -20.5t20 -48.5l-3 -21q13 -8 24 -8q25 0 52.5 31t27.5 57q0 25 -39 117l-101 239q-22 51 -36 51q-4 0 -11.5 -1t-11.5 -1q-44 0 -44 57
q0 69 59 69q15 0 48 -5t50 -5q18 0 54 5t55 5q58 0 58 -60q0 -36 -32 -45q-11 -3 -22 -6.5t-11 -15.5q0 -8 10 -39l65 -202h2l65 193q13 39 13 49q0 7 -28.5 20t-28.5 47q0 24 14.5 41.5t37.5 17.5q14 0 44 -5t46 -5q17 0 50.5 5t51.5 5q59 0 59 -69q0 -57 -44 -57
q-4 0 -13 2t-14 2q-17 0 -35 -48zM285 691l75 40q43 23 67 23q26 0 44 -22.5t18 -49.5q0 -26 -28 -44q-11 -7 -51 -23l-70 -28q-50 -20 -74 -20q-20 0 -33.5 19t-13.5 40q0 23 24 41q8 6 42 24z" />
    <glyph glyph-name="thorn" unicode="&#xfe;" horiz-adv-x="640" 
d="M102 6v491q0 69 -18 69q-5 0 -15.5 -3.5t-17.5 -3.5q-44 0 -44 57q0 70 59 70q13 0 39.5 -5t40.5 -5t42.5 5t43.5 5q27 0 27 -48v-178h2q47 67 128 67q106 0 162 -79q53 -74 53 -188q0 -117 -50 -194q-58 -89 -168 -89q-35 0 -69 19q-11 7 -58 42v-32q0 -70 18 -70
q5 0 15 4l18 3q44 0 44 -57q0 -69 -59 -69q-22 0 -63 5t-61 5q-19 0 -56 -5t-54 -5q-54 0 -54 69q0 57 44 57l18 -3q10 -4 15 -4q18 0 18 70zM343 393q-37 0 -60.5 -37t-23.5 -101q0 -68 26 -105q23 -33 59 -33q40 0 66 32q29 36 29 106q0 69 -29 106q-26 32 -67 32z" />
    <glyph glyph-name="ydieresis" unicode="&#xff;" 
d="M549 342l-87 -238q-52 -143 -109 -216q-85 -109 -204 -109q-66 0 -113 30q-56 34 -56 96q0 37 25.5 61.5t62.5 24.5q29 0 49 -20.5t20 -48.5l-3 -21q13 -8 24 -8q25 0 52.5 31t27.5 57q0 25 -39 117l-101 239q-22 51 -36 51q-4 0 -11.5 -1t-11.5 -1q-44 0 -44 57
q0 69 59 69q15 0 48 -5t50 -5q18 0 54 5t55 5q58 0 58 -60q0 -36 -32 -45q-11 -3 -22 -6.5t-11 -15.5q0 -8 10 -39l65 -202h2l65 193q13 39 13 49q0 7 -28.5 20t-28.5 47q0 24 14.5 41.5t37.5 17.5q14 0 44 -5t46 -5q17 0 50.5 5t51.5 5q59 0 59 -69q0 -57 -44 -57
q-4 0 -13 2t-14 2q-17 0 -35 -48zM227 754q37 0 63 -25.5t26 -62.5t-26 -63t-63 -26t-62.5 26t-25.5 63t25.5 62.5t62.5 25.5zM440 754q37 0 63 -25.5t26 -62.5t-26 -63t-63 -26t-63 26t-26 63t26 62.5t63 25.5z" />
    <glyph glyph-name="dotlessi" unicode="&#x131;" horiz-adv-x="360" 
d="M102 179v144q0 70 -18 70q-5 0 -15.5 -3.5t-17.5 -3.5q-44 0 -44 57q0 69 60 69q14 0 41.5 -5t40.5 -5q15 0 44.5 5t43.5 5q30 0 30 -51v-282q0 -70 17 -70q4 0 15 3.5t18 3.5q44 0 44 -57q0 -69 -59 -69q-22 0 -63 5t-61 5q-19 0 -56.5 -5t-55.5 -5q-59 0 -59 69
q0 57 44 57q1 0 18 -3q22 -4 15 -4q18 0 18 70z" />
    <glyph glyph-name="Lslash" unicode="&#x141;" horiz-adv-x="680" 
d="M410 376l-91 -49v-121q0 -55 12 -70.5t59 -15.5h59q78 0 78 51q0 12 -4.5 37t-4.5 38q0 34 28 56q25 19 60 19q80 0 80 -83q0 -17 -3.5 -51.5t-3.5 -52.5q0 -14 3.5 -43.5t3.5 -44.5q0 -56 -66 -56q-57 0 -181 4q-142 5 -211 6q-33 0 -86 -5t-76 -5q-24 0 -39 21.5
t-15 54.5q0 25 13.5 46t34.5 21q3 0 27 -3q16 -4 26 -4q21 0 21 86l-24 -16q-28 -19 -41 -19q-24 0 -40 24t-16 49q0 17 13 27q9 6 54 30l54 28v134q0 81 -21 81q-9 0 -26.5 -3.5t-26.5 -3.5q-21 0 -34.5 21t-13.5 46q0 32 16.5 54t39.5 22q22 0 73 -5t87 -5q16 0 63 5t74 5
q77 0 77 -76q0 -25 -13 -45q-16 -22 -40 -22q-8 0 -22 4q-21 3 -23 3q-13 0 -18 -12q-7 -17 -7 -69v-25l63 39q12 8 23 16q15 10 25 10q22 0 37.5 -22t15.5 -45q0 -24 -26 -41q-24 -13 -47 -25z" />
    <glyph glyph-name="lslash" unicode="&#x142;" horiz-adv-x="400" 
d="M273 451l31 17q29 16 39 16q24 0 40 -22q13 -20 13 -44q0 -18 -10.5 -27.5t-50.5 -27.5l-62 -28v-156q0 -70 17 -70q4 0 15 3.5t18 3.5q44 0 44 -57q0 -69 -59 -69q-22 0 -63 5t-61 5q-19 0 -56.5 -5t-55.5 -5q-59 0 -59 69q0 57 44 57q1 0 18 -3q22 -4 15 -4q18 0 18 70
v75q-44 -32 -69 -32q-19 0 -37.5 23t-18.5 46q0 29 43 46l32 13q19 7 50 23v124q0 69 -18 69q-5 0 -15.5 -3.5t-17.5 -3.5q-44 0 -44 57q0 70 59 70q13 0 39.5 -5t40.5 -5q15 0 44.5 5t43.5 5q33 0 33 -54v-181z" />
    <glyph glyph-name="OE" unicode="&#x152;" horiz-adv-x="1080" 
d="M660 518v-70q0 -19 1 -23q4 -8 19 -8h31q26 0 26 28q0 5 -1 15t-1 15q0 45 53 45q50 0 50 -73q0 -20 -4 -60.5t-4 -60.5q0 -15 4 -39t4 -38q0 -25 -14 -44t-39 -19q-52 0 -52 59v26q0 23 -25 23h-22q-17 0 -21.5 -6t-4.5 -31v-66q0 -42 13.5 -56t58.5 -14h71q97 0 97 50
q0 12 -3.5 34.5t-3.5 33.5q0 36 20.5 59t56.5 23q35 0 56 -20.5t21 -54.5q0 -20 -4 -60.5t-4 -60.5q0 -16 4 -42.5t4 -34.5q0 -27 -19.5 -42.5t-51.5 -15.5q-44 0 -141 5t-153 5q-30 0 -65.5 -5t-50.5 -5q-46 0 -41 81h-2q-58 -89 -193 -89q-145 0 -226 101q-74 93 -74 241
q0 164 65 257q83 119 247 119q126 0 181 -88h2q-2 44 6 59t37 15q5 0 45 -5t71 -5q52 0 140 5t154 5q59 0 59 -50q0 -17 -4.5 -50.5t-4.5 -49.5t4.5 -45.5t4.5 -43.5q0 -31 -21 -52t-52 -21q-81 0 -81 75q0 13 5 38.5t5 38.5q0 22 -22 28q-10 3 -41 3h-112q-58 0 -58 -39z
M222 335q0 -212 135 -212q71 0 102 53q29 50 29 157q0 99 -20 149q-14 34 -43.5 54.5t-66.5 20.5q-136 0 -136 -222z" />
    <glyph glyph-name="oe" unicode="&#x153;" horiz-adv-x="900" 
d="M814 226h-225q-36 0 -36 -19q0 -35 21 -66q26 -38 76 -38q37 0 71 39.5t79 39.5q30 0 50 -17.5t20 -46.5q0 -63 -72 -104q-65 -37 -154 -37q-91 0 -175 61q-67 -61 -178 -61q-130 0 -196.5 73.5t-66.5 199.5q0 277 268 277q116 0 180 -58q69 58 176 58q105 0 167.5 -65
t62.5 -170q0 -44 -12.5 -55t-55.5 -11zM592 336h93q25 0 30 6q2 2 2 8q0 27 -22.5 45t-49.5 18q-46 0 -69 -29q-14 -18 -14 -35q0 -13 30 -13zM293 103q95 0 95 150q0 148 -94 148q-58 0 -82 -48q-19 -39 -19 -95q0 -155 100 -155z" />
    <glyph glyph-name="Scaron" unicode="&#x160;" horiz-adv-x="620" 
d="M275 700q114 0 165 -72l2 2q-1 60 60 60q64 0 64 -57q0 -16 -3 -41.5t-3 -38.5q0 -9 3 -29t3 -34q0 -66 -71 -66q-61 0 -76 72q-14 67 -115 67q-30 0 -51 -15q-25 -17 -25 -47q0 -26 19 -40q24 -18 90 -30q247 -44 247 -216q0 -107 -72.5 -172.5t-180.5 -65.5
q-98 0 -176 66q0 -57 -61 -57q-64 0 -64 64q0 16 2 48t2 49q0 12 -2 35.5t-2 35.5q0 30 26 47q23 14 55 14q65 0 78 -82q13 -78 116 -78q41 0 67 17q30 20 30 58q0 41 -34 56q-26 12 -97 30t-79 20q-41 14 -72 37q-74 55 -74 151q0 97 67 156q63 56 162 56zM320 868l102 39
q42 16 60 16q19 0 30.5 -18.5t11.5 -38.5q0 -30 -61 -63l-43 -23q-73 -39 -96 -39q-25 0 -103 39l-46 23q-35 17 -44 25q-22 17 -22 42q0 19 11 36t29 17q24 0 67 -16z" />
    <glyph glyph-name="scaron" unicode="&#x161;" horiz-adv-x="540" 
d="M56 353q0 80 54 128q51 46 133 46q83 0 131 -47q2 43 57 43q50 0 50 -36q0 -8 -3.5 -28t-3.5 -32t3.5 -30.5t3.5 -28.5q0 -42 -58 -42q-42 0 -74 43t-81 43q-55 0 -55 -41q0 -32 63 -44l43 -8q96 -18 133 -42q58 -38 58 -121q0 -81 -66 -132q-61 -47 -145 -47
q-97 0 -164 58q3 -49 -50 -49q-58 0 -58 45q0 10 2.5 29.5t2.5 30.5q0 10 -2.5 29.5t-2.5 29.5q0 22 20 35q16 11 40 11q43 0 72 -41q13 -19 18 -25q12 -13 24 -19q36 -17 73 -17q71 0 71 45q0 22 -19.5 32t-70.5 19q-101 17 -138 40q-61 37 -61 123zM280 694l102 39
q42 16 60 16q19 0 30.5 -18.5t11.5 -38.5q0 -30 -61 -63l-43 -23q-73 -39 -96 -39q-25 0 -103 39l-46 23q-35 17 -44 25q-22 17 -22 42q0 19 11 36t29 17q24 0 67 -16z" />
    <glyph glyph-name="Ydieresis" unicode="&#x178;" horiz-adv-x="780" 
d="M341 489l51 -100l55 100q23 42 23 52q0 11 -22 24t-22 47q0 33 16.5 53.5t40.5 20.5q20 0 60.5 -5t61.5 -5t55.5 5t54.5 5q33 0 51.5 -21.5t18.5 -54.5q0 -25 -14 -46t-38 -21q-7 0 -20.5 2.5t-20.5 2.5q-18 0 -28 -11.5t-32 -47.5l-123 -196q-32 -51 -32 -72v-59
q0 -36 34 -36q10 0 29.5 3.5t28.5 3.5q24 0 38 -21t14 -46q0 -33 -18.5 -54.5t-51.5 -21.5q-24 0 -67.5 5t-71.5 5q-26 0 -76 -5t-75 -5q-100 0 -100 76q0 25 14 46t38 21q10 0 29.5 -3.5t29.5 -3.5q28 0 28 37v39q0 23 -7 40q-4 9 -26 45l-116 191q-13 21 -36 55
q-12 13 -29 13q-7 0 -20 -1.5t-20 -1.5q-24 0 -38 21t-14 46q0 76 75 76q20 0 60.5 -5t61.5 -5q18 0 54 5t56 5q66 0 66 -79q0 -30 -23.5 -43t-23.5 -23q0 -11 21 -52zM287 918q37 0 63 -25.5t26 -62.5t-26 -63t-63 -26t-62.5 26t-25.5 63t25.5 62.5t62.5 25.5zM500 918
q37 0 63 -25.5t26 -62.5t-26 -63t-63 -26t-63 26t-26 63t26 62.5t63 25.5z" />
    <glyph glyph-name="Zcaron" unicode="&#x17d;" horiz-adv-x="640" 
d="M43 131l324 432h-112q-35 0 -45 -4q-19 -8 -19 -38q0 -9 2 -27t2 -27q0 -32 -22 -52t-54 -20q-77 0 -77 77q0 15 2.5 44t2.5 43q0 13 -2.5 39.5t-2.5 40.5q0 31 17 40q14 7 63 7h430q65 0 65 -70q0 -35 -44 -92l-312 -403h127q52 0 73.5 5.5t21.5 34.5q0 12 -2.5 36
t-2.5 37q0 35 22 55.5t57 20.5q34 0 53.5 -23t19.5 -57q0 -16 -3.5 -48t-3.5 -48q0 -14 3.5 -42t3.5 -42q0 -55 -72 -55h-467q-76 0 -76 66q0 33 28 70zM320 868l102 39q42 16 60 16q19 0 30.5 -18.5t11.5 -38.5q0 -30 -61 -63l-43 -23q-73 -39 -96 -39q-25 0 -103 39
l-46 23q-35 17 -44 25q-22 17 -22 42q0 19 11 36t29 17q24 0 67 -16z" />
    <glyph glyph-name="zcaron" unicode="&#x17e;" horiz-adv-x="540" 
d="M55 122l247 269h-112q-33 0 -33 -19q0 -6 2 -17.5t2 -16.5q0 -22 -16 -39q-19 -19 -50 -19q-27 0 -43.5 18t-16.5 43q0 13 3.5 33.5t3.5 30.5q0 14 -3.5 34t-3.5 31q0 42 54 42h354q77 0 77 -71q0 -36 -31 -69l-239 -258h90q64 0 64 33q0 7 -1.5 20t-1.5 19q0 55 61 55
q62 0 62 -71q0 -10 -2.5 -30.5t-2.5 -31.5q0 -19 2.5 -43t2.5 -33q0 -20 -13 -28.5t-49 -8.5h-374q-67 0 -67 60q0 30 34 67zM270 694l102 39q42 16 60 16q19 0 30.5 -18.5t11.5 -38.5q0 -30 -61 -63l-43 -23q-73 -39 -96 -39q-25 0 -103 39l-46 23q-35 17 -44 25
q-22 17 -22 42q0 19 11 36t29 17q24 0 67 -16z" />
    <glyph glyph-name="florin" unicode="&#x192;" 
d="M227 113l52 302q4 23 4 25q0 17 -21 17q-5 0 -15 -1.5t-16 -1.5q-28 0 -28 30q0 48 39 48h23q23 0 33.5 11.5t25.5 76.5q35 154 172 154q71 0 121 -31q59 -37 59 -103q0 -30 -19 -49t-49 -19q-22 0 -40.5 14t-18.5 35q0 7 2 17.5t2 14.5q0 18 -25 18q-31 0 -44 -29
q-5 -11 -13 -56q-6 -34 -6 -40q0 -14 22 -14q10 0 29 2t28 2q30 0 30 -33q0 -49 -40 -49q-9 0 -27 1.5t-26 1.5q-22 0 -29 -8.5t-11 -31.5l-57 -333q-23 -136 -63 -198q-65 -102 -181 -102q-64 0 -110 37q-51 41 -51 103q0 38 22.5 65t59.5 27q27 0 47 -18.5t20 -44.5
q0 -11 -7 -25.5t-7 -18.5q0 -18 24 -18q33 0 50 42q10 24 31 137z" />
    <glyph glyph-name="circumflex" unicode="&#x2c6;" horiz-adv-x="560" 
d="M280 622l-104 -38q-47 -17 -67 -17q-18 0 -29 17t-11 36q0 25 22 42q7 6 44 25l46 24q75 39 103 39q26 0 96 -39l43 -24q32 -18 40 -24q21 -18 21 -39q0 -20 -11 -37q-12 -20 -31 -20q-14 0 -60 17z" />
    <glyph glyph-name="caron" unicode="&#x2c7;" horiz-adv-x="560" 
d="M280 694l102 39q42 16 60 16q19 0 30.5 -18.5t11.5 -38.5q0 -30 -61 -63l-43 -23q-73 -39 -96 -39q-25 0 -103 39l-46 23q-35 17 -44 25q-22 17 -22 42q0 19 11 36t29 17q24 0 67 -16z" />
    <glyph glyph-name="breve" unicode="&#x2d8;" horiz-adv-x="540" 
d="M265 700q39 0 78.5 37.5t65.5 37.5q53 0 53 -51q0 -45 -59 -91t-138 -46q-73 0 -128 38q-69 48 -69 100q0 50 53 50q26 0 65.5 -37.5t78.5 -37.5z" />
    <glyph glyph-name="dotaccent" unicode="&#x2d9;" horiz-adv-x="320" 
d="M163 775q39 0 66.5 -27.5t27.5 -66.5t-28 -66.5t-66 -27.5q-39 0 -66.5 27.5t-27.5 66.5t27.5 66.5t66.5 27.5z" />
    <glyph glyph-name="ring" unicode="&#x2da;" horiz-adv-x="340" 
d="M172 754q42 0 72.5 -30t30.5 -73q0 -42 -30.5 -72.5t-72.5 -30.5q-43 0 -73 30.5t-30 72.5q0 43 30 73t73 30zM172 694q-43 0 -43 -43q0 -18 12 -30.5t31 -12.5q18 0 30.5 12.5t12.5 30.5q0 19 -12.5 31t-30.5 12z" />
    <glyph glyph-name="ogonek" unicode="&#x2db;" horiz-adv-x="360" 
d="M171 0h80q-30 -20 -55 -48q-31 -36 -31 -62q0 -17 13 -29.5t30 -12.5q10 0 26.5 5.5t24.5 5.5q10 0 18 -8.5t8 -19.5q0 -27 -35 -43q-27 -12 -58 -12q-49 0 -86 30t-37 78q0 74 102 116z" />
    <glyph glyph-name="tilde" unicode="&#x2dc;" horiz-adv-x="560" 
d="M404 730q26 17 42 17q45 0 45 -51q0 -48 -48 -80q-44 -29 -94 -29q-32 0 -82 20.5t-62 20.5t-40 -17q-30 -23 -47 -23q-22 0 -35.5 16t-13.5 39q0 39 34 71q40 38 101 38q29 0 81.5 -20.5t73.5 -20.5q16 0 45 19z" />
    <glyph glyph-name="hungarumlaut" unicode="&#x2dd;" horiz-adv-x="600" 
d="M120 710l45 46q57 58 84 58q19 0 37 -19t18 -39q0 -27 -63 -79l-52 -43q-57 -47 -78 -47q-18 0 -31 14.5t-13 32.5q0 22 53 76zM341 710l46 46l37 37q25 21 46 21q20 0 37.5 -19t17.5 -38q0 -27 -63 -80l-51 -43q-56 -47 -79 -47q-18 0 -30.5 14.5t-12.5 32.5q0 24 52 76
z" />
    <glyph glyph-name="mu" unicode="&#x3bc;" 
d="M233 467v-249q0 -57 12 -76q19 -31 56 -31q46 0 72 40q23 35 23 103v69q0 70 -18 70l-13.5 -3.5t-19.5 -3.5q-44 0 -44 57q0 69 61 69q17 0 44.5 -5t43.5 -5q14 0 36.5 5t34.5 5q32 0 32 -33v-300q0 -70 18 -70q5 0 15.5 3.5t17.5 3.5q44 0 44 -57q0 -69 -59 -69
q-13 0 -36.5 5t-34.5 5t-32.5 -5t-30.5 -5q-36 0 -36 33v40h-2q-27 -40 -75.5 -63t-100.5 -23h-19q0 -20 5.5 -60.5t5.5 -64.5q0 -74 -84 -74t-84 74q0 23 5.5 89t5.5 111v271q0 70 -18 70l-13.5 -3.5t-19.5 -3.5q-44 0 -44 57q0 69 64 69q16 0 45 -5t46 -5q16 0 37.5 5
t33.5 5q18 0 23 -13q3 -8 3 -32z" />
    <glyph glyph-name="endash" unicode="&#x2013;" horiz-adv-x="500" 
d="M38 339h424q78 0 78 -69t-78 -69h-424q-78 0 -78 69t78 69z" />
    <glyph glyph-name="emdash" unicode="&#x2014;" horiz-adv-x="1000" 
d="M962 201h-924q-78 0 -78 69t78 69h924q78 0 78 -69t-78 -69z" />
    <glyph glyph-name="quoteleft" unicode="&#x2018;" horiz-adv-x="300" 
d="M39 404q0 90 59 189q64 107 100 107q39 0 39 -43q0 -25 -26 -63q-55 -80 -55 -109q0 -15 23 -21q34 -10 55 -36.5t21 -61.5q0 -40 -28 -72t-67 -32q-55 0 -89 45q-32 41 -32 97z" />
    <glyph glyph-name="quoteright" unicode="&#x2019;" horiz-adv-x="300" 
d="M256 558q0 -89 -59 -189q-63 -107 -101 -107t-38 44q0 25 22 56q58 82 58 115q0 15 -23 21q-33 9 -54 36t-21 62q0 40 27.5 72t67.5 32q55 0 88 -42.5t33 -99.5z" />
    <glyph glyph-name="quotesinglbase" unicode="&#x201a;" horiz-adv-x="400" 
d="M306 47q0 -90 -59 -189q-64 -107 -101 -107q-38 0 -38 43q0 26 25 62q55 80 55 110q0 15 -23 21q-33 9 -54 36t-21 62q0 40 28 72t67 32q55 0 89 -45q32 -41 32 -97z" />
    <glyph glyph-name="quotedblleft" unicode="&#x201c;" horiz-adv-x="560" 
d="M294 404q0 90 59 189q64 107 101 107q38 0 38 -43q0 -24 -22 -57q-59 -88 -59 -115q0 -14 24 -21q33 -9 54 -36t21 -62q0 -40 -28 -71.5t-67 -31.5q-55 0 -89 44q-32 41 -32 97zM40 404q0 88 59 188q64 108 100 108q39 0 39 -44q0 -23 -26 -62q-55 -82 -55 -110
q0 -14 23 -20q34 -10 55 -37t21 -61q0 -40 -28 -72t-67 -32q-55 0 -89 44q-32 41 -32 98z" />
    <glyph glyph-name="quotedblright" unicode="&#x201d;" horiz-adv-x="560" 
d="M256 558q0 -89 -59 -189q-63 -107 -101 -107t-38 44q0 25 22 56q58 82 58 115q0 15 -23 21q-33 9 -54 36t-21 62q0 40 27.5 72t67.5 32q55 0 88 -42.5t33 -99.5zM510 557q0 -89 -59 -188q-64 -107 -101 -107q-38 0 -38 43q0 25 22 57q59 87 59 115q0 14 -24 21
q-33 9 -54 36t-21 62q0 40 28 72t67 32q55 0 89 -45q32 -41 32 -98z" />
    <glyph glyph-name="quotedblbase" unicode="&#x201e;" horiz-adv-x="560" 
d="M256 47q0 -88 -59 -189q-62 -107 -101 -107q-38 0 -38 43q0 26 25 62q55 80 55 110q0 15 -23 21q-34 9 -54.5 36t-20.5 62q0 40 27.5 72t67.5 32q55 0 89 -45q32 -41 32 -97zM510 47q0 -89 -59 -188q-64 -108 -101 -108q-38 0 -38 44q0 26 25 62q56 81 56 110
q0 13 -24 20q-33 9 -54 36t-21 62q0 40 28 72t67 32q55 0 88 -42.5t33 -99.5z" />
    <glyph glyph-name="dagger" unicode="&#x2020;" 
d="M377 358v-39q0 -38 2 -97q2 -63 2 -86q0 -44 9 -124t9 -101q0 -68 -71 -68t-71 68q0 21 9 101t9 124q0 23 2 86q2 59 2 97v39q-37 -1 -91 -7q-49 -6 -67 -6q-23 0 -37.5 15.5t-14.5 39.5q0 66 55 66q17 0 64 -4.5t89 -5.5q-4 57 -10 124q-5 50 -5 65q0 55 66 55t66 -55
q0 -15 -5 -65q-6 -67 -10 -124q42 1 89 5.5t64 4.5q55 0 55 -66q0 -24 -14.5 -39.5t-37.5 -15.5q-18 0 -67 6q-54 6 -91 7z" />
    <glyph glyph-name="daggerdbl" unicode="&#x2021;" 
d="M379 185q31 2 88 8q46 5 68 5q53 0 53 -61q0 -60 -56 -60q-19 0 -69 5q-53 4 -84 5q1 -35 8 -103t7 -86q0 -55 -66 -55t-66 55q0 18 7 86t8 103q-31 -1 -82.5 -5.5t-70.5 -4.5q-56 0 -56 60q0 61 53 61q22 0 68 -5q57 -6 88 -8q3 43 3 86q0 44 -3 87q-172 -13 -156 -13
q-53 0 -53 55q0 66 56 66q17 0 65 -5t88 -5q-1 51 -8 115.5t-7 73.5q0 55 66 55t66 -55q0 -9 -7 -73.5t-8 -115.5q41 0 89 5t64 5q56 0 56 -66q0 -55 -53 -55q16 0 -156 13q-3 -43 -3 -87q0 -43 3 -86z" />
    <glyph glyph-name="bullet" unicode="&#x2022;" horiz-adv-x="600" 
d="M304 443q72 0 122 -50t50 -123q0 -71 -50.5 -121.5t-121.5 -50.5q-72 0 -123 50.5t-51 121.5q0 72 51 122.5t123 50.5z" />
    <glyph glyph-name="ellipsis" unicode="&#x2026;" horiz-adv-x="1000" 
d="M167 185q43 0 73.5 -30.5t30.5 -73.5t-30.5 -73.5t-73.5 -30.5q-44 0 -74.5 30.5t-30.5 73.5t30.5 73.5t74.5 30.5zM500 185q43 0 73.5 -30.5t30.5 -73.5t-30.5 -73.5t-73.5 -30.5q-44 0 -74.5 30.5t-30.5 73.5t30.5 73.5t74.5 30.5zM832 185q44 0 74.5 -30.5t30.5 -73.5
t-30.5 -73.5t-74.5 -30.5q-43 0 -73.5 30.5t-30.5 73.5t30.5 73.5t73.5 30.5z" />
    <glyph glyph-name="perthousand" unicode="&#x2030;" horiz-adv-x="1380" 
d="M210 700q87 0 133 -64q41 -57 41 -147q0 -97 -37 -155q-45 -69 -137 -69q-90 0 -135 67q-39 57 -39 151t39 151q45 66 135 66zM209 615q-67 0 -67 -133q0 -132 67 -132q69 0 69 132q0 133 -69 133zM742 413q87 0 134 -64q40 -57 40 -148q0 -97 -37 -155q-45 -69 -137 -69
q-90 0 -135 67q-39 57 -39 151t39 151q45 67 135 67zM742 328v-1q-68 1 -68 -132t68 -133t68 133q0 49 -12 83q-18 50 -56 50zM1162 413q87 0 133 -64q41 -57 41 -148q0 -97 -37 -155q-45 -69 -137 -69q-90 0 -135 67q-39 57 -39 151t39 151q45 67 135 67zM1162 328v-1
q-68 1 -68 -132t68 -133t68 133q0 49 -12 83q-18 50 -56 50zM669 643l-308 -623q-12 -25 -14 -27q-8 -8 -31 -8q-44 0 -44 19q0 10 9 28l312 629q11 22 17.5 26.5t28.5 4.5q41 0 41 -20q0 -7 -11 -29z" />
    <glyph glyph-name="guilsinglleft" unicode="&#x2039;" horiz-adv-x="300" 
d="M45 322v0l93 81q54 47 76 46q15 -1 26 -15t10 -30q-1 -21 -32 -59l-46 -56q-14 -17 -14 -24q-1 -7 10 -18l25 -31l36 -42q22 -30 21 -49q-3 -35 -45 -34q-21 1 -43 17q-6 5 -35 33l-61 59q-53 51 -52 76q1 18 31 46z" />
    <glyph glyph-name="guilsinglright" unicode="&#x203a;" horiz-adv-x="300" 
d="M253 218v0l-93 -81q-54 -47 -77 -46q-15 1 -25.5 15t-9.5 30q1 21 32 59l46 56q14 17 14 24q1 7 -10 18l-25 31l-36 42q-22 30 -21 49q3 35 45 34q28 -1 78 -50l60 -59q54 -53 53 -76q-1 -18 -31 -46z" />
    <glyph glyph-name="fraction" unicode="&#x2044;" horiz-adv-x="120" 
d="M249 643l-308 -623q-12 -25 -14 -27q-8 -8 -31 -8q-44 0 -44 19q0 8 10 28l311 629q11 22 17.5 26.5t28.5 4.5q42 0 42 -20q0 -5 -12 -29z" />
    <glyph glyph-name="trademark" unicode="&#x2122;" horiz-adv-x="1000" 
d="M982 686v-28h-19q-22 0 -26.5 -6.5t-4.5 -29.5v-259q0 -33 7.5 -40.5t42.5 -9.5v-31h-186v31q35 1 43 8.5t8 40.5v262h-2l-138 -342h-12l-146 342h-2v-280q0 -31 49 -31v-31h-137v31h15q25 0 30.5 11t5.5 42v256q0 23 -2 27q-5 9 -25 9h-15v28h147l111 -257l107 257h149z
M427 686v-106h-35q0 40 -16.5 54.5t-57.5 14.5h-43v-276q1 -50 10.5 -55t42.5 -5h9v-31h-211v31h9q33 0 43.5 5t11.5 55v276h-39q-41 0 -57.5 -14.5t-16.5 -54.5h-35v106h385z" />
    <glyph glyph-name="fi" unicode="&#xf001;" horiz-adv-x="760" 
d="M486 179v174q0 28 -29.5 38.5t-106.5 10.5q-51 0 -69 -12q-11 -7 -11 -34v-177q0 -59 9 -67q3 -3 9 -3t16 4q15 3 17 3q44 0 44 -57q0 -69 -59 -69q-22 0 -63 5t-61 5t-57 -5t-52 -5q-55 -1 -55 69q0 57 44 57q3 0 18 -3q12 -4 15 -4q18 0 18 70v186q0 21 -5.5 26
t-26.5 5q-35 0 -49.5 10.5t-14.5 38.5q0 60 55 60q26 0 32.5 3.5t7.5 19.5q6 90 62 125q75 47 199 47q103 0 173 -32q74 -33 74 -86q0 -26 -25.5 -42t-53.5 -16q-34 0 -57 15q-28 18 -25 50q-30 13 -82 13q-51 0 -79 -12t-28 -45q0 -36 19 -43q25 -10 93 -10q74 0 157 7
q71 6 81 6q20 0 25.5 -10.5t5.5 -42.5v-273q0 -70 17 -70q4 0 15 3.5t18 3.5q44 0 44 -57q0 -69 -59 -69q-22 0 -63 5t-61 5q-19 0 -56.5 -5t-55.5 -5q-59 0 -59 69q0 57 44 57q1 0 18 -3q22 -4 15 -4q18 0 18 70z" />
    <glyph glyph-name="fl" unicode="&#xf002;" horiz-adv-x="760" 
d="M269 360v-181q0 -59 9 -67q3 -3 9 -3t16 4q15 3 17 3q44 0 44 -57q0 -69 -59 -69q-22 0 -63 5t-61 5t-57 -5t-52 -5q-55 -1 -55 69q0 57 44 57q3 0 18 -3q12 -4 15 -4q18 0 18 70v195q0 16 -3 21t-17 5h-17q-57 0 -57 54q0 59 58 59q29 0 34 5t6 35q4 71 64 111
q53 36 127 36q18 0 99 -7t118 -7q15 0 43.5 1.5t42.5 1.5q24 0 31 -18q4 -9 4 -39v-453q0 -70 17 -70q4 0 15 3.5t18 3.5q44 0 44 -57q0 -69 -59 -69q-22 0 -63 5t-61 5q-19 0 -56.5 -5t-55.5 -5q-59 0 -59 69q0 57 44 57q1 0 18 -3q22 -4 15 -4q18 0 18 70v333q0 45 -23 65
q-31 26 -111 26q-42 0 -56 -8q-20 -12 -20 -51q0 -31 19 -31h26q33 0 46.5 -11.5t13.5 -43.5q0 -33 -14.5 -45t-46.5 -12t-38.5 -5.5t-6.5 -35.5z" />
    <glyph glyph-name="glyph232" horiz-adv-x="600" 
 />
    </font>
</defs>
</svg>
